
<svg width="80px" height="17px" viewBox="0 0 80 17" version="1.1" xmlns="http://www.w3.org/2000/svg" xmlns:xlink="http://www.w3.org/1999/xlink">
    <g id="Page-1" stroke="none" stroke-width="1" fill="none" fill-rule="evenodd">
        <g id="1-1-Dashboard-Strategy-Dropdown" transform="translate(-41.000000, -84.000000)" fill="#00B9FF">
            <g id="Panel">
                <g id="logo" transform="translate(41.000000, 84.000000)">
                    <path d="M5.85312386,13.4192154 C6.23310384,13.4192154 6.57654213,13.347186 6.88344903,13.203125 C7.19035594,13.059064 7.45341505,12.868186 7.67263427,12.6304854 C7.89185349,12.3927847 8.06357263,12.11187 8.18779686,11.7877327 C8.31202108,11.4635955 8.37413226,11.1214557 8.37413226,10.7613032 C8.37413226,10.4011507 8.31202108,10.0626124 8.18779686,9.74567819 C8.06357263,9.42874398 7.89185349,9.14782924 7.67263427,8.90292553 C7.45341505,8.65802183 7.19035594,8.46354239 6.88344903,8.31948138 C6.57654213,8.17542038 6.23310384,8.10339096 5.85312386,8.10339096 C5.47314388,8.10339096 5.12970559,8.17542038 4.82279868,8.31948138 C4.51589178,8.46354239 4.25283266,8.65802183 4.03361345,8.90292553 C3.81439423,9.14782924 3.64267508,9.42874398 3.51845086,9.74567819 C3.39422663,10.0626124 3.33211545,10.4011507 3.33211545,10.7613032 C3.33211545,11.1214557 3.39422663,11.4635955 3.51845086,11.7877327 C3.64267508,12.11187 3.81439423,12.3927847 4.03361345,12.6304854 C4.25283266,12.868186 4.51589178,13.059064 4.82279868,13.203125 C5.12970559,13.347186 5.47314388,13.4192154 5.85312386,13.4192154 Z M11.7281695,5.55352394 L11.7281695,15.9690824 L8.37413226,15.9690824 L8.37413226,14.4996676 C8.24260073,14.7445713 8.06722799,14.9714639 7.84800877,15.1803524 C7.62878955,15.3892408 7.37669123,15.5693144 7.09170625,15.7205785 C6.80672126,15.8718425 6.49616536,15.9942925 6.16002923,16.0879322 C5.82389309,16.1815718 5.487762,16.228391 5.15162587,16.228391 C4.39166591,16.228391 3.69382853,16.0879336 3.0580928,15.8070146 C2.42235707,15.5260957 1.87797084,15.1443397 1.42491779,14.6617354 C0.971864742,14.179131 0.621119255,13.6028956 0.372670807,12.933012 C0.12422236,12.2631283 1.13686838e-13,11.5392326 1.13686838e-13,10.7613032 C1.13686838e-13,9.98337377 0.12422236,9.25947808 0.372670807,8.58959441 C0.621119255,7.91971075 0.971864742,7.34347537 1.42491779,6.86087101 C1.87797084,6.37826665 2.42235707,5.99651071 3.0580928,5.71559176 C3.69382853,5.4346728 4.39166591,5.29421543 5.15162587,5.29421543 C5.487762,5.29421543 5.82389309,5.34103455 6.16002923,5.4346742 C6.49616536,5.52831385 6.80672126,5.65436534 7.09170625,5.81283245 C7.37669123,5.97129955 7.62878955,6.15857605 7.84800877,6.37466755 C8.06722799,6.59075906 8.24260073,6.81405027 8.37413226,7.04454787 L8.37413226,5.55352394 L11.7281695,5.55352394 Z M14.1261722,2.09607713 C14.1261722,1.50542701 14.3307737,1.008424 14.7399829,0.605053191 C15.1491922,0.20168238 15.660696,0 16.2745098,0 C16.5814167,0 16.8663974,0.0540220662 17.1294605,0.162067819 C17.3925235,0.270113572 17.6227003,0.417773886 17.8199976,0.605053191 C18.0172949,0.792332497 18.170746,1.0156237 18.2803556,1.27493351 C18.3899652,1.53424332 18.4447692,1.80795512 18.4447692,2.09607713 C18.4447692,2.38419914 18.3899652,2.65430947 18.2803556,2.90641622 C18.170746,3.15852298 18.0172949,3.38181419 17.8199976,3.57629654 C17.6227003,3.7707789 17.3925235,3.92204068 17.1294605,4.03008644 C16.8663974,4.13813219 16.5814167,4.19215426 16.2745098,4.19215426 C15.9676029,4.19215426 15.6862758,4.13813219 15.43052,4.03008644 C15.1747643,3.92204068 14.9482412,3.7707789 14.7509439,3.57629654 C14.5536466,3.38181419 14.4001954,3.15852298 14.2905858,2.90641622 C14.1809762,2.65430947 14.1261722,2.38419914 14.1261722,2.09607713 Z M14.6084521,5.55352394 L17.9624893,5.55352394 L17.9624893,15.9690824 L14.6084521,15.9690824 L14.6084521,5.55352394 Z M28.4277189,8.55718085 C28.1938851,8.49955645 27.9965907,8.45994027 27.83583,8.43833112 C27.6750692,8.41672197 27.4777749,8.40591755 27.2439411,8.40591755 C26.3232203,8.40591755 25.5851934,8.67242641 25.029838,9.20545213 C24.4744827,9.73847784 24.1968092,10.6388456 24.1968092,11.9065824 L24.1968092,15.9690824 L20.8427719,15.9690824 L20.8427719,5.55352394 L24.1968092,5.55352394 L24.1968092,7.23902926 C24.4452576,6.74922184 24.8581143,6.31704531 25.4353915,5.9424867 C26.0126688,5.56792809 26.6739702,5.3806516 27.4193156,5.3806516 C27.8139101,5.3806516 28.1500412,5.43827513 28.4277189,5.55352394 L28.4277189,8.55718085 Z M37.4022653,9.33510638 L35.2320058,15.9690824 L32.5137011,15.9690824 L28.5677749,5.55352394 L32.0314213,5.55352394 L33.9824626,11.7553191 L35.8458166,5.55352394 L38.9367921,5.55352394 L40.8001461,11.7553191 L42.7511874,5.55352394 L46.2148338,5.55352394 L42.2689076,15.9690824 L39.5506028,15.9690824 L37.4022653,9.33510638 Z M52.1860918,16.25 C51.2799857,16.25 50.4652332,16.1023397 49.7418098,15.8070146 C49.0183863,15.5116896 48.4045817,15.1155278 47.9003775,14.6185173 C47.3961733,14.1215068 47.0088919,13.54167 46.7385215,12.8789894 C46.4681511,12.2163087 46.332968,11.5104204 46.332968,10.7613032 C46.332968,10.012186 46.4681511,9.30629764 46.7385215,8.64361702 C47.0088919,7.9809364 47.3961733,7.40109956 47.9003775,6.9040891 C48.4045817,6.40707863 49.0183863,6.01091681 49.7418098,5.71559176 C50.4652332,5.4202667 51.2799857,5.27260638 52.1860918,5.27260638 C53.1068125,5.27260638 53.9288723,5.4202667 54.6522957,5.71559176 C55.3757191,6.01091681 55.9895237,6.40707863 56.4937279,6.9040891 C56.9979321,7.40109956 57.3852136,7.9809364 57.655584,8.64361702 C57.9259543,9.30629764 58.0611375,10.012186 58.0611375,10.7613032 C58.0611375,11.5104204 57.9259543,12.2163087 57.655584,12.8789894 C57.3852136,13.54167 56.9979321,14.1215068 56.4937279,14.6185173 C55.9895237,15.1155278 55.3757191,15.5116896 54.6522957,15.8070146 C53.9288723,16.1023397 53.1068125,16.25 52.1860918,16.25 Z M52.1860918,13.4192154 C52.5660718,13.4192154 52.9131637,13.3507875 53.2273779,13.2139295 C53.5415921,13.0770716 53.8083048,12.8861936 54.0275241,12.6412899 C54.2467433,12.3963862 54.4184624,12.1154714 54.5426866,11.7985372 C54.6669109,11.481603 54.729022,11.1358618 54.729022,10.7613032 C54.729022,10.4011507 54.6669109,10.0590109 54.5426866,9.73487367 C54.4184624,9.41073641 54.2467433,9.12982167 54.0275241,8.89212101 C53.8083048,8.65442035 53.5415921,8.46354239 53.2273779,8.31948138 C52.9131637,8.17542038 52.5660718,8.10339096 52.1860918,8.10339096 C51.8061119,8.10339096 51.4626736,8.17542038 51.1557667,8.31948138 C50.8488597,8.46354239 50.5858006,8.65442035 50.3665814,8.89212101 C50.1473622,9.12982167 49.9792967,9.41073641 49.8623797,9.73487367 C49.7454628,10.0590109 49.6870052,10.4011507 49.6870052,10.7613032 C49.6870052,11.1358618 49.7454628,11.481603 49.8623797,11.7985372 C49.9792967,12.1154714 50.1473622,12.3963862 50.3665814,12.6412899 C50.5858006,12.8861936 50.8488597,13.0770716 51.1557667,13.2139295 C51.4626736,13.3507875 51.8061119,13.4192154 52.1860918,13.4192154 Z M67.8029473,8.55718085 C67.5691134,8.49955645 67.3718191,8.45994027 67.2110583,8.43833112 C67.0502976,8.41672197 66.8530032,8.40591755 66.6191694,8.40591755 C65.6984487,8.40591755 64.9604217,8.67242641 64.4050664,9.20545213 C63.849711,9.73847784 63.5720375,10.6388456 63.5720375,11.9065824 L63.5720375,15.9690824 L60.2180002,15.9690824 L60.2180002,5.55352394 L63.5720375,5.55352394 L63.5720375,7.23902926 C63.820486,6.74922184 64.2333426,6.31704531 64.8106199,5.9424867 C65.3878972,5.56792809 66.0491986,5.3806516 66.7945439,5.3806516 C67.1891385,5.3806516 67.5252696,5.43827513 67.8029473,5.55352394 L67.8029473,8.55718085 Z M75.8786993,10.7613032 L79.9780782,15.9690824 L75.9883084,15.9690824 L72.7438802,11.6040559 L72.7438802,15.9690824 L69.3898429,15.9690824 L69.3898429,0.84275266 L72.7438802,0.84275266 L72.7438802,9.96176862 L76.0102302,5.55352394 L80,5.55352394 L75.8786993,10.7613032 Z" id="airwork"></path>
                </g>
            </g>
        </g>
    </g>
</svg>