<svg xmlns="http://www.w3.org/2000/svg" width="14" height="13" viewBox="0 0 14 13">
    <path fill="#FFF" fill-rule="nonzero" d="M1.5 0C.676 0 0 .676 0 1.5v9c0 .824.676 1.5 1.5 1.5H7v-1H1.5a.494.494 0 0 1-.5-.5v-9c0-.281.219-.5.5-.5h9c.281 0 .5.219.5.5v2.625h1V1.5c0-.824-.676-1.5-1.5-1.5h-9zM4 3v1h4V3H4zm7.012 3v1H10.5C9.676 7 9 7.676 9 8.5s.676 1.5 1.5 1.5h2c.281 0 .5.219.5.5s-.219.5-.5.5H9v1h2.012v1h1v-1h.488c.824 0 1.5-.676 1.5-1.5S13.324 9 12.5 9h-2a.494.494 0 0 1-.5-.5c0-.281.219-.5.5-.5H13V7h-.988V6h-1z"/>
</svg>
