
<svg width="25px" height="16px" viewBox="0 0 25 16" version="1.1" xmlns="http://www.w3.org/2000/svg" xmlns:xlink="http://www.w3.org/1999/xlink">
    <g id="Page-1" stroke="none" stroke-width="1" fill="none" fill-rule="evenodd" opacity="0.783226376">
        <g id="6-Settings" transform="translate(-421.000000, -493.000000)">
            <g id="1" transform="translate(421.000000, 493.000000)">
                <path d="M22.9137931,16 L2.0862069,16 C1.53747744,16.0044855 1.00940045,15.7958437 0.6181566,15.4199773 C0.226912749,15.0441109 0.00455369366,14.5318118 0,13.9957895 L0,2.00421053 C0.00455369366,1.46818818 0.226912749,0.955889103 0.6181566,0.580022718 C1.00940045,0.204156334 1.53747744,-0.00448546347 2.0862069,3.73981987e-16 L22.9137931,3.73981987e-16 C23.4625226,-0.00448546347 23.9905995,0.204156334 24.3818434,0.580022718 C24.7730873,0.955889103 24.9954463,1.46818818 25,2.00421053 L25,14.0042105 C24.985798,15.1171224 24.0531369,16.0093615 22.9137931,16 Z M8.62068966,4.90947368 C8.62068966,4.52210526 8.31896552,4.21052632 7.94827586,4.21052632 L3.25862069,4.21052632 C2.88793103,4.21052632 2.5862069,4.52210526 2.5862069,4.90947368 L2.5862069,7.72210526 C2.5862069,8.10947368 2.88793103,8.42105263 3.25862069,8.42105263 L7.94827586,8.42105263 C8.31896552,8.42105263 8.62068966,8.10947368 8.62068966,7.72210526 L8.62068966,4.90947368 Z" id="shape" fill="#C0CDD4"></path>
                <path d="M21.5517241,12.6315789 L18.9655172,12.6315789 C18.4051724,12.6315789 18.1034483,12.3789474 18.1034483,11.7894737 C18.1034483,11.2 18.4051724,10.9473684 18.9655172,10.9473684 L21.5517241,10.9473684 C22.112069,10.9473684 22.4137931,11.2 22.4137931,11.7894737 C22.4137931,12.3789474 22.112069,12.6315789 21.5517241,12.6315789 Z M16.3793103,12.6315789 L13.7931034,12.6315789 C13.2327586,12.6315789 12.9310345,12.3789474 12.9310345,11.7894737 C12.9310345,11.2 13.2327586,10.9473684 13.7931034,10.9473684 L16.3793103,10.9473684 C16.9396552,10.9473684 17.2413793,11.2 17.2413793,11.7894737 C17.2413793,12.3789474 16.9396552,12.6315789 16.3793103,12.6315789 Z M11.2068966,12.6315789 L8.62068966,12.6315789 C8.06034483,12.6315789 7.75862069,12.3789474 7.75862069,11.7894737 C7.75862069,11.2 8.06034483,10.9473684 8.62068966,10.9473684 L11.2068966,10.9473684 C11.7672414,10.9473684 12.0689655,11.2 12.0689655,11.7894737 C12.0689655,12.3789474 11.7672414,12.6315789 11.2068966,12.6315789 Z M6.03448276,12.6315789 L3.44827586,12.6315789 C2.88793103,12.6315789 2.5862069,12.3789474 2.5862069,11.7894737 C2.5862069,11.2 2.88793103,10.9473684 3.44827586,10.9473684 L6.03448276,10.9473684 C6.59482759,10.9473684 6.89655172,11.2 6.89655172,11.7894737 C6.89655172,12.3789474 6.59482759,12.6315789 6.03448276,12.6315789 Z" id="shape" fill="#FFFFFF"></path>
            </g>
        </g>
    </g>
</svg>