
<svg width="50px" height="36px" viewBox="0 0 50 36" version="1.1" xmlns="http://www.w3.org/2000/svg" xmlns:xlink="http://www.w3.org/1999/xlink">
    <g id="Page-1" stroke="none" stroke-width="1" fill="none" fill-rule="evenodd">
        <g id="2-Dashboard-Autopilot-What-do-you-want-to-achieve?" transform="translate(-625.000000, -442.000000)">
            <g id="leads" transform="translate(625.000000, 442.000000)">
                <path d="M40.1948242,1.15048828 C36.3141602,1.15048828 33.1683594,4.29619141 33.1683594,8.1765625 L33.1683594,18.7162109 L47.2212891,18.7162109 L47.2212891,8.1765625 C47.2213867,4.29619141 44.0755859,1.15048828 40.1948242,1.15048828 Z" id="Path" fill="#7DDBFF"></path>
                <path d="M47.6032227,17.178418 C47.2990234,17.0618164 46.1204102,16.1408203 45.6598633,15.9837891 L40.1948242,15.9837891 L40.1864258,15.9837891 L34.7212891,15.9837891 C34.2608398,16.1408203 33.0821289,17.0618164 32.7779297,17.178418 C31.4582031,17.6702148 30.8024414,18.1619141 30.8024414,19.4817383 C30.8024414,20.7931641 30.8024414,21.4488281 30.8024414,21.4488281 L49.5786133,21.4488281 C49.5786133,21.4488281 49.5786133,20.7931641 49.5786133,19.4817383 C49.5786133,18.1619141 48.9230469,17.6702148 47.6032227,17.178418 Z" id="Path" fill="#CCF1FF"></path>
                <path d="M47.6032227,17.178418 C47.2990234,17.0618164 46.1204102,16.1408203 45.6598633,15.9837891 L44.0985352,15.9837891 C44.5589844,16.1408203 45.7376953,17.0618164 46.0418945,17.178418 C47.3616211,17.6702148 48.0173828,18.1619141 48.0173828,19.4817383 C48.0173828,20.7931641 48.0173828,21.4488281 48.0173828,21.4488281 L49.5787109,21.4488281 C49.5787109,21.4488281 49.5787109,20.7931641 49.5787109,19.4817383 C49.5786133,18.1619141 48.9230469,17.6702148 47.6032227,17.178418 Z" id="Path" fill="#5ABDE3"></path>
                <rect id="Rectangle" fill="#CCF1FF" x="37.0795898" y="14.3539062" width="6.24580078" height="2.80117187"></rect>
                <g id="Group" transform="translate(34.667969, 14.257812)" fill="#FFFFFF">
                    <polygon id="Path" points="10.9917969 1.72597656 8.63759766 0.0958984375 6.32285156 7.19091797 9.43046875 4.06806641 8.64980469 3.28740234"></polygon>
                    <polygon id="Path" points="0.0572265625 1.72597656 2.41162109 0.0958984375 4.72636719 7.19091797 1.61875 4.06806641 2.39941406 3.28740234"></polygon>
                </g>
                <g id="Group" transform="translate(37.792969, 16.699219)" fill="#CCF1FF">
                    <polygon id="Path" points="2.40185547 0.845996094 2.40185547 4.74951172 3.19785156 4.74951172 4.74394531 0.0728515625"></polygon>
                    <polygon id="Path" points="1.60136719 4.74951172 2.39736328 4.74951172 2.39736328 0.845996094 0.055078125 0.0728515625"></polygon>
                </g>
                <path d="M43.715625,5.19316406 C43.6667969,5.17138672 41.5694336,5.11611328 40.1948242,5.08183594 C38.8202148,5.11611328 36.7226563,5.17138672 36.6738281,5.19316406 C36.6007813,5.22558594 34.7380859,8.4578125 34.7380859,8.4578125 L34.7380859,9.28505859 C34.7380859,12.7708008 38.1171875,15.9745117 40.1948242,15.9829102 C42.2722656,15.9745117 45.6513672,12.7708008 45.6513672,9.28505859 L45.6513672,8.4578125 C45.6513672,8.45791016 43.7888672,5.22558594 43.715625,5.19316406 Z" id="Path" fill="#CCF1FF"></path>
                <path d="M43.715625,5.19316406 C43.6667969,5.17138672 41.5694336,5.11611328 40.1948242,5.08183594 C39.9524414,5.08789062 39.6861328,5.09482422 39.4139648,5.10166016 C40.6850586,5.13476562 42.1137695,5.17519531 42.1542969,5.19316406 C42.2273437,5.22558594 44.0900391,8.4578125 44.0900391,8.4578125 L44.0900391,9.28505859 C44.0900391,12.3606445 41.4603516,15.2132812 39.4139648,15.8483398 C39.6869141,15.9333008 39.9500977,15.9817383 40.1948242,15.9829102 C42.2722656,15.9745117 45.6513672,12.7708008 45.6513672,9.28505859 L45.6513672,8.4578125 C45.6513672,8.45791016 43.7888672,5.22558594 43.715625,5.19316406 Z" id="Path" fill="#5ABDE3"></path>
                <path d="M36.299707,9.28515625 L36.299707,8.45791016 C36.299707,8.45791016 38.162207,5.22568359 38.2354492,5.19326172 C38.2758789,5.17529297 39.7044922,5.13486328 40.9755859,5.10175781 C40.703418,5.09492188 40.4373047,5.08808594 40.1949219,5.08193359 C38.8203125,5.11621094 36.7227539,5.17148437 36.6739258,5.19326172 C36.6008789,5.22568359 34.7381836,8.45791016 34.7381836,8.45791016 L34.7381836,9.28515625 C34.7381836,12.7708984 38.1172852,15.9746094 40.1949219,15.9830078 C40.4396484,15.9818359 40.7026367,15.9333984 40.9755859,15.8484375 C38.9291992,15.2132812 36.299707,12.3607422 36.299707,9.28515625 Z" id="Path" fill="#FFFFFF"></path>
                <path d="M33.2689453,9.31708984 C35.3954102,8.72167969 40.2740234,6.88037109 41.75625,6.02949219 C44.0207031,4.74287109 45.3907227,3.53027344 45.4265625,3.49824219 C44.1404297,2.06025391 42.2761719,1.15039063 40.1949219,1.15039063 C36.3142578,1.15039063 33.168457,4.29609375 33.168457,8.17646484 C33.1683594,8.56621094 33.2081055,8.94501953 33.2689453,9.31708984 Z" id="Path" fill="#7DDBFF"></path>
                <path d="M33.9490234,8.1765625 C33.9490234,4.43300781 36.8798828,1.38183594 40.5706055,1.17109375 C40.4449219,1.16425781 40.3220703,1.15048828 40.1948242,1.15048828 C36.3141602,1.15048828 33.1683594,4.29619141 33.1683594,8.1765625 C33.1683594,8.56611328 33.2080078,8.94501953 33.2688477,9.31708984 C33.4901367,9.25537109 33.7462891,9.17714844 34.0199219,9.090625 C33.9788086,8.79101563 33.9490234,8.48798828 33.9490234,8.1765625 Z" id="Path" fill="#5ABDE3"></path>
                <path d="M47.2213867,8.1765625 C47.2213867,6.29257813 46.4755859,4.58515625 45.2672852,3.32441406 L41.75625,6.03710937 C41.75625,6.03710937 43.4999023,7.96445312 47.1779297,8.94492187 C47.2053711,8.69199219 47.2213867,8.43652344 47.2213867,8.1765625 Z" id="Path" fill="#7DDBFF"></path>
                <path d="M45.4219727,3.50214844 C45.4227539,3.50175781 45.4265625,3.49873047 45.4265625,3.49873047 C45.4067383,3.47587891 45.3837891,3.45634766 45.3632812,3.43427734 C45.3304687,3.3984375 45.3006836,3.35957031 45.2673828,3.32441406 C45.2643555,3.32099609 45.255957,3.32363281 45.2513672,3.32138672 C43.9734375,1.98945312 42.187207,1.15048828 40.1950195,1.15048828 C40.0607422,1.15048828 39.9296875,1.16308594 39.7969727,1.17070312 C41.6337891,1.27089844 43.2759766,2.07607422 44.4705078,3.32138672 C44.4750977,3.32363281 44.4834961,3.32099609 44.4865234,3.32441406 C44.5201172,3.35947266 44.5498047,3.3984375 44.5826172,3.43427734 C44.6032227,3.45634766 44.6260742,3.47578125 44.6458984,3.49833984 C44.6458984,3.49833984 44.6420898,3.50175781 44.6413086,3.50214844 C45.7551758,4.74375 46.4405273,6.37724609 46.4405273,8.1765625 C46.4405273,8.35908203 46.4245117,8.5375 46.4100586,8.71630859 C46.6572266,8.79628906 46.9111328,8.87373047 47.1779297,8.94501953 C47.2053711,8.69189453 47.2213867,8.43652344 47.2213867,8.1765625 C47.2213867,6.37724609 46.5358398,4.74375 45.4219727,3.50214844 Z" id="Path" fill="#5ABDE3"></path>
                <path d="M40.9800781,31.6140625 C40.9800781,33.7450195 40.9800781,35.5016602 40.9800781,35.5016602 L8.97070312,35.5016602 C8.97070312,35.5016602 8.97070312,33.7451172 8.97070312,31.6140625 C8.97070312,29.4824219 10.0395508,28.6780273 12.1712891,27.8820313 C13.2561523,27.4764648 15.9970703,26.4144531 17.5584961,25.6336914 L18.5496094,24.8370117 L21.4621094,28.475293 L24.5849609,26.9138672 L25.3658203,26.9138672 L28.4885742,28.475293 L31.400293,24.8370117 L32.3922852,25.6336914 C33.9612305,26.4144531 36.7013672,27.4764648 37.7862305,27.8820313 C39.9180664,28.6780273 40.9800781,29.4824219 40.9800781,31.6140625 Z" id="Path" fill="#CCF1FF"></path>
                <path d="M13.7327148,27.8820313 C14.8175781,27.4764648 17.5584961,26.4144531 19.1199219,25.6336914 L19.1611328,25.6008789 L18.5496094,24.8370117 L17.5584961,25.6336914 C15.9970703,26.4144531 13.2561523,27.4764648 12.1712891,27.8820313 C10.0395508,28.6779297 8.97070312,29.4824219 8.97070312,31.6140625 C8.97070312,33.7450195 8.97070312,35.5016602 8.97070312,35.5016602 L10.5321289,35.5016602 C10.5321289,35.5016602 10.5321289,33.7451172 10.5321289,31.6140625 C10.5320312,29.4824219 11.6009766,28.6780273 13.7327148,27.8820313 Z" id="Path" fill="#FFFFFF"></path>
                <path d="M36.2134766,27.8820313 C35.1286133,27.4764648 32.3876953,26.4144531 30.8261719,25.6336914 L30.7849609,25.6008789 L31.3964844,24.8370117 L32.3876953,25.6336914 C33.9490234,26.4144531 36.6899414,27.4764648 37.7748047,27.8820313 C39.9066406,28.6779297 40.9754883,29.4824219 40.9754883,31.6140625 C40.9754883,33.7450195 40.9754883,35.5016602 40.9754883,35.5016602 L39.4139648,35.5016602 C39.4139648,35.5016602 39.4139648,33.7451172 39.4139648,31.6140625 C39.4139648,29.4824219 38.3451172,28.6780273 36.2134766,27.8820313 Z" id="Path" fill="#5ABDE3"></path>
                <path d="M19.1451172,21.4526367 L0.407910156,21.4526367 L0.407910156,20.671875 C0.407910156,20.671875 0.407910156,20.1489258 0.407910156,18.852832 C0.407910156,17.5487305 1.06357422,17.0568359 2.35966797,16.5727539 C2.99853516,16.3306641 4.14677734,15.9013672 5.09208984,15.4485352 L6.00556641,14.5427734 L8.23027344,16.7678711 L9.79169922,15.9948242 L11.353125,16.7678711 L13.5702148,14.5507813 L14.4607422,15.4405273 C15.4123047,15.9013672 16.552832,16.3306641 17.1932617,16.5727539 C18.4970703,17.0568359 19.1450195,17.5486328 19.1450195,18.852832 C19.1450195,20.1488281 19.1450195,20.671875 19.1450195,20.671875 L19.1451172,21.4526367 L19.1451172,21.4526367 Z" id="Path" fill="#CCF1FF"></path>
                <path d="M1.96933594,18.8527344 C1.96933594,17.5486328 2.625,17.0567383 3.92109375,16.5726563 C4.55996094,16.3305664 5.70820312,15.9012695 6.65351563,15.4484375 L6.78310547,15.3203125 L6.00546875,14.5425781 L5.09199219,15.4483398 C4.14658203,15.9011719 2.9984375,16.3304687 2.35957031,16.5725586 C1.06347656,17.0566406 0.4078125,17.5484375 0.4078125,18.8526367 C0.4078125,20.1486328 0.4078125,20.6716797 0.4078125,20.6716797 L0.4078125,21.4524414 L1.96923828,21.4524414 L1.96923828,20.6716797 C1.96933594,20.6717773 1.96933594,20.1488281 1.96933594,18.8527344 Z" id="Path" fill="#FFFFFF"></path>
                <path d="M17.5989258,18.8527344 C17.5989258,17.5486328 16.9432617,17.0567383 15.647168,16.5726563 C15.0083008,16.3305664 13.8600586,15.9012695 12.9146484,15.4484375 L12.7850586,15.3203125 L13.5626953,14.5425781 L14.4760742,15.4483398 C15.4214844,15.9011719 16.5697266,16.3304687 17.2085937,16.5725586 C18.5046875,17.0566406 19.1603516,17.5484375 19.1603516,18.8526367 C19.1603516,20.1486328 19.1603516,20.6716797 19.1603516,20.6716797 L19.1603516,21.4524414 L17.5989258,21.4524414 L17.5989258,20.6716797 C17.5989258,20.6717773 17.5989258,20.1488281 17.5989258,18.8527344 Z" id="Path" fill="#5ABDE3"></path>
                <g id="Group" transform="translate(8.984375, 16.113281)" fill="#EAE7F0">
                    <polygon id="Path" points="1.60488281 5.33935547 0.0434570312 5.33935547 0.433789062 1.10019531 1.21455078 1.10019531"></polygon>
                    <rect id="Rectangle" x="0.102050781" y="0.0384765625" width="1.390625" height="1.06123047"></rect>
                </g>
                <g id="Group" transform="translate(5.859375, 13.671875)" fill="#FFFFFF">
                    <polygon id="Path" points="2.38769531 3.15439453 0.0456054687 0.812207031 0.826269531 0.0314453125 3.96132812 1.69960937 3.96132812 2.37363281"></polygon>
                    <polygon id="Path" points="5.51054688 3.15439453 7.85273438 0.812207031 7.07207031 0.0314453125 3.93701172 1.69960937 3.93701172 2.37363281"></polygon>
                </g>
                <path d="M5.09980469,1.21181641 C5.09980469,1.21181641 16.0298828,-2.69179687 15.2728516,7.45761719 L13.6251953,5.11542969 C10.2209961,4.91259766 6.41113281,6.43476562 4.32675781,7.42636719 C3.35087891,7.89492187 2.75771484,8.23828125 2.75771484,8.23828125 C2.75771484,3.35878906 5.94306641,1.99257812 5.94306641,1.99257812 L5.09980469,1.21181641 Z" id="Path" fill="#7DDBFF"></path>
                <path d="M9.00800781,0.483007812 C11.6733398,0.574902344 14.4859375,1.77109375 14.5249023,6.39404297 L15.2728516,7.45771484 C15.721875,1.43984375 12.062207,0.3625 9.00800781,0.483007812 Z" id="Path" fill="#5ABDE3"></path>
                <path d="M6.78320312,2.17558594 L5.88056641,1.21181641 C5.88056641,1.21181641 7.69208984,0.565332031 9.78876953,0.483007813 C7.38251953,0.399902344 5.09980469,1.21181641 5.09980469,1.21181641 L5.94306641,1.99257813 C5.94306641,1.99257813 2.75771484,3.35878906 2.75771484,8.23828125 C2.75771484,8.23828125 3.05126953,8.06904297 3.55595703,7.809375 C3.73964844,3.28642578 6.78320312,2.17558594 6.78320312,2.17558594 Z" id="Path" fill="#5ABDE3"></path>
                <path d="M15.2728516,7.45761719 L15.2728516,8.24589844 C15.2728516,11.9543945 11.8922852,15.3741211 9.8078125,15.3741211 C7.73095703,15.3741211 4.34277344,11.9542969 4.34277344,8.24589844 L4.34277344,7.45761719 L4.32675781,7.42636719 C6.41123047,6.43486328 10.2209961,4.91269531 13.6251953,5.11542969 L15.2728516,7.45761719 Z" id="Path" fill="#CCF1FF"></path>
                <path d="M13.6251953,5.11542969 C13.1173828,5.08535156 12.6012695,5.10283203 12.0820312,5.14208984 L13.7113281,7.45761719 L13.7113281,8.24589844 C13.7113281,11.5186523 11.0793945,14.5629883 9.02773437,15.2338867 C9.30068359,15.3231445 9.56376953,15.3742188 9.80771484,15.3742188 C11.8921875,15.3742188 15.2727539,11.9543945 15.2727539,8.24599609 L15.2727539,7.45771484 L13.6251953,5.11542969 Z" id="Path" fill="#5ABDE3"></path>
                <path d="M5.90419922,8.24589844 L5.90419922,7.45761719 L5.88818359,7.42636719 C7.66152344,6.58271484 10.6845703,5.36445313 13.643457,5.14208984 L13.6251953,5.11542969 C10.2209961,4.91259766 6.41113281,6.43476563 4.32675781,7.42636719 L4.34277344,7.45761719 L4.34277344,8.24589844 C4.34277344,11.9543945 7.73095703,15.3741211 9.8078125,15.3741211 C10.0525391,15.3741211 10.3163086,15.3230469 10.5892578,15.2337891 C8.5421875,14.5629883 5.90419922,11.5186523 5.90419922,8.24589844 Z" id="Path" fill="#FFFFFF"></path>
                <path d="M30.0500977,5.834375 C30.0500977,5.834375 35.6943359,5.03046875 34.3441406,13.6416016 L31.6115234,9.73798828 C31.6115234,9.73798828 28.3789062,11.2994141 24.9594727,11.2994141 C21.5400391,11.2994141 18.3393555,9.73798828 18.3393555,9.73798828 L15.6068359,13.6416016 C15.3254883,10.6205078 15.8561523,8.34091797 16.8792969,6.64638672 C20.7432617,0.18984375 31.6115234,1.93076172 31.6115234,1.93076172 C29.0580078,2.98486328 30.0500977,5.834375 30.0500977,5.834375 Z" id="Path" fill="#7DDBFF"></path>
                <path d="M30.0500977,5.834375 C30.0500977,5.834375 33.2294922,5.16425781 32.9777344,11.6897461 L34.3441406,13.6415039 C35.6943359,5.03037109 30.0500977,5.834375 30.0500977,5.834375 Z" id="Path" fill="#5ABDE3"></path>
                <g id="Group" transform="translate(15.527344, 1.660156)">
                    <path d="M2.91328125,4.98623047 C5.24707031,1.08642578 10.1342773,0.178808594 13.6397461,0.0702148437 C10.203418,-0.0365234375 4.05996094,0.461328125 1.35175781,4.98623047 C0.328613281,6.68076172 -0.202050781,8.96035156 0.079296875,11.9814453 L1.57822266,9.840625 C1.65761719,7.85097656 2.14707031,6.25449219 2.91328125,4.98623047 Z" id="Path" fill="#5ABDE3"></path>
                    <path d="M18.8166992,11.9814453 L18.8166992,12.746875 C18.8166992,18.8516602 13.015332,24.4729492 9.44794922,24.4729492 C7.11337891,24.4729492 3.80302734,22.0530273 1.81230469,18.6647461 C0.766308594,16.8921875 0.079296875,14.846875 0.079296875,12.7467773 L0.079296875,11.9813477 L2.81181641,8.07773438 C2.81181641,8.07773438 6.01240234,9.63916016 9.43193359,9.63916016 C12.8514648,9.63916016 16.0839844,8.07773438 16.0839844,8.07773438 L18.8166992,11.9814453 Z" id="Path" fill="#CCF1FF"></path>
                </g>
                <path d="M18.9011719,20.325 C17.8550781,18.5524414 17.1681641,16.5071289 17.1681641,14.4070313 L17.1681641,13.6416016 L19.55,10.2385742 C18.7974609,9.96103516 18.3393555,9.73808594 18.3393555,9.73808594 L15.6068359,13.6416992 L15.6068359,14.4071289 C15.6068359,16.5072266 16.2938477,18.5524414 17.3398438,20.3250977 C19.3305664,23.7132813 22.640918,26.1333008 24.9754883,26.1333008 C25.2248047,26.1333008 25.4862305,26.099707 25.7546875,26.0462891 C23.5069336,25.5986328 20.6791016,23.3501953 18.9011719,20.325 Z" id="Path" fill="#FFFFFF"></path>
                <path d="M30.9466797,20.325 C31.9926758,18.5524414 32.6796875,16.5071289 32.6796875,14.4070313 L32.6796875,13.6416016 L30.2977539,10.2385742 C31.0501953,9.96103516 31.5084961,9.73808594 31.5084961,9.73808594 L34.240918,13.6416992 L34.240918,14.4071289 C34.240918,16.5072266 33.5539062,18.5524414 32.5079102,20.3250977 C30.5171875,23.7132813 27.2068359,26.1333008 24.8722656,26.1333008 C24.6229492,26.1333008 24.3615234,26.099707 24.0930664,26.0462891 C26.3408203,25.5986328 29.1686523,23.3501953 30.9466797,20.325 Z" id="Path" fill="#5ABDE3"></path>
                <g id="Group" transform="translate(18.261719, 23.730469)" fill="#FFFFFF">
                    <polygon id="Path" points="3.20039062 4.74482422 0.0775390625 0.841113281 0.0775390625 0.0604492188 1.91044922 0.0604492188 4.009375 1.57988281 6.71367187 2.40263672 6.71669922 3.18330078"></polygon>
                    <polygon id="Path" points="10.2298828 4.74482422 13.3527344 0.841113281 13.3527344 0.0604492188 11.5200195 0.0604492188 9.42089844 1.57988281 6.71669922 2.40263672 6.71367187 3.18330078"></polygon>
                </g>
                <g id="Group" fill="#00B9FF">
                    <path d="M25.0020508,29.6500977 C24.7863281,29.6500977 24.6079102,29.4755859 24.6079102,29.2597656 C24.6079102,29.044043 24.7787109,28.8694336 24.9936523,28.8694336 L25.0020508,28.8694336 C25.2170898,28.8694336 25.3925781,29.044043 25.3925781,29.2597656 C25.3924805,29.4755859 25.2169922,29.6500977 25.0020508,29.6500977 Z" id="Path"></path>
                    <path d="M25.0020508,31.9922852 C24.7863281,31.9922852 24.6079102,31.8176758 24.6079102,31.6018555 C24.6079102,31.3861328 24.7787109,31.2115234 24.9936523,31.2115234 L25.0020508,31.2115234 C25.2170898,31.2115234 25.3925781,31.3861328 25.3925781,31.6018555 C25.3924805,31.8176758 25.2169922,31.9922852 25.0020508,31.9922852 Z" id="Path"></path>
                    <path d="M25.0020508,34.3344727 C24.7863281,34.3344727 24.6079102,34.1598633 24.6079102,33.9441406 C24.6079102,33.7283203 24.7787109,33.5537109 24.9936523,33.5537109 L25.0020508,33.5537109 C25.2170898,33.5537109 25.3925781,33.7283203 25.3925781,33.9441406 C25.3924805,34.1598633 25.2169922,34.3344727 25.0020508,34.3344727 Z" id="Path"></path>
                    <path d="M40.2139648,19.5015625 C39.9980469,19.5015625 39.8197266,19.3269531 39.8197266,19.1112305 C39.8197266,18.8954102 39.9904297,18.7208008 40.2055664,18.7208008 L40.2139648,18.7208008 C40.4289063,18.7208008 40.6041992,18.8954102 40.6041992,19.1112305 C40.6041992,19.3269531 40.4289063,19.5015625 40.2139648,19.5015625 Z" id="Path"></path>
                    <path d="M40.9800781,35.8920898 L8.97070312,35.8920898 C8.75488281,35.8920898 8.58027344,35.7174805 8.58027344,35.5016602 L8.58027344,31.6140625 C8.58027344,29.2536133 9.79404297,28.3532227 12.0348633,27.5161133 C13.3385742,27.0289063 15.9323242,26.0102539 17.3839844,25.2844727 C17.5768555,25.1875977 17.8109375,25.2661133 17.9078125,25.4589844 C18.0038086,25.6519531 17.9261719,25.8859375 17.7332031,25.9827148 C15.9094727,26.8946289 12.6714844,28.1114258 12.3078125,28.2478516 C10.3110352,28.9927734 9.36103516,29.6873047 9.36103516,31.6139648 L9.36103516,35.1112305 L40.5897461,35.1112305 L40.5897461,31.6139648 C40.5897461,29.6850586 39.6421875,28.9913086 37.6499023,28.2478516 C36.3345703,27.7561523 33.7112305,26.7260742 32.2183594,25.9827148 C32.0254883,25.8867188 31.9469727,25.6526367 32.0430664,25.4597656 C32.1382813,25.2662109 32.3740234,25.1868164 32.5660156,25.2844727 C34.0306641,26.0125 36.6219727,27.0303711 37.9228516,27.5161133 C40.1589844,28.3509766 41.3704102,29.2513672 41.3704102,31.6140625 L41.3704102,35.5016602 C41.3704102,35.7174805 41.1958008,35.8920898 40.9800781,35.8920898 Z" id="Path"></path>
                    <path d="M24.9753906,26.5234375 C22.440332,26.5234375 19.0132813,23.9433594 17.0035156,20.5224609 C15.8347656,18.5420898 15.2164063,16.4270508 15.2164063,14.4070313 C15.2164063,14.1913086 15.3910156,14.0166992 15.6067383,14.0166992 C15.8225586,14.0166992 15.997168,14.1913086 15.997168,14.4070313 C15.997168,16.2875977 16.5773438,18.265332 17.6759766,20.1266602 C19.5263672,23.2762695 22.7323242,25.7426758 24.9753906,25.7426758 C28.3529297,25.7426758 33.9537109,20.2525391 33.9537109,14.4070313 C33.9537109,14.1913086 34.1282227,14.0166992 34.3441406,14.0166992 C34.5598633,14.0166992 34.734375,14.1913086 34.734375,14.4070313 C34.7342773,20.8601562 28.6517578,26.5234375 24.9753906,26.5234375 Z" id="Path"></path>
                    <path d="M15.6067383,14.0319336 C15.5732422,14.0319336 15.5396484,14.0277344 15.5069336,14.0189453 C15.3483398,13.9769531 15.2332031,13.840918 15.2179687,13.6777344 C14.9488281,10.7828125 15.3949219,8.34921875 16.5453125,6.44472656 C19.0765625,2.21484375 24.3769531,1.3265625 28.378125,1.3265625 C30.2864258,1.3265625 31.6175781,1.53623047 31.6732422,1.54541016 C31.8455078,1.57285156 31.9790039,1.71201172 31.9996094,1.88544922 C32.0194336,2.05888672 31.9217773,2.22509766 31.7602539,2.29189453 C29.9974609,3.01923828 30.1873047,4.74267578 30.3421875,5.425 C31.0732422,5.40478516 32.55625,5.565625 33.6609375,6.85800781 C34.8618164,8.26240234 35.2214844,10.5648437 34.7297852,13.7022461 C34.7045898,13.8592773 34.5873047,13.9858398 34.4324219,14.0220703 C34.2739258,14.0583008 34.1160156,13.9960938 34.0246094,13.8654297 L31.4773437,10.2275391 C30.5822266,10.6178711 27.8581055,11.6898437 24.959375,11.6898437 C22.0636719,11.6898437 19.3639648,10.6201172 18.4727539,10.2283203 L15.9262695,13.8654297 C15.8522461,13.9712891 15.7318359,14.0319336 15.6067383,14.0319336 Z M31.6114258,9.34755859 C31.7350586,9.34755859 31.8561523,9.40664062 31.9308594,9.51416016 L34.0869141,12.5939453 C34.3326172,10.2010742 33.9910156,8.44492187 33.0675781,7.365625 C32.2037109,6.35546875 31.0379883,6.20488281 30.4198242,6.20488281 C30.2336914,6.20488281 30.1164063,6.21933594 30.1041992,6.22089844 C29.9172852,6.24873047 29.7427734,6.13818359 29.680957,5.96279297 C29.365332,5.05400391 29.2250977,3.31103516 30.4555664,2.19375 C29.9126953,2.1484375 29.196875,2.10722656 28.378125,2.10722656 C25.2681641,2.10722656 19.6819336,2.72324219 17.2139648,6.84677734 C16.2982422,8.36357422 15.8674805,10.2617187 15.9285156,12.5016602 L18.0198242,9.5140625 C18.1295898,9.35546875 18.3370117,9.30322266 18.5100586,9.38671875 C18.5413086,9.40195312 21.6749023,10.9088867 24.959375,10.9088867 C28.2514648,10.9088867 31.4102539,9.4015625 31.4415039,9.38632812 C31.4963867,9.36015625 31.5543945,9.34755859 31.6114258,9.34755859 Z" id="Shape" fill-rule="nonzero"></path>
                    <path d="M40.1910156,16.3741211 C38.9054688,16.3741211 37.2166992,15.3094727 35.9870117,13.7250977 C35.8549805,13.5546875 35.8863281,13.3095703 36.05625,13.1773437 C36.2263672,13.0451172 36.471875,13.0755859 36.6043945,13.2463867 C37.6757813,14.6282227 39.1508789,15.5935547 40.1910156,15.5935547 C42.1000977,15.5935547 45.2657227,12.5380859 45.2657227,9.28564453 C45.2657227,9.06982422 45.4402344,8.89521484 45.655957,8.89521484 C45.8716797,8.89521484 46.0463867,9.06982422 46.0463867,9.28564453 C46.0463867,13.0610352 42.3966797,16.3741211 40.1910156,16.3741211 Z" id="Path"></path>
                    <path d="M49.5832031,21.8391602 L33.9536133,21.8391602 C33.7378906,21.8391602 33.5631836,21.6645508 33.5631836,21.4488281 C33.5631836,21.2330078 33.7378906,21.0584961 33.9536133,21.0584961 L49.1929687,21.0584961 L49.1929687,19.4817383 C49.1929687,18.4642578 48.8231445,18.0475586 47.4713867,17.5444336 C47.2638672,17.4643555 47.0061523,17.3790039 46.71875,17.2835937 L46.2957031,17.1422852 C46.0921875,17.0728516 45.9823242,16.8510742 46.0517578,16.6470703 C46.1219727,16.4423828 46.3429687,16.3348633 46.5472656,16.4027344 L46.9651367,16.5426758 C47.265332,16.6424805 47.5344727,16.7320312 47.7481445,16.8140625 C49.1563477,17.3389648 49.9736328,17.9443359 49.9736328,19.4817383 L49.9736328,21.4488281 C49.9736328,21.6644531 49.7989258,21.8391602 49.5832031,21.8391602 Z" id="Path"></path>
                    <path d="M9.75898437,21.8391602 L0.390332031,21.8391602 C0.174609375,21.8391602 0,21.6645508 0,21.4488281 L0,18.8490234 C0,17.3329102 0.808105469,16.730957 2.20410156,16.2041016 C2.8125,15.981543 3.96757812,15.5430664 4.90615234,15.0932617 C5.09824219,15.0010742 5.33388672,15.0814453 5.42685547,15.2762695 C5.51982422,15.4707031 5.4375,15.7040039 5.24306641,15.7969727 C4.27558594,16.2609375 3.09462891,16.709668 2.47626953,16.9360352 C1.14580078,17.4381836 0.780664063,17.849707 0.780664063,18.8490234 L0.780664063,21.0584961 L9.75898437,21.0584961 C9.97470703,21.0584961 10.1493164,21.2330078 10.1493164,21.4488281 C10.1493164,21.6644531 9.97470703,21.8391602 9.75898437,21.8391602 Z" id="Path"></path>
                    <path d="M15.9970703,21.8391602 L9.75898438,21.8391602 C9.54326172,21.8391602 9.36865234,21.6645508 9.36865234,21.4488281 C9.36865234,21.2330078 9.54326172,21.0584961 9.75898438,21.0584961 L15.9970703,21.0584961 C16.212793,21.0584961 16.3875,21.2330078 16.3875,21.4488281 C16.3875,21.6644531 16.2128906,21.8391602 15.9970703,21.8391602 Z" id="Path"></path>
                    <path d="M9.78183594,15.702832 C7.57617187,15.702832 3.92646484,12.1926758 3.92646484,8.1921875 C3.92646484,7.97646484 4.10107422,7.80175781 4.31679687,7.80175781 C4.53251953,7.80175781 4.70712891,7.97636719 4.70712891,8.1921875 C4.70712891,11.6624023 7.87275391,14.9220703 9.78183594,14.9220703 C10.8103516,14.9220703 12.2734375,13.9057617 13.3400391,12.4506836 C13.4681641,12.2772461 13.7113281,12.2391602 13.8859375,12.3665039 C14.0597656,12.4938477 14.097168,12.7381836 13.9698242,12.9120117 C12.7461914,14.58125 11.0634766,15.702832 9.78183594,15.702832 Z" id="Path"></path>
                    <path d="M8.21279297,17.1548828 C8.11142578,17.1548828 8.01152344,17.115625 7.93681641,17.0404297 L5.59472656,14.6983398 C5.4421875,14.5458008 5.4421875,14.2988281 5.59472656,14.1463867 C5.74726562,13.9939453 5.99423828,13.9938477 6.14667969,14.1463867 L8.29130859,16.2907227 L9.58740234,15.6487305 C9.73535156,15.5683594 9.92060547,15.5851562 10.047168,15.7051758 C10.2035156,15.8538086 10.2133789,16.0970703 10.0647461,16.2529297 C10.0334961,16.2861328 9.98847656,16.3211914 9.94736328,16.3413086 L8.38515625,17.1144531 C8.33017578,17.1415039 8.27148438,17.1548828 8.21279297,17.1548828 Z" id="Path"></path>
                    <path d="M11.3356445,17.1548828 C11.2768555,17.1548828 11.2174805,17.1415039 11.1625977,17.1144531 L9.60117187,16.3416992 L9.94052734,15.6379883 L11.2579102,16.290332 L13.4018555,14.1463867 C13.5543945,13.9938477 13.8013672,13.9938477 13.9538086,14.1463867 C14.10625,14.2989258 14.1063477,14.5458984 13.9538086,14.6983398 L11.6117187,17.0404297 C11.5369141,17.1155273 11.4370117,17.1548828 11.3356445,17.1548828 Z" id="Path"></path>
                    <path d="M2.73251953,8.56689453 C2.66542969,8.56689453 2.59833984,8.54931641 2.53730469,8.51464844 C2.41689453,8.4453125 2.34208984,8.31611328 2.34208984,8.1765625 C2.34208984,4.24746094 4.30683594,2.48046875 5.26064453,1.85458984 L4.80927734,1.43642578 C4.709375,1.34375 4.66445313,1.20537109 4.69179687,1.07197266 C4.71923828,0.938183594 4.81455078,0.828417969 4.94345703,0.782714844 C5.15537109,0.706835938 10.1766602,-1.04707031 13.303418,1.03095703 C14.7466797,1.99082031 15.5395508,3.59951172 15.6600586,5.81318359 C15.6722656,6.02861328 15.5068359,6.21269531 15.2917969,6.22412109 C15.0554688,6.25878906 14.8930664,6.07089844 14.8808594,5.85585938 C14.7741211,3.90136719 14.0986328,2.49697266 12.8710938,1.68125 C10.6730469,0.220117188 7.24443359,0.937890625 5.83779297,1.32519531 L6.18320313,1.64462891 C6.28007813,1.73427734 6.325,1.86689453 6.30292969,1.99726563 C6.28007813,2.12763672 6.19306641,2.23740234 6.071875,2.28964844 C5.95908203,2.33916016 3.40498047,3.50683594 3.14423828,7.50683594 C4.79257813,6.64111328 9.46542969,4.41748047 13.6229492,4.66416016 C13.7586914,4.67177734 13.8806641,4.74990234 13.9446289,4.8703125 L14.7779297,6.42753906 C14.8816406,6.61669922 14.8123047,6.85371094 14.6231445,6.95742188 C14.437207,7.06074219 14.1969727,6.99248047 14.0932617,6.80273438 L13.3597656,5.43339844 C8.60761719,5.26035156 2.98554688,8.48115234 2.92841797,8.51435547 C2.86816406,8.54941406 2.80039062,8.56689453 2.73251953,8.56689453 Z" id="Path"></path>
                    <path d="M9.75898438,17.9355469 C9.65917969,17.9355469 9.55927734,17.8973633 9.48300781,17.8211914 L8.70224609,17.0404297 C8.54980469,16.8879883 8.54980469,16.640918 8.70224609,16.4884766 C8.85478516,16.3359375 9.10175781,16.3359375 9.25429688,16.4884766 L10.0349609,17.2692383 C10.1875,17.4217773 10.1875,17.66875 10.0349609,17.8211914 C9.95869141,17.8973633 9.85878906,17.9355469 9.75898438,17.9355469 Z" id="Path"></path>
                    <path d="M9.75898437,17.9355469 C9.65917969,17.9355469 9.55927734,17.8973633 9.48300781,17.8211914 C9.33046875,17.6686523 9.33046875,17.4216797 9.48300781,17.2692383 L10.2637695,16.4884766 C10.4162109,16.3359375 10.6632813,16.3359375 10.8157227,16.4884766 C10.9681641,16.6410156 10.9682617,16.8880859 10.8157227,17.0404297 L10.0349609,17.8211914 C9.95869141,17.8973633 9.85878906,17.9355469 9.75898437,17.9355469 Z" id="Path"></path>
                    <path d="M8.97900391,21.0583984 C8.96455078,21.0583984 8.95009766,21.0576172 8.93476562,21.0561523 C8.72050781,21.0325195 8.56650391,20.8395508 8.59013672,20.6246094 L8.98046875,17.1117188 C9.00410156,16.8970703 9.18857422,16.7407227 9.41201172,16.7666992 C9.62626953,16.7907227 9.78027344,16.9836914 9.75664062,17.1978516 L9.36630859,20.7114258 C9.34423828,20.9105469 9.17490234,21.0583984 8.97900391,21.0583984 Z" id="Path"></path>
                    <path d="M10.5389648,21.0583984 C10.3430664,21.0583984 10.1737305,20.9104492 10.1516602,20.7114258 L9.76132813,17.1978516 C9.73769531,16.9836914 9.89169922,16.7907227 10.105957,16.7666992 C10.3248047,16.7415039 10.5138672,16.8970703 10.5375,17.1117187 L10.9279297,20.6246094 C10.9515625,20.8395508 10.7975586,21.0325195 10.5833008,21.0561523 C10.5678711,21.0577148 10.553418,21.0583984 10.5389648,21.0583984 Z" id="Path"></path>
                    <path d="M47.2259766,15.874707 C47.0100586,15.874707 46.8355469,15.7000977 46.8355469,15.4842773 L46.8355469,8.17646484 C46.8355469,7.96064453 47.0100586,7.78603516 47.2259766,7.78603516 C47.4416992,7.78603516 47.6162109,7.96064453 47.6162109,8.17646484 L47.6162109,15.4842773 C47.6162109,15.7000977 47.4416992,15.874707 47.2259766,15.874707 Z" id="Path"></path>
                    <path d="M33.9063477,5.44404297 C33.8475586,5.44404297 33.7882813,5.43105469 33.7326172,5.40332031 C33.5395508,5.30761719 33.4612305,5.07324219 33.5563477,4.88027344 C34.819043,2.33876953 37.3639648,0.759765625 40.1994141,0.759765625 C40.4151367,0.759765625 40.5896484,0.934375 40.5896484,1.15019531 C40.5896484,1.36591797 40.4151367,1.54052734 40.1994141,1.54052734 C37.662793,1.54052734 35.3854492,2.95332031 34.2563477,5.22724609 C34.1876953,5.36474609 34.0498047,5.44404297 33.9063477,5.44404297 Z" id="Path"></path>
                    <path d="M47.2259766,8.56689453 C47.0100586,8.56689453 46.8355469,8.39228516 46.8355469,8.1765625 C46.8355469,6.53466797 46.2362305,4.9640625 45.1475586,3.75332031 C43.8864258,2.34667969 42.0826172,1.54042969 40.1995117,1.54042969 C39.9835937,1.54042969 39.809082,1.36582031 39.809082,1.15009766 C39.809082,0.934277344 39.9835937,0.759667969 40.1995117,0.759667969 C42.3044922,0.759667969 44.3195313,1.66044922 45.7285156,3.23144531 C46.9461914,4.58544922 47.6162109,6.34179688 47.6162109,8.1765625 C47.6162109,8.39228516 47.4416992,8.56689453 47.2259766,8.56689453 Z" id="Path"></path>
                    <path d="M36.2958984,8.73886719 C36.125,8.73886719 35.9680664,8.62607422 35.9199219,8.45380859 C35.8619141,8.24599609 35.9832031,8.03066406 36.1905273,7.97265625 C38.0005859,7.4671875 39.8089844,6.69941406 41.5664063,5.69111328 C43.7949219,4.42509766 45.1642578,3.21289062 45.1779297,3.20097656 C45.3386719,3.05722656 45.5857422,3.07099609 45.7291992,3.23261719 C45.8724609,3.39345703 45.8586914,3.64013672 45.6979492,3.78349609 C45.6399414,3.83496094 44.2584961,5.05976562 41.9536133,6.36884766 C40.1414063,7.40878906 38.2728516,8.20175781 36.4009766,8.72441406 C36.3658203,8.73427734 36.3299805,8.73886719 36.2958984,8.73886719 Z" id="Path"></path>
                    <path d="M47.2259766,9.34755859 C47.1931641,9.34755859 47.1595703,9.34335938 47.1267578,9.33457031 C43.3488281,8.34082031 41.5458984,6.38212891 41.4710937,6.29941406 C41.3270508,6.13964844 41.3392578,5.89345703 41.4985352,5.74853516 C41.6578125,5.60556641 41.9049805,5.61591797 42.0498047,5.77519531 C42.0666016,5.79384766 43.7881836,7.64882812 47.325,8.57978516 C47.5338867,8.63466797 47.6582031,8.84814453 47.6033203,9.05664062 C47.5574219,9.23173828 47.3989258,9.34755859 47.2259766,9.34755859 Z" id="Path"></path>
                    <path d="M45.655957,9.67587891 C45.4402344,9.67587891 45.2657227,9.50126953 45.2657227,9.28554687 L45.2657227,8.45791016 C45.2657227,8.2421875 45.4402344,8.06757813 45.655957,8.06757813 C45.8716797,8.06757813 46.0463867,8.2421875 46.0463867,8.45791016 L46.0463867,9.28554688 C46.0463867,9.50126953 45.8716797,9.67587891 45.655957,9.67587891 Z" id="Path"></path>
                    <path d="M41.7760742,21.0583984 C41.6768555,21.0583984 41.5771484,21.0202148 41.5008789,20.9447266 C41.3484375,20.7930664 41.3469727,20.5459961 41.4993164,20.3927734 L43.5518555,18.3266602 L43.0461914,17.8211914 C42.9631836,17.7383789 42.9220703,17.6229492 42.9334961,17.5066406 C42.9457031,17.3904297 43.0083008,17.2850586 43.1057617,17.2203125 L44.9722656,15.9756836 L43.8790039,15.2106445 C43.7027344,15.0871094 43.6592773,14.8435547 43.7835938,14.6669922 C43.9070313,14.4897461 44.1503906,14.4478516 44.3271484,14.5709961 L45.8884766,15.6638672 C45.99375,15.7378906 46.0563477,15.859082 46.0547852,15.9882813 C46.0532227,16.1170898 45.9883789,16.2368164 45.8808594,16.3084961 L43.9351563,17.6057617 L44.3790039,18.0499023 C44.5314453,18.2020508 44.5314453,18.4482422 44.3797852,18.6011719 L42.052832,20.9432617 C41.9765625,21.0203125 41.8767578,21.0583984 41.7760742,21.0583984 Z" id="Path"></path>
                    <path d="M38.621875,21.0583984 C38.5213867,21.0583984 38.4213867,21.0202148 38.3451172,20.9431641 L36.0191406,18.6010742 C35.8672852,18.4482422 35.8672852,18.2019531 36.0199219,18.0498047 L36.4620117,17.6076172 L36.0807617,17.3560547 C35.9008789,17.2371094 35.8512695,16.9951172 35.9703125,16.8151367 C36.0883789,16.634375 36.3307617,16.5860352 36.5108398,16.7041992 L37.2915039,17.2191406 C37.3891602,17.2838867 37.4530273,17.3891602 37.4644531,17.5058594 C37.4766602,17.6224609 37.4356445,17.7383789 37.3525391,17.8211914 L36.8470703,18.3266602 L38.8986328,20.3927734 C39.0511719,20.5459961 39.049707,20.7931641 38.8970703,20.9447266 C38.8209961,21.0203125 38.7210938,21.0583984 38.621875,21.0583984 Z" id="Path"></path>
                    <path d="M40.1994141,17.9355469 C38.4961914,17.9355469 37.6177734,17.0770508 37.5811523,17.0404297 C37.4287109,16.8879883 37.4287109,16.640918 37.5811523,16.4884766 C37.7335937,16.3375 37.9799805,16.3363281 38.1308594,16.4862305 L38.1308594,16.4862305 C38.159082,16.5136719 38.8369141,17.1549805 40.1994141,17.1549805 C41.5633789,17.1549805 42.2410156,16.5202148 42.2692383,16.4931641 C42.4241211,16.3452148 42.6703125,16.3487305 42.8197266,16.5011719 C42.9692383,16.6547852 42.968457,16.8991211 42.815918,17.0500977 C42.7792969,17.0862305 41.9019531,17.9355469 40.1994141,17.9355469 Z" id="Path"></path>
                    <path d="M18.3392578,24.9620117 C18.1234375,24.9620117 17.9488281,24.7874023 17.9488281,24.571582 L17.9488281,23.790918 C17.9488281,23.5751953 18.1234375,23.4005859 18.3392578,23.4005859 C18.5549805,23.4005859 18.7295898,23.5751953 18.7295898,23.790918 L18.7295898,24.571582 C18.7295898,24.7874023 18.5549805,24.9620117 18.3392578,24.9620117 Z" id="Path"></path>
                    <path d="M21.4621094,28.865625 C21.3477539,28.865625 21.2341797,28.8152344 21.1571289,28.7192383 L18.0334961,24.8141602 C17.8993164,24.6456055 17.9275391,24.4001953 18.0967773,24.2660156 C18.2652344,24.1318359 18.5115234,24.1592773 18.6449219,24.3291992 L21.7669922,28.23125 C21.9011719,28.3998047 21.8745117,28.6453125 21.7060547,28.7801758 C21.634375,28.8374023 21.5483398,28.865625 21.4621094,28.865625 Z" id="Path"></path>
                    <path d="M21.4621094,28.865625 C21.3195312,28.865625 21.181543,28.7863281 21.1128906,28.6499023 C21.0168945,28.4569336 21.0945312,28.2228516 21.2875,28.1260742 L24.4103516,26.5646484 C24.6032227,26.4686523 24.8373047,26.5462891 24.9341797,26.7392578 C25.0301758,26.9322266 24.9524414,27.1662109 24.7595703,27.2629883 L21.6366211,28.8244141 C21.5803711,28.8526367 21.5208008,28.865625 21.4621094,28.865625 Z" id="Path"></path>
                    <path d="M31.6114258,24.9620117 C31.3957031,24.9620117 31.2211914,24.7874023 31.2211914,24.571582 L31.2211914,23.790918 C31.2211914,23.5751953 31.3957031,23.4005859 31.6114258,23.4005859 C31.8273438,23.4005859 32.0018555,23.5751953 32.0018555,23.790918 L32.0018555,24.571582 C32.0018555,24.7874023 31.8273437,24.9620117 31.6114258,24.9620117 Z" id="Path"></path>
                    <path d="M28.4884766,28.865625 C28.4024414,28.865625 28.3169922,28.8374023 28.2445312,28.7801758 C28.0760742,28.6453125 28.0494141,28.399707 28.1836914,28.23125 L31.3056641,24.328418 C31.4407227,24.1592773 31.6869141,24.1325195 31.8545898,24.265918 C32.0232422,24.4008789 32.0514648,24.6463867 31.9171875,24.8148438 L28.7935547,28.7191406 C28.7166016,28.8152344 28.6029297,28.865625 28.4884766,28.865625 Z" id="Path"></path>
                    <path d="M28.4884766,28.865625 C28.4298828,28.865625 28.3704102,28.8526367 28.3139648,28.8244141 L25.1910156,27.2629883 C24.9981445,27.1662109 24.9204102,26.9321289 25.0164063,26.7392578 C25.1133789,26.5470703 25.3473633,26.4693359 25.5402344,26.5646484 L28.6631836,28.1260742 C28.8560547,28.2228516 28.9337891,28.4570313 28.8376953,28.6499023 C28.769043,28.7862305 28.6311523,28.865625 28.4884766,28.865625 Z" id="Path"></path>
                </g>
            </g>
        </g>
    </g>
</svg>