
<svg width="24px" height="24px" viewBox="0 0 24 24" version="1.1" xmlns="http://www.w3.org/2000/svg" xmlns:xlink="http://www.w3.org/1999/xlink">
    <g id="Page-1" stroke="none" stroke-width="1" fill="none" fill-rule="evenodd">
        <g id="1-1-Dashboard-Strategy-Dropdown" transform="translate(-1224.000000, -79.000000)">
            <g id="notification" transform="translate(1224.000000, 79.000000)">
                <g id="Group-3" transform="translate(0.000000, 0.275041)" fill="#B8C6CE">
                    <path d="M9.88742898,21.6340497 C10.136186,22.5973842 11.0049716,23.2704133 12,23.2704133 C12.9950284,23.2704133 13.863814,22.5973842 14.112571,21.6340497 L9.88742898,21.6340497 Z" id="Path"></path>
                    <path d="M24,19.2759176 L22.9876598,18.8713544 C21.9494851,18.4601328 21.2692649,17.45525 21.2727273,16.3387727 L21.2727273,9.27041333 C21.2777877,4.9435312 18.2831144,1.19086788 14.0630326,0.235523402 C13.727983,0.155622834 13.3884055,0.0962300614 13.0461648,0.0576114705 C10.4227628,-0.235889916 7.79829545,0.601201652 5.82901282,2.35928054 C3.85973011,4.11735936 2.73180041,6.63049856 2.72727273,9.27041333 L2.72727273,16.3387727 C2.73073507,17.45525 2.05051493,18.4601328 1.01234018,18.8713544 L0,19.2759176 L0,20.5431406 L24,20.5431406 L24,19.2759176 Z" id="Combined-Shape"></path>
                </g>
                <circle id="Oval-Copy-2" fill="#00B9FF" cx="19" cy="4" r="3"></circle>
            </g>
        </g>
    </g>
</svg>