
<svg width="50px" height="44px" viewBox="0 0 50 44" version="1.1" xmlns="http://www.w3.org/2000/svg" xmlns:xlink="http://www.w3.org/1999/xlink">
    <g id="Page-1" stroke="none" stroke-width="1" fill="none" fill-rule="evenodd">
        <g id="2-Dashboard-Autopilot-What-do-you-want-to-achieve?" transform="translate(-1065.000000, -438.000000)">
            <g id="revenue" transform="translate(1065.000000, 438.000000)">
                <path d="M1.17070312,40.2949219 C1.17070312,40.2949219 1.95117188,41.0677734 5.07285156,41.0677734 C8.19453125,41.0677734 8.97509766,40.2949219 8.97509766,40.2949219 L8.97509766,42.6286133 C8.97509766,42.6286133 8.19462891,43.4089844 5.07285156,43.4089844 C1.95107422,43.4089844 1.17070312,42.6286133 1.17070312,42.6286133 C1.17070312,42.6286133 1.17070312,40.2949219 1.17070312,40.2949219 Z" id="Path" fill="#CCF1FF"></path>
                <path d="M5.07285156,41.0677734 C1.95107422,41.0677734 1.17070312,40.2949219 1.17070312,40.2949219 L1.17070312,40.2873047 C1.17070312,40.2873047 1.95117188,39.5069336 5.07285156,39.5069336 C8.19453125,39.5069336 8.97509766,40.2873047 8.97509766,40.2873047 L8.97509766,40.2949219 C8.97509766,40.2949219 8.19462891,41.0677734 5.07285156,41.0677734 Z" id="Path" fill="#CCF1FF"></path>
                <path d="M2.73164062,40.8772461 C1.53203125,40.6485352 1.17070312,40.2949219 1.17070312,40.2949219 L1.17070312,42.6286133 C1.17070312,42.6286133 1.53203125,42.9860352 2.73164062,43.2168945 L2.73164062,40.8772461 Z" id="Path" fill="#CCF1FF"></path>
                <path d="M7.41425781,40.8772461 C8.61386719,40.6485352 8.97509766,40.2949219 8.97509766,40.2949219 L8.97509766,42.6286133 C8.97509766,42.6286133 8.61386719,42.9860352 7.41425781,43.2168945 L7.41425781,40.8772461 Z" id="Path" fill="#CCF1FF"></path>
                <path d="M11.3165039,40.2949219 C11.3165039,40.2949219 12.0969727,41.0677734 15.2186523,41.0677734 C18.340332,41.0677734 19.1208984,40.2949219 19.1208984,40.2949219 L19.1208984,42.6286133 C19.1208984,42.6286133 18.3404297,43.4089844 15.2186523,43.4089844 C12.096875,43.4089844 11.3165039,42.6286133 11.3165039,42.6286133 L11.3165039,40.2949219 Z" id="Path" fill="#CCF1FF"></path>
                <path d="M15.2186523,41.0677734 C12.096875,41.0677734 11.3165039,40.2949219 11.3165039,40.2949219 L11.3165039,40.2873047 C11.3165039,40.2873047 12.0969727,39.5069336 15.2186523,39.5069336 C18.340332,39.5069336 19.1208984,40.2873047 19.1208984,40.2873047 L19.1208984,40.2949219 C19.1208984,40.2949219 18.3404297,41.0677734 15.2186523,41.0677734 Z" id="Path" fill="#CCF1FF"></path>
                <path d="M12.8773437,40.8772461 C11.6777344,40.6485352 11.3165039,40.2949219 11.3165039,40.2949219 L11.3165039,42.6286133 C11.3165039,42.6286133 11.6777344,42.9860352 12.8773437,43.2168945 L12.8773437,40.8772461 Z" id="Path" fill="#CCF1FF"></path>
                <path d="M17.5600586,40.8772461 C18.759668,40.6485352 19.1208984,40.2949219 19.1208984,40.2949219 L19.1208984,42.6286133 C19.1208984,42.6286133 18.759668,42.9860352 17.5600586,43.2168945 L17.5600586,40.8772461 Z" id="Path" fill="#CCF1FF"></path>
                <path d="M11.3165039,34.8318359 C11.3165039,34.8318359 12.0969727,35.6045898 15.2186523,35.6045898 C18.340332,35.6045898 19.1208984,34.8318359 19.1208984,34.8318359 L19.1208984,37.1654297 C19.1208984,37.1654297 18.3404297,37.9458984 15.2186523,37.9458984 C12.096875,37.9458984 11.3165039,37.1654297 11.3165039,37.1654297 L11.3165039,34.8318359 Z" id="Path" fill="#CCF1FF"></path>
                <path d="M15.2186523,35.6045898 C12.096875,35.6045898 11.3165039,34.8318359 11.3165039,34.8318359 L11.3165039,34.8242188 C11.3165039,34.8242188 12.0969727,34.04375 15.2186523,34.04375 C18.340332,34.04375 19.1208984,34.8242188 19.1208984,34.8242188 L19.1208984,34.8318359 C19.1208984,34.8318359 18.3404297,35.6045898 15.2186523,35.6045898 Z" id="Path" fill="#CCF1FF"></path>
                <path d="M12.8773437,35.4140625 C11.6777344,35.1854492 11.3165039,34.8318359 11.3165039,34.8318359 L11.3165039,37.1654297 C11.3165039,37.1654297 11.6777344,37.5228516 12.8773437,37.7538086 L12.8773437,35.4140625 Z" id="Path" fill="#CCF1FF"></path>
                <path d="M17.5600586,35.4140625 C18.759668,35.1854492 19.1208984,34.8318359 19.1208984,34.8318359 L19.1208984,37.1654297 C19.1208984,37.1654297 18.759668,37.5228516 17.5600586,37.7538086 L17.5600586,35.4140625 Z" id="Path" fill="#CCF1FF"></path>
                <path d="M21.462207,40.2949219 C21.462207,40.2949219 22.2426758,41.0677734 25.3643555,41.0677734 C28.4861328,41.0677734 29.2666016,40.2949219 29.2666016,40.2949219 L29.2666016,42.6286133 C29.2666016,42.6286133 28.4861328,43.4089844 25.3643555,43.4089844 C22.2426758,43.4089844 21.462207,42.6286133 21.462207,42.6286133 L21.462207,40.2949219 L21.462207,40.2949219 Z" id="Path" fill="#CCF1FF"></path>
                <path d="M25.3643555,41.0677734 C22.2426758,41.0677734 21.462207,40.2949219 21.462207,40.2949219 L21.462207,40.2873047 C21.462207,40.2873047 22.2426758,39.5069336 25.3643555,39.5069336 C28.4861328,39.5069336 29.2666016,40.2873047 29.2666016,40.2873047 L29.2666016,40.2949219 C29.2666016,40.2949219 28.4861328,41.0677734 25.3643555,41.0677734 Z" id="Path" fill="#CCF1FF"></path>
                <path d="M23.0231445,40.8772461 C21.8235352,40.6485352 21.462207,40.2949219 21.462207,40.2949219 L21.462207,42.6286133 C21.462207,42.6286133 21.8235352,42.9860352 23.0231445,43.2168945 L23.0231445,40.8772461 Z" id="Path" fill="#CCF1FF"></path>
                <path d="M27.7056641,40.8772461 C28.9053711,40.6485352 29.2666016,40.2949219 29.2666016,40.2949219 L29.2666016,42.6286133 C29.2666016,42.6286133 28.9053711,42.9860352 27.7056641,43.2168945 L27.7056641,40.8772461 Z" id="Path" fill="#CCF1FF"></path>
                <path d="M21.462207,34.8318359 C21.462207,34.8318359 22.2426758,35.6045898 25.3643555,35.6045898 C28.4861328,35.6045898 29.2666016,34.8318359 29.2666016,34.8318359 L29.2666016,37.1654297 C29.2666016,37.1654297 28.4861328,37.9458984 25.3643555,37.9458984 C22.2426758,37.9458984 21.462207,37.1654297 21.462207,37.1654297 L21.462207,34.8318359 L21.462207,34.8318359 Z" id="Path" fill="#CCF1FF"></path>
                <path d="M25.3643555,35.6045898 C22.2426758,35.6045898 21.462207,34.8318359 21.462207,34.8318359 L21.462207,34.8242188 C21.462207,34.8242188 22.2426758,34.04375 25.3643555,34.04375 C28.4861328,34.04375 29.2666016,34.8242188 29.2666016,34.8242188 L29.2666016,34.8318359 C29.2666016,34.8318359 28.4861328,35.6045898 25.3643555,35.6045898 Z" id="Path" fill="#CCF1FF"></path>
                <path d="M23.0231445,35.4140625 C21.8235352,35.1854492 21.462207,34.8318359 21.462207,34.8318359 L21.462207,37.1654297 C21.462207,37.1654297 21.8235352,37.5228516 23.0231445,37.7538086 L23.0231445,35.4140625 Z" id="Path" fill="#CCF1FF"></path>
                <path d="M27.7056641,35.4140625 C28.9053711,35.1854492 29.2666016,34.8318359 29.2666016,34.8318359 L29.2666016,37.1654297 C29.2666016,37.1654297 28.9053711,37.5228516 27.7056641,37.7538086 L27.7056641,35.4140625 Z" id="Path" fill="#CCF1FF"></path>
                <path d="M21.462207,29.36875 C21.462207,29.36875 22.2426758,30.1415039 25.3643555,30.1415039 C28.4861328,30.1415039 29.2666016,29.36875 29.2666016,29.36875 L29.2666016,31.7024414 C29.2666016,31.7024414 28.4861328,32.4828125 25.3643555,32.4828125 C22.2426758,32.4828125 21.462207,31.7024414 21.462207,31.7024414 L21.462207,29.36875 L21.462207,29.36875 Z" id="Path" fill="#CCF1FF"></path>
                <path d="M25.3643555,30.1415039 C22.2426758,30.1415039 21.462207,29.36875 21.462207,29.36875 L21.462207,29.3611328 C21.462207,29.3611328 22.2426758,28.5807617 25.3643555,28.5807617 C28.4861328,28.5807617 29.2666016,29.3611328 29.2666016,29.3611328 L29.2666016,29.36875 C29.2666016,29.36875 28.4861328,30.1415039 25.3643555,30.1415039 Z" id="Path" fill="#CCF1FF"></path>
                <path d="M23.0231445,29.9509766 C21.8235352,29.7223633 21.462207,29.36875 21.462207,29.36875 L21.462207,31.7024414 C21.462207,31.7024414 21.8235352,32.0598633 23.0231445,32.2907227 L23.0231445,29.9509766 Z" id="Path" fill="#CCF1FF"></path>
                <path d="M27.7056641,29.9509766 C28.9053711,29.7223633 29.2666016,29.36875 29.2666016,29.36875 L29.2666016,31.7024414 C29.2666016,31.7024414 28.9053711,32.0598633 27.7056641,32.2907227 L27.7056641,29.9509766 Z" id="Path" fill="#CCF1FF"></path>
                <path d="M31.6079102,40.2949219 C31.6079102,40.2949219 32.3883789,41.0677734 35.5101563,41.0677734 C38.6319336,41.0677734 39.4124023,40.2949219 39.4124023,40.2949219 L39.4124023,42.6286133 C39.4124023,42.6286133 38.6319336,43.4089844 35.5101563,43.4089844 C32.3883789,43.4089844 31.6079102,42.6286133 31.6079102,42.6286133 L31.6079102,40.2949219 L31.6079102,40.2949219 Z" id="Path" fill="#CCF1FF"></path>
                <path d="M35.5101563,41.0677734 C32.3883789,41.0677734 31.6079102,40.2949219 31.6079102,40.2949219 L31.6079102,40.2873047 C31.6079102,40.2873047 32.3883789,39.5069336 35.5101563,39.5069336 C38.6319336,39.5069336 39.4124023,40.2873047 39.4124023,40.2873047 L39.4124023,40.2949219 C39.4124023,40.2949219 38.6318359,41.0677734 35.5101563,41.0677734 Z" id="Path" fill="#CCF1FF"></path>
                <path d="M33.16875,40.8772461 C31.9691406,40.6485352 31.6079102,40.2949219 31.6079102,40.2949219 L31.6079102,42.6286133 C31.6079102,42.6286133 31.9691406,42.9860352 33.16875,43.2168945 L33.16875,40.8772461 Z" id="Path" fill="#CCF1FF"></path>
                <path d="M37.8513672,40.8772461 C39.0510742,40.6485352 39.4123047,40.2949219 39.4123047,40.2949219 L39.4123047,42.6286133 C39.4123047,42.6286133 39.0510742,42.9860352 37.8513672,43.2168945 L37.8513672,40.8772461 Z" id="Path" fill="#CCF1FF"></path>
                <path d="M31.6079102,34.8318359 C31.6079102,34.8318359 32.3883789,35.6045898 35.5101563,35.6045898 C38.6319336,35.6045898 39.4124023,34.8318359 39.4124023,34.8318359 L39.4124023,37.1654297 C39.4124023,37.1654297 38.6319336,37.9458984 35.5101563,37.9458984 C32.3883789,37.9458984 31.6079102,37.1654297 31.6079102,37.1654297 L31.6079102,34.8318359 L31.6079102,34.8318359 Z" id="Path" fill="#CCF1FF"></path>
                <path d="M35.5101563,35.6045898 C32.3883789,35.6045898 31.6079102,34.8318359 31.6079102,34.8318359 L31.6079102,34.8242188 C31.6079102,34.8242188 32.3883789,34.04375 35.5101563,34.04375 C38.6319336,34.04375 39.4124023,34.8242188 39.4124023,34.8242188 L39.4124023,34.8318359 C39.4124023,34.8318359 38.6318359,35.6045898 35.5101563,35.6045898 Z" id="Path" fill="#CCF1FF"></path>
                <path d="M33.16875,35.4140625 C31.9691406,35.1854492 31.6079102,34.8318359 31.6079102,34.8318359 L31.6079102,37.1654297 C31.6079102,37.1654297 31.9691406,37.5228516 33.16875,37.7538086 L33.16875,35.4140625 Z" id="Path" fill="#CCF1FF"></path>
                <path d="M37.8513672,35.4140625 C39.0510742,35.1854492 39.4123047,34.8318359 39.4123047,34.8318359 L39.4123047,37.1654297 C39.4123047,37.1654297 39.0510742,37.5228516 37.8513672,37.7538086 L37.8513672,35.4140625 Z" id="Path" fill="#CCF1FF"></path>
                <path d="M31.6079102,29.36875 C31.6079102,29.36875 32.3883789,30.1415039 35.5101563,30.1415039 C38.6319336,30.1415039 39.4124023,29.36875 39.4124023,29.36875 L39.4124023,31.7024414 C39.4124023,31.7024414 38.6319336,32.4828125 35.5101563,32.4828125 C32.3883789,32.4828125 31.6079102,31.7024414 31.6079102,31.7024414 L31.6079102,29.36875 L31.6079102,29.36875 Z" id="Path" fill="#CCF1FF"></path>
                <path d="M35.5101563,30.1415039 C32.3883789,30.1415039 31.6079102,29.36875 31.6079102,29.36875 L31.6079102,29.3611328 C31.6079102,29.3611328 32.3883789,28.5807617 35.5101563,28.5807617 C38.6319336,28.5807617 39.4124023,29.3611328 39.4124023,29.3611328 L39.4124023,29.36875 C39.4124023,29.36875 38.6318359,30.1415039 35.5101563,30.1415039 Z" id="Path" fill="#CCF1FF"></path>
                <path d="M33.16875,29.9509766 C31.9691406,29.7223633 31.6079102,29.36875 31.6079102,29.36875 L31.6079102,31.7024414 C31.6079102,31.7024414 31.9691406,32.0598633 33.16875,32.2907227 L33.16875,29.9509766 Z" id="Path" fill="#CCF1FF"></path>
                <path d="M37.8513672,29.9509766 C39.0510742,29.7223633 39.4123047,29.36875 39.4123047,29.36875 L39.4123047,31.7024414 C39.4123047,31.7024414 39.0510742,32.0598633 37.8513672,32.2907227 L37.8513672,29.9509766 Z" id="Path" fill="#CCF1FF"></path>
                <path d="M31.6079102,23.9056641 C31.6079102,23.9056641 32.3883789,24.6785156 35.5101563,24.6785156 C38.6319336,24.6785156 39.4124023,23.9056641 39.4124023,23.9056641 L39.4124023,26.2393555 C39.4124023,26.2393555 38.6319336,27.0197266 35.5101563,27.0197266 C32.3883789,27.0197266 31.6079102,26.2393555 31.6079102,26.2393555 L31.6079102,23.9056641 L31.6079102,23.9056641 Z" id="Path" fill="#CCF1FF"></path>
                <path d="M35.5101563,24.6785156 C32.3883789,24.6785156 31.6079102,23.9056641 31.6079102,23.9056641 L31.6079102,23.8980469 C31.6079102,23.8980469 32.3883789,23.1176758 35.5101563,23.1176758 C38.6319336,23.1176758 39.4124023,23.8980469 39.4124023,23.8980469 L39.4124023,23.9056641 C39.4124023,23.9056641 38.6318359,24.6785156 35.5101563,24.6785156 Z" id="Path" fill="#CCF1FF"></path>
                <path d="M33.16875,24.4878906 C31.9691406,24.2591797 31.6079102,23.9055664 31.6079102,23.9055664 L31.6079102,26.2392578 C31.6079102,26.2392578 31.9691406,26.5966797 33.16875,26.8275391 L33.16875,24.4878906 Z" id="Path" fill="#CCF1FF"></path>
                <path d="M37.8513672,24.4878906 C39.0510742,24.2591797 39.4123047,23.9055664 39.4123047,23.9055664 L39.4123047,26.2392578 C39.4123047,26.2392578 39.0510742,26.5966797 37.8513672,26.8275391 L37.8513672,24.4878906 Z" id="Path" fill="#CCF1FF"></path>
                <path d="M41.7536133,40.2949219 C41.7536133,40.2949219 42.534082,41.0677734 45.6558594,41.0677734 C48.7776367,41.0677734 49.5581055,40.2949219 49.5581055,40.2949219 L49.5581055,42.6286133 C49.5581055,42.6286133 48.7776367,43.4089844 45.6558594,43.4089844 C42.534082,43.4089844 41.7536133,42.6286133 41.7536133,42.6286133 L41.7536133,40.2949219 L41.7536133,40.2949219 Z" id="Path" fill="#CCF1FF"></path>
                <path d="M45.6558594,41.0677734 C42.534082,41.0677734 41.7536133,40.2949219 41.7536133,40.2949219 L41.7536133,40.2873047 C41.7536133,40.2873047 42.534082,39.5069336 45.6558594,39.5069336 C48.7776367,39.5069336 49.5581055,40.2873047 49.5581055,40.2873047 L49.5581055,40.2949219 C49.5581055,40.2949219 48.7776367,41.0677734 45.6558594,41.0677734 Z" id="Path" fill="#CCF1FF"></path>
                <path d="M43.3145508,40.8772461 C42.1149414,40.6485352 41.7537109,40.2949219 41.7537109,40.2949219 L41.7537109,42.6286133 C41.7537109,42.6286133 42.1149414,42.9860352 43.3145508,43.2168945 L43.3145508,40.8772461 Z" id="Path" fill="#CCF1FF"></path>
                <path d="M47.997168,40.8772461 C49.1967773,40.6485352 49.5581055,40.2949219 49.5581055,40.2949219 L49.5581055,42.6286133 C49.5581055,42.6286133 49.1967773,42.9860352 47.997168,43.2168945 L47.997168,40.8772461 Z" id="Path" fill="#CCF1FF"></path>
                <path d="M41.7536133,34.8318359 C41.7536133,34.8318359 42.534082,35.6045898 45.6558594,35.6045898 C48.7776367,35.6045898 49.5581055,34.8318359 49.5581055,34.8318359 L49.5581055,37.1654297 C49.5581055,37.1654297 48.7776367,37.9458984 45.6558594,37.9458984 C42.534082,37.9458984 41.7536133,37.1654297 41.7536133,37.1654297 L41.7536133,34.8318359 L41.7536133,34.8318359 Z" id="Path" fill="#CCF1FF"></path>
                <path d="M45.6558594,35.6045898 C42.534082,35.6045898 41.7536133,34.8318359 41.7536133,34.8318359 L41.7536133,34.8242188 C41.7536133,34.8242188 42.534082,34.04375 45.6558594,34.04375 C48.7776367,34.04375 49.5581055,34.8242188 49.5581055,34.8242188 L49.5581055,34.8318359 C49.5581055,34.8318359 48.7776367,35.6045898 45.6558594,35.6045898 Z" id="Path" fill="#CCF1FF"></path>
                <path d="M43.3145508,35.4140625 C42.1149414,35.1854492 41.7537109,34.8318359 41.7537109,34.8318359 L41.7537109,37.1654297 C41.7537109,37.1654297 42.1149414,37.5228516 43.3145508,37.7538086 L43.3145508,35.4140625 Z" id="Path" fill="#CCF1FF"></path>
                <path d="M47.997168,35.4140625 C49.1967773,35.1854492 49.5581055,34.8318359 49.5581055,34.8318359 L49.5581055,37.1654297 C49.5581055,37.1654297 49.1967773,37.5228516 47.997168,37.7538086 L47.997168,35.4140625 Z" id="Path" fill="#CCF1FF"></path>
                <path d="M41.7536133,29.36875 C41.7536133,29.36875 42.534082,30.1415039 45.6558594,30.1415039 C48.7776367,30.1415039 49.5581055,29.36875 49.5581055,29.36875 L49.5581055,31.7024414 C49.5581055,31.7024414 48.7776367,32.4828125 45.6558594,32.4828125 C42.534082,32.4828125 41.7536133,31.7024414 41.7536133,31.7024414 L41.7536133,29.36875 L41.7536133,29.36875 Z" id="Path" fill="#CCF1FF"></path>
                <path d="M45.6558594,30.1415039 C42.534082,30.1415039 41.7536133,29.36875 41.7536133,29.36875 L41.7536133,29.3611328 C41.7536133,29.3611328 42.534082,28.5807617 45.6558594,28.5807617 C48.7776367,28.5807617 49.5581055,29.3611328 49.5581055,29.3611328 L49.5581055,29.36875 C49.5581055,29.36875 48.7776367,30.1415039 45.6558594,30.1415039 Z" id="Path" fill="#CCF1FF"></path>
                <path d="M43.3145508,29.9509766 C42.1149414,29.7223633 41.7537109,29.36875 41.7537109,29.36875 L41.7537109,31.7024414 C41.7537109,31.7024414 42.1149414,32.0598633 43.3145508,32.2907227 L43.3145508,29.9509766 Z" id="Path" fill="#CCF1FF"></path>
                <path d="M47.997168,29.9509766 C49.1967773,29.7223633 49.5581055,29.36875 49.5581055,29.36875 L49.5581055,31.7024414 C49.5581055,31.7024414 49.1967773,32.0598633 47.997168,32.2907227 L47.997168,29.9509766 Z" id="Path" fill="#CCF1FF"></path>
                <path d="M41.7536133,23.9056641 C41.7536133,23.9056641 42.534082,24.6785156 45.6558594,24.6785156 C48.7776367,24.6785156 49.5581055,23.9056641 49.5581055,23.9056641 L49.5581055,26.2393555 C49.5581055,26.2393555 48.7776367,27.0197266 45.6558594,27.0197266 C42.534082,27.0197266 41.7536133,26.2393555 41.7536133,26.2393555 L41.7536133,23.9056641 L41.7536133,23.9056641 Z" id="Path" fill="#CCF1FF"></path>
                <path d="M45.6558594,24.6785156 C42.534082,24.6785156 41.7536133,23.9056641 41.7536133,23.9056641 L41.7536133,23.8980469 C41.7536133,23.8980469 42.534082,23.1176758 45.6558594,23.1176758 C48.7776367,23.1176758 49.5581055,23.8980469 49.5581055,23.8980469 L49.5581055,23.9056641 C49.5581055,23.9056641 48.7776367,24.6785156 45.6558594,24.6785156 Z" id="Path" fill="#CCF1FF"></path>
                <path d="M43.3145508,24.4878906 C42.1149414,24.2591797 41.7537109,23.9055664 41.7537109,23.9055664 L41.7537109,26.2392578 C41.7537109,26.2392578 42.1149414,26.5966797 43.3145508,26.8275391 L43.3145508,24.4878906 Z" id="Path" fill="#CCF1FF"></path>
                <g id="Group" transform="translate(41.699219, 16.015625)" fill="#CCF1FF">
                    <path d="M6.29794922,8.47226562 C7.49755859,8.24355469 7.85888672,7.88994141 7.85888672,7.88994141 L7.85888672,10.2236328 C7.85888672,10.2236328 7.49755859,10.5810547 6.29794922,10.8119141 L6.29794922,8.47226562 Z" id="Path"></path>
                    <path d="M6.29794922,3.20009766 C5.65009766,3.69169922 4.83847656,3.98056641 3.95664062,3.98056641 C3.07480469,3.98056641 2.26308594,3.69169922 1.61523437,3.20009766 C0.670996094,2.48984375 0.0543945312,1.35039063 0.0543945312,0.0783203125 L0.0543945312,1.63916016 C0.0543945312,2.91113281 0.670996094,4.05058594 1.61523437,4.7609375 C2.26308594,5.25253906 3.07470703,5.54140625 3.95664062,5.54140625 C4.83837891,5.54140625 5.65009766,5.25253906 6.29794922,4.7609375 C7.24228516,4.05068359 7.85888672,2.91123047 7.85888672,1.63916016 L7.85888672,0.0783203125 C7.85888672,1.35039063 7.24228516,2.48984375 6.29794922,3.20009766 Z" id="Path"></path>
                </g>
                <path d="M45.6558594,19.9961914 C44.7740234,19.9961914 43.9623047,19.7073242 43.3144531,19.2157227 C42.3702148,18.5054687 41.7536133,17.3660156 41.7536133,16.0939453 C41.7536133,13.9400391 43.5019531,12.1916992 45.6558594,12.1916992 C47.809668,12.1916992 49.5581055,13.9400391 49.5581055,16.0939453 C49.5581055,17.365918 48.9415039,18.5053711 47.997168,19.2157227 C47.3493164,19.7073242 46.5376953,19.9961914 45.6558594,19.9961914 Z" id="Path" fill="#CCF1FF"></path>
                <path d="M3.51201172,30.9219727 L4.29248047,27.0197266 L0.390234375,27.0197266 C22.9254883,11.2162109 42.534082,2.82646484 42.534082,2.82646484 L41.7536133,0.48515625 L49.5581055,1.265625 L44.0950195,7.50917969 L43.3145508,5.16787109 C43.3145508,5.16777344 12.096875,22.3375 3.51201172,30.9219727 Z" id="Path" fill="#CCF1FF"></path>
                <path d="M42.9487305,4.48486328 C29.315332,12.0698242 14.3163086,20.8010742 3.70556641,29.9525391 L3.51201172,30.9220703 C12.096875,22.3375977 43.3145508,5.16787109 43.3145508,5.16787109 L42.9487305,4.48486328 Z" id="Path" fill="#7DDBFF"></path>
                <path d="M42.534082,2.82646484 C42.534082,2.82646484 22.9254883,11.2162109 0.390234375,27.0197266 L1.95107422,27.0197266 C24.4864258,11.2162109 42.7331055,3.42626953 42.7331055,3.42626953 L42.534082,2.82646484 Z" id="Path" fill="#FFFFFF"></path>
                <g id="Group">
                    <path d="M15.2186523,43.0188477 C15.0030273,43.0188477 14.828418,42.8443359 14.828418,42.6286133 L14.828418,41.8482422 C14.828418,41.6325195 15.0030273,41.4580078 15.2186523,41.4580078 C15.434375,41.4580078 15.6088867,41.6325195 15.6088867,41.8482422 L15.6088867,42.6286133 C15.6088867,42.8443359 15.434375,43.0188477 15.2186523,43.0188477 Z" id="Path" fill="#00B9FF"></path>
                    <path d="M17.5600586,42.8275391 C17.3443359,42.8275391 17.1698242,42.6530273 17.1698242,42.4373047 L17.1698242,41.6675781 C17.1698242,41.4518555 17.3443359,41.2773438 17.5600586,41.2773438 C17.7756836,41.2773438 17.950293,41.4518555 17.950293,41.6675781 L17.950293,42.4373047 C17.9501953,42.6530273 17.7756836,42.8275391 17.5600586,42.8275391 Z" id="Path" fill="#00B9FF"></path>
                    <path d="M12.8773437,42.8199219 C12.6617187,42.8199219 12.4871094,42.6454102 12.4871094,42.4296875 L12.4871094,41.6569336 C12.4871094,41.4412109 12.6616211,41.2666992 12.8773437,41.2666992 C13.0930664,41.2666992 13.2675781,41.4412109 13.2675781,41.6569336 L13.2675781,42.4296875 C13.2675781,42.6454102 13.0929687,42.8199219 12.8773437,42.8199219 Z" id="Path" fill="#00B9FF"></path>
                    <path d="M15.2186523,41.4580078 C12.0275391,41.4580078 11.1320312,40.6545898 11.0405273,40.5632812 C10.8880859,40.4107422 10.8880859,40.1638672 11.0405273,40.0115234 C11.1907227,39.8613281 11.4330078,39.8589844 11.584668,40.0046875 C11.6151367,40.0297852 12.4176758,40.6776367 15.2185547,40.6776367 C18.0621094,40.6776367 18.8457031,40.0100586 18.8533203,40.0040039 C19.0110352,39.8636719 19.2548828,39.8682617 19.4005859,40.0237305 C19.5453125,40.1769531 19.5460938,40.4139648 19.3967773,40.5633789 C19.3053711,40.6545898 18.4097656,41.4580078 15.2186523,41.4580078 Z" id="Path" fill="#0CBCFF"></path>
                    <path d="M15.2186523,43.7993164 C12.0275391,43.7993164 11.1320312,42.9959961 11.0405273,42.9045898 C10.8880859,42.7521484 10.8880859,42.5051758 11.0405273,42.352832 C11.1907227,42.2027344 11.4330078,42.2003906 11.584668,42.3459961 C11.6151367,42.3711914 12.4176758,43.019043 15.2185547,43.019043 C18.0621094,43.019043 18.8457031,42.3513672 18.8533203,42.3453125 C19.0110352,42.2050781 19.2548828,42.2104492 19.4005859,42.3651367 C19.5453125,42.5182617 19.5460938,42.7553711 19.3967773,42.9046875 C19.3053711,42.9959961 18.4097656,43.7993164 15.2186523,43.7993164 Z" id="Path" fill="#0CBCFF"></path>
                    <path d="M19.1208984,40.6775391 C19.0241211,40.6775391 18.9273438,40.6416992 18.8526367,40.5700195 C18.822168,40.5449219 18.0196289,39.8970703 15.2186523,39.8970703 C12.3750977,39.8970703 11.5916016,40.5647461 11.5839844,40.5707031 C11.4269531,40.7110352 11.181543,40.7064453 11.0367188,40.5509766 C10.8918945,40.3977539 10.8911133,40.1607422 11.0405273,40.0114258 C11.1320313,39.9198242 12.0275391,39.1166016 15.2186523,39.1166016 C18.4097656,39.1166016 19.3053711,39.9199219 19.3967773,40.0114258 C19.5492188,40.1638672 19.5492188,40.4107422 19.3967773,40.5631836 C19.3205078,40.6393555 19.2207031,40.6775391 19.1208984,40.6775391 Z" id="Path" fill="#0CBCFF"></path>
                    <path d="M11.3165039,43.0188477 C11.1008789,43.0188477 10.9262695,42.8443359 10.9262695,42.6286133 L10.9262695,40.287207 C10.9262695,40.071582 11.1007813,39.8970703 11.3165039,39.8970703 C11.5322266,39.8970703 11.7067383,40.071582 11.7067383,40.287207 L11.7067383,42.6286133 C11.7066406,42.8443359 11.5321289,43.0188477 11.3165039,43.0188477 Z" id="Path" fill="#0CBCFF"></path>
                    <path d="M19.1208984,43.0188477 C18.9051758,43.0188477 18.7306641,42.8443359 18.7306641,42.6286133 L18.7306641,40.287207 C18.7306641,40.071582 18.9051758,39.8970703 19.1208984,39.8970703 C19.3365234,39.8970703 19.5111328,40.071582 19.5111328,40.287207 L19.5111328,42.6286133 C19.5111328,42.8443359 19.3366211,43.0188477 19.1208984,43.0188477 Z" id="Path" fill="#0CBCFF"></path>
                    <path d="M5.07285156,43.0188477 C4.85722656,43.0188477 4.68261719,42.8443359 4.68261719,42.6286133 L4.68261719,41.8482422 C4.68261719,41.6325195 4.85712891,41.4580078 5.07285156,41.4580078 C5.28857422,41.4580078 5.46308594,41.6325195 5.46308594,41.8482422 L5.46308594,42.6286133 C5.46318359,42.8443359 5.28857422,43.0188477 5.07285156,43.0188477 Z" id="Path" fill="#0CBCFF"></path>
                    <path d="M7.41425781,42.8275391 C7.19853516,42.8275391 7.02402344,42.6530273 7.02402344,42.4373047 L7.02402344,41.6675781 C7.02402344,41.4518555 7.19853516,41.2773438 7.41425781,41.2773438 C7.62988281,41.2773438 7.80449219,41.4518555 7.80449219,41.6675781 L7.80449219,42.4373047 C7.80449219,42.6530273 7.62998047,42.8275391 7.41425781,42.8275391 Z" id="Path" fill="#0CBCFF"></path>
                    <path d="M2.73164062,42.8199219 C2.51591797,42.8199219 2.34140625,42.6454102 2.34140625,42.4296875 L2.34140625,41.6569336 C2.34140625,41.4412109 2.51591797,41.2666992 2.73164062,41.2666992 C2.94726562,41.2666992 3.121875,41.4412109 3.121875,41.6569336 L3.121875,42.4296875 C3.12177734,42.6454102 2.94726562,42.8199219 2.73164062,42.8199219 Z" id="Path" fill="#0CBCFF"></path>
                    <path d="M5.07285156,41.4580078 C1.88173828,41.4580078 0.986230469,40.6545898 0.894726562,40.5632812 C0.742285156,40.4107422 0.742285156,40.1638672 0.894726562,40.0115234 C1.04492188,39.8613281 1.28720703,39.8589844 1.43896484,40.0046875 C1.46943359,40.0297852 2.27197266,40.6776367 5.07285156,40.6776367 C7.91640625,40.6776367 8.7,40.0100586 8.70761719,40.0040039 C8.86533203,39.8636719 9.11005859,39.8682617 9.25488281,40.0237305 C9.39960938,40.1769531 9.40039062,40.4139648 9.25107422,40.5633789 C9.15957031,40.6545898 8.2640625,41.4580078 5.07285156,41.4580078 Z" id="Path" fill="#0CBCFF"></path>
                    <path d="M5.07285156,43.7993164 C1.88173828,43.7993164 0.986230469,42.9959961 0.894726562,42.9045898 C0.742285156,42.7521484 0.742285156,42.5051758 0.894726562,42.352832 C1.04492188,42.2027344 1.28720703,42.2003906 1.43896484,42.3459961 C1.46943359,42.3711914 2.27197266,43.019043 5.07285156,43.019043 C7.91640625,43.019043 8.7,42.3513672 8.70761719,42.3453125 C8.86533203,42.2050781 9.11005859,42.2104492 9.25488281,42.3651367 C9.39960938,42.5182617 9.40039062,42.7553711 9.25107422,42.9046875 C9.15957031,42.9959961 8.2640625,43.7993164 5.07285156,43.7993164 Z" id="Path" fill="#0CBCFF"></path>
                    <path d="M8.97509766,40.6775391 C8.87832031,40.6775391 8.78154297,40.6416992 8.70683594,40.5700195 C8.67636719,40.5449219 7.87382813,39.8970703 5.07285156,39.8970703 C2.22929688,39.8970703 1.44580078,40.5647461 1.43818359,40.5707031 C1.28115234,40.7110352 1.03574219,40.7064453 0.890917969,40.5509766 C0.74609375,40.3977539 0.7453125,40.1607422 0.894726562,40.0114258 C0.986230469,39.9198242 1.88173828,39.1166016 5.07285156,39.1166016 C8.26396484,39.1166016 9.15957031,39.9199219 9.25097656,40.0114258 C9.40341797,40.1638672 9.40341797,40.4107422 9.25097656,40.5631836 C9.17480469,40.6393555 9.075,40.6775391 8.97509766,40.6775391 Z" id="Path" fill="#0CBCFF"></path>
                    <path d="M1.17070312,43.0188477 C0.955078125,43.0188477 0.78046875,42.8443359 0.78046875,42.6286133 L0.78046875,40.287207 C0.78046875,40.071582 0.954980469,39.8970703 1.17070312,39.8970703 C1.38642578,39.8970703 1.5609375,40.071582 1.5609375,40.287207 L1.5609375,42.6286133 C1.5609375,42.8443359 1.38632812,43.0188477 1.17070312,43.0188477 Z" id="Path" fill="#0CBCFF"></path>
                    <path d="M8.97509766,43.0188477 C8.759375,43.0188477 8.58486328,42.8443359 8.58486328,42.6286133 L8.58486328,40.287207 C8.58486328,40.071582 8.759375,39.8970703 8.97509766,39.8970703 C9.19072266,39.8970703 9.36533203,40.071582 9.36533203,40.287207 L9.36533203,42.6286133 C9.36542969,42.8443359 9.19082031,43.0188477 8.97509766,43.0188477 Z" id="Path" fill="#0CBCFF"></path>
                    <path d="M15.2186523,37.5557617 C15.0030273,37.5557617 14.828418,37.38125 14.828418,37.1655273 L14.828418,36.3851563 C14.828418,36.1694336 15.0030273,35.9949219 15.2186523,35.9949219 C15.434375,35.9949219 15.6088867,36.1694336 15.6088867,36.3851563 L15.6088867,37.1655273 C15.6088867,37.38125 15.434375,37.5557617 15.2186523,37.5557617 Z" id="Path" fill="#0CBCFF"></path>
                    <path d="M17.5600586,37.3644531 C17.3443359,37.3644531 17.1698242,37.1899414 17.1698242,36.9742188 L17.1698242,36.2044922 C17.1698242,35.9887695 17.3443359,35.8142578 17.5600586,35.8142578 C17.7756836,35.8142578 17.950293,35.9887695 17.950293,36.2044922 L17.950293,36.9742188 C17.9501953,37.1899414 17.7756836,37.3644531 17.5600586,37.3644531 Z" id="Path" fill="#0CBCFF"></path>
                    <path d="M12.8773437,37.3568359 C12.6617187,37.3568359 12.4871094,37.1823242 12.4871094,36.9666016 L12.4871094,36.1938477 C12.4871094,35.978125 12.6616211,35.8036133 12.8773437,35.8036133 C13.0930664,35.8036133 13.2675781,35.978125 13.2675781,36.1938477 L13.2675781,36.9666016 C13.2675781,37.1823242 13.0929687,37.3568359 12.8773437,37.3568359 Z" id="Path" fill="#0CBCFF"></path>
                    <path d="M15.2186523,35.9949219 C12.0275391,35.9949219 11.1320312,35.1916016 11.0405273,35.1001953 C10.8880859,34.9476563 10.8880859,34.7007813 11.0405273,34.5484375 C11.1907227,34.3982422 11.4330078,34.3958984 11.584668,34.5416016 C11.6151367,34.5666992 12.4176758,35.2146484 15.2185547,35.2146484 C18.0621094,35.2146484 18.8457031,34.5469727 18.8533203,34.540918 C19.0110352,34.4005859 19.2548828,34.4051758 19.4005859,34.5606445 C19.5453125,34.7138672 19.5460938,34.9508789 19.3967773,35.100293 C19.3053711,35.1916016 18.4097656,35.9949219 15.2186523,35.9949219 Z" id="Path" fill="#0CBCFF"></path>
                    <path d="M15.2186523,38.3362305 C12.0275391,38.3362305 11.1320312,37.5328125 11.0405273,37.4414062 C10.8880859,37.2889648 10.8880859,37.0420898 11.0405273,36.8896484 C11.1907227,36.7395508 11.4330078,36.737207 11.584668,36.8828125 C11.6151367,36.9080078 12.4176758,37.5558594 15.2185547,37.5558594 C18.0621094,37.5558594 18.8457031,36.8881836 18.8533203,36.8821289 C19.0110352,36.7426758 19.2548828,36.7472656 19.4005859,36.9019531 C19.5453125,37.0551758 19.5460938,37.2921875 19.3967773,37.4415039 C19.3053711,37.5329102 18.4097656,38.3362305 15.2186523,38.3362305 Z" id="Path" fill="#0CBCFF"></path>
                    <path d="M19.1208984,35.2144531 C19.0241211,35.2144531 18.9273438,35.1786133 18.8526367,35.1069336 C18.822168,35.0817383 18.0196289,34.4338867 15.2186523,34.4338867 C12.3750977,34.4338867 11.5916016,35.1015625 11.5839844,35.1075195 C11.4269531,35.2478516 11.181543,35.2432617 11.0367188,35.087793 C10.8918945,34.9345703 10.8911133,34.6975586 11.0405273,34.5482422 C11.1320313,34.4567383 12.0275391,33.653418 15.2186523,33.653418 C18.4097656,33.653418 19.3053711,34.4568359 19.3967773,34.5482422 C19.5492188,34.7006836 19.5492188,34.9475586 19.3967773,35.1 C19.3205078,35.1763672 19.2207031,35.2144531 19.1208984,35.2144531 Z" id="Path" fill="#0CBCFF"></path>
                    <path d="M11.3165039,37.5557617 C11.1008789,37.5557617 10.9262695,37.38125 10.9262695,37.1655273 L10.9262695,34.8242188 C10.9262695,34.6084961 11.1007813,34.4339844 11.3165039,34.4339844 C11.5322266,34.4339844 11.7067383,34.6084961 11.7067383,34.8242188 L11.7067383,37.1655273 C11.7066406,37.38125 11.5321289,37.5557617 11.3165039,37.5557617 Z" id="Path" fill="#0CBCFF"></path>
                    <path d="M19.1208984,37.5557617 C18.9051758,37.5557617 18.7306641,37.38125 18.7306641,37.1655273 L18.7306641,34.8242188 C18.7306641,34.6084961 18.9051758,34.4339844 19.1208984,34.4339844 C19.3365234,34.4339844 19.5111328,34.6084961 19.5111328,34.8242188 L19.5111328,37.1655273 C19.5111328,37.38125 19.3366211,37.5557617 19.1208984,37.5557617 Z" id="Path" fill="#0CBCFF"></path>
                    <path d="M25.3643555,43.0188477 C25.1486328,43.0188477 24.9741211,42.8443359 24.9741211,42.6286133 L24.9741211,41.8482422 C24.9741211,41.6325195 25.1486328,41.4580078 25.3643555,41.4580078 C25.5800781,41.4580078 25.7545898,41.6325195 25.7545898,41.8482422 L25.7545898,42.6286133 C25.7545898,42.8443359 25.5800781,43.0188477 25.3643555,43.0188477 Z" id="Path" fill="#0CBCFF"></path>
                    <path d="M27.7056641,42.8275391 C27.4900391,42.8275391 27.3155273,42.6530273 27.3155273,42.4373047 L27.3155273,41.6675781 C27.3155273,41.4518555 27.4900391,41.2773438 27.7056641,41.2773438 C27.9213867,41.2773438 28.0958984,41.4518555 28.0958984,41.6675781 L28.0958984,42.4373047 C28.0958984,42.6530273 27.9213867,42.8275391 27.7056641,42.8275391 Z" id="Path" fill="#0CBCFF"></path>
                    <path d="M23.0231445,42.8199219 C22.8075195,42.8199219 22.6329102,42.6454102 22.6329102,42.4296875 L22.6329102,41.6569336 C22.6329102,41.4412109 22.8074219,41.2666992 23.0231445,41.2666992 C23.2388672,41.2666992 23.4133789,41.4412109 23.4133789,41.6569336 L23.4133789,42.4296875 C23.4132813,42.6454102 23.2387695,42.8199219 23.0231445,42.8199219 Z" id="Path" fill="#0CBCFF"></path>
                    <path d="M25.3643555,41.4580078 C22.1732422,41.4580078 21.2777344,40.6545898 21.1862305,40.5632812 C21.0337891,40.4107422 21.0337891,40.1638672 21.1862305,40.0115234 C21.3364258,39.8613281 21.5788086,39.8589844 21.7304688,40.0046875 C21.7609375,40.0297852 22.5634766,40.6776367 25.3643555,40.6776367 C28.2079102,40.6776367 28.9914063,40.0100586 28.9990234,40.0040039 C29.1560547,39.8636719 29.4014648,39.8682617 29.5462891,40.0237305 C29.6911133,40.1769531 29.6918945,40.4139648 29.5425781,40.5633789 C29.4510742,40.6545898 28.5554687,41.4580078 25.3643555,41.4580078 Z" id="Path" fill="#0CBCFF"></path>
                    <path d="M25.3643555,43.7993164 C22.1732422,43.7993164 21.2777344,42.9959961 21.1862305,42.9045898 C21.0337891,42.7521484 21.0337891,42.5051758 21.1862305,42.352832 C21.3364258,42.2027344 21.5788086,42.2003906 21.7304688,42.3459961 C21.7609375,42.3711914 22.5634766,43.019043 25.3643555,43.019043 C28.2079102,43.019043 28.9914063,42.3513672 28.9990234,42.3453125 C29.1560547,42.2050781 29.4014648,42.2104492 29.5462891,42.3651367 C29.6911133,42.5182617 29.6918945,42.7553711 29.5425781,42.9046875 C29.4510742,42.9959961 28.5554687,43.7993164 25.3643555,43.7993164 Z" id="Path" fill="#0CBCFF"></path>
                    <path d="M29.2666016,40.6775391 C29.1698242,40.6775391 29.0730469,40.6416992 28.9982422,40.5700195 C28.9677734,40.5449219 28.165332,39.8970703 25.3643555,39.8970703 C22.5208008,39.8970703 21.7373047,40.5647461 21.7296875,40.5707031 C21.571875,40.7110352 21.3280273,40.7064453 21.1824219,40.5509766 C21.0376953,40.3977539 21.0369141,40.1607422 21.1862305,40.0114258 C21.2777344,39.9198242 22.1732422,39.1166016 25.3643555,39.1166016 C28.5554688,39.1166016 29.4510742,39.9199219 29.5424805,40.0114258 C29.6949219,40.1638672 29.6949219,40.4107422 29.5424805,40.5631836 C29.4663086,40.6393555 29.3664063,40.6775391 29.2666016,40.6775391 Z" id="Path" fill="#0CBCFF"></path>
                    <path d="M21.462207,43.0188477 C21.246582,43.0188477 21.0719727,42.8443359 21.0719727,42.6286133 L21.0719727,40.287207 C21.0719727,40.071582 21.246582,39.8970703 21.462207,39.8970703 C21.6779297,39.8970703 21.8524414,40.071582 21.8524414,40.287207 L21.8524414,42.6286133 C21.8524414,42.8443359 21.6779297,43.0188477 21.462207,43.0188477 Z" id="Path" fill="#0CBCFF"></path>
                    <path d="M29.2666016,43.0188477 C29.0508789,43.0188477 28.8763672,42.8443359 28.8763672,42.6286133 L28.8763672,40.287207 C28.8763672,40.071582 29.0508789,39.8970703 29.2666016,39.8970703 C29.4822266,39.8970703 29.6568359,40.071582 29.6568359,40.287207 L29.6568359,42.6286133 C29.6568359,42.8443359 29.4822266,43.0188477 29.2666016,43.0188477 Z" id="Path" fill="#0CBCFF"></path>
                    <path d="M25.3643555,37.5557617 C25.1486328,37.5557617 24.9741211,37.38125 24.9741211,37.1655273 L24.9741211,36.3851563 C24.9741211,36.1694336 25.1486328,35.9949219 25.3643555,35.9949219 C25.5800781,35.9949219 25.7545898,36.1694336 25.7545898,36.3851563 L25.7545898,37.1655273 C25.7545898,37.38125 25.5800781,37.5557617 25.3643555,37.5557617 Z" id="Path" fill="#0CBCFF"></path>
                    <path d="M27.7056641,37.3644531 C27.4900391,37.3644531 27.3155273,37.1899414 27.3155273,36.9742188 L27.3155273,36.2044922 C27.3155273,35.9887695 27.4900391,35.8142578 27.7056641,35.8142578 C27.9213867,35.8142578 28.0958984,35.9887695 28.0958984,36.2044922 L28.0958984,36.9742188 C28.0958984,37.1899414 27.9213867,37.3644531 27.7056641,37.3644531 Z" id="Path" fill="#0CBCFF"></path>
                    <path d="M23.0231445,37.3568359 C22.8075195,37.3568359 22.6329102,37.1823242 22.6329102,36.9666016 L22.6329102,36.1938477 C22.6329102,35.978125 22.8074219,35.8036133 23.0231445,35.8036133 C23.2388672,35.8036133 23.4133789,35.978125 23.4133789,36.1938477 L23.4133789,36.9666016 C23.4132813,37.1823242 23.2387695,37.3568359 23.0231445,37.3568359 Z" id="Path" fill="#0CBCFF"></path>
                    <path d="M25.3643555,35.9949219 C22.1732422,35.9949219 21.2777344,35.1916016 21.1862305,35.1001953 C21.0337891,34.9476563 21.0337891,34.7007813 21.1862305,34.5484375 C21.3364258,34.3982422 21.5788086,34.3958984 21.7304688,34.5416016 C21.7609375,34.5666992 22.5634766,35.2146484 25.3643555,35.2146484 C28.2079102,35.2146484 28.9914063,34.5469727 28.9990234,34.540918 C29.1560547,34.4005859 29.4014648,34.4051758 29.5462891,34.5606445 C29.6911133,34.7138672 29.6918945,34.9508789 29.5425781,35.100293 C29.4510742,35.1916016 28.5554687,35.9949219 25.3643555,35.9949219 Z" id="Path" fill="#0CBCFF"></path>
                    <path d="M25.3643555,38.3362305 C22.1732422,38.3362305 21.2777344,37.5328125 21.1862305,37.4414062 C21.0337891,37.2889648 21.0337891,37.0420898 21.1862305,36.8896484 C21.3364258,36.7395508 21.5788086,36.737207 21.7304688,36.8828125 C21.7609375,36.9080078 22.5634766,37.5558594 25.3643555,37.5558594 C28.2079102,37.5558594 28.9914063,36.8881836 28.9990234,36.8821289 C29.1560547,36.7426758 29.4014648,36.7472656 29.5462891,36.9019531 C29.6911133,37.0551758 29.6918945,37.2921875 29.5425781,37.4415039 C29.4510742,37.5329102 28.5554687,38.3362305 25.3643555,38.3362305 Z" id="Path" fill="#0CBCFF"></path>
                    <path d="M29.2666016,35.2144531 C29.1698242,35.2144531 29.0730469,35.1786133 28.9982422,35.1069336 C28.9677734,35.0817383 28.165332,34.4338867 25.3643555,34.4338867 C22.5208008,34.4338867 21.7373047,35.1015625 21.7296875,35.1075195 C21.571875,35.2478516 21.3280273,35.2432617 21.1824219,35.087793 C21.0376953,34.9345703 21.0369141,34.6975586 21.1862305,34.5482422 C21.2777344,34.4567383 22.1732422,33.653418 25.3643555,33.653418 C28.5554688,33.653418 29.4510742,34.4568359 29.5424805,34.5482422 C29.6949219,34.7006836 29.6949219,34.9475586 29.5424805,35.1 C29.4663086,35.1763672 29.3664063,35.2144531 29.2666016,35.2144531 Z" id="Path" fill="#0CBCFF"></path>
                    <path d="M21.462207,37.5557617 C21.246582,37.5557617 21.0719727,37.38125 21.0719727,37.1655273 L21.0719727,34.8242188 C21.0719727,34.6084961 21.246582,34.4339844 21.462207,34.4339844 C21.6779297,34.4339844 21.8524414,34.6084961 21.8524414,34.8242188 L21.8524414,37.1655273 C21.8524414,37.38125 21.6779297,37.5557617 21.462207,37.5557617 Z" id="Path" fill="#0CBCFF"></path>
                    <path d="M29.2666016,37.5557617 C29.0508789,37.5557617 28.8763672,37.38125 28.8763672,37.1655273 L28.8763672,34.8242188 C28.8763672,34.6084961 29.0508789,34.4339844 29.2666016,34.4339844 C29.4822266,34.4339844 29.6568359,34.6084961 29.6568359,34.8242188 L29.6568359,37.1655273 C29.6568359,37.38125 29.4822266,37.5557617 29.2666016,37.5557617 Z" id="Path" fill="#0CBCFF"></path>
                    <path d="M25.3643555,32.0926758 C25.1486328,32.0926758 24.9741211,31.9181641 24.9741211,31.7025391 L24.9741211,30.9220703 C24.9741211,30.7063477 25.1486328,30.5318359 25.3643555,30.5318359 C25.5800781,30.5318359 25.7545898,30.7063477 25.7545898,30.9220703 L25.7545898,31.7025391 C25.7545898,31.9180664 25.5800781,32.0926758 25.3643555,32.0926758 Z" id="Path" fill="#0CBCFF"></path>
                    <path d="M27.7056641,31.9014648 C27.4900391,31.9014648 27.3155273,31.7268555 27.3155273,31.5112305 L27.3155273,30.7414063 C27.3155273,30.5256836 27.4900391,30.3511719 27.7056641,30.3511719 C27.9213867,30.3511719 28.0958984,30.5256836 28.0958984,30.7414063 L28.0958984,31.5112305 C28.0958984,31.7267578 27.9213867,31.9014648 27.7056641,31.9014648 Z" id="Path" fill="#0CBCFF"></path>
                    <path d="M23.0231445,31.89375 C22.8075195,31.89375 22.6329102,31.7192383 22.6329102,31.5035156 L22.6329102,30.7306641 C22.6329102,30.5149414 22.8074219,30.3404297 23.0231445,30.3404297 C23.2388672,30.3404297 23.4133789,30.5149414 23.4133789,30.7306641 L23.4133789,31.5035156 C23.4132813,31.7192383 23.2387695,31.89375 23.0231445,31.89375 Z" id="Path" fill="#0CBCFF"></path>
                    <path d="M25.3643555,30.5317383 C22.1732422,30.5317383 21.2777344,29.728418 21.1862305,29.6370117 C21.0337891,29.4845703 21.0337891,29.2375977 21.1862305,29.0852539 C21.3364258,28.9351563 21.5788086,28.9328125 21.7304688,29.078418 C21.7609375,29.1036133 22.5634766,29.7514648 25.3643555,29.7514648 C28.2079102,29.7514648 28.9914063,29.0837891 28.9990234,29.0777344 C29.1560547,28.9375 29.4014648,28.9428711 29.5462891,29.0975586 C29.6911133,29.2506836 29.6918945,29.487793 29.5425781,29.6371094 C29.4510742,29.7285156 28.5554687,30.5317383 25.3643555,30.5317383 Z" id="Path" fill="#0CBCFF"></path>
                    <path d="M25.3643555,32.8731445 C22.1732422,32.8731445 21.2777344,32.0698242 21.1862305,31.9783203 C21.0337891,31.8258789 21.0337891,31.5790039 21.1862305,31.4265625 C21.3364258,31.2764648 21.5788086,31.2741211 21.7304688,31.4198242 C21.7609375,31.4449219 22.5634766,32.0927734 25.3643555,32.0927734 C28.2079102,32.0927734 28.9914063,31.4250977 28.9990234,31.4191406 C29.1560547,31.2795898 29.4014648,31.2841797 29.5462891,31.4388672 C29.6911133,31.5920898 29.6918945,31.8291016 29.5425781,31.978418 C29.4510742,32.0698242 28.5554687,32.8731445 25.3643555,32.8731445 Z" id="Path" fill="#0CBCFF"></path>
                    <path d="M29.2666016,29.7513672 C29.1698242,29.7513672 29.0730469,29.7155273 28.9982422,29.6438477 C28.9677734,29.6186523 28.165332,28.9708008 25.3643555,28.9708008 C22.5208008,28.9708008 21.7373047,29.6384766 21.7296875,29.6445313 C21.571875,29.7847656 21.3280273,29.7793945 21.1824219,29.624707 C21.0376953,29.471582 21.0369141,29.2344727 21.1862305,29.0851563 C21.2777344,28.9936523 22.1732422,28.1904297 25.3643555,28.1904297 C28.5554688,28.1904297 29.4510742,28.99375 29.5424805,29.0851563 C29.6949219,29.2375977 29.6949219,29.4845703 29.5424805,29.6369141 C29.4663086,29.7131836 29.3664063,29.7513672 29.2666016,29.7513672 Z" id="Path" fill="#0CBCFF"></path>
                    <path d="M21.462207,32.0926758 C21.246582,32.0926758 21.0719727,31.9181641 21.0719727,31.7025391 L21.0719727,29.3611328 C21.0719727,29.1454102 21.246582,28.9708984 21.462207,28.9708984 C21.6779297,28.9708984 21.8524414,29.1454102 21.8524414,29.3611328 L21.8524414,31.7025391 C21.8524414,31.9180664 21.6779297,32.0926758 21.462207,32.0926758 Z" id="Path" fill="#0CBCFF"></path>
                    <path d="M29.2666016,32.0926758 C29.0508789,32.0926758 28.8763672,31.9181641 28.8763672,31.7025391 L28.8763672,29.3611328 C28.8763672,29.1454102 29.0508789,28.9708984 29.2666016,28.9708984 C29.4822266,28.9708984 29.6568359,29.1454102 29.6568359,29.3611328 L29.6568359,31.7025391 C29.6568359,31.9180664 29.4822266,32.0926758 29.2666016,32.0926758 Z" id="Path" fill="#0CBCFF"></path>
                    <path d="M35.5101563,43.0188477 C35.2944336,43.0188477 35.1199219,42.8443359 35.1199219,42.6286133 L35.1199219,41.8482422 C35.1199219,41.6325195 35.2944336,41.4580078 35.5101563,41.4580078 C35.7258789,41.4580078 35.9003906,41.6325195 35.9003906,41.8482422 L35.9003906,42.6286133 C35.9003906,42.8443359 35.7258789,43.0188477 35.5101563,43.0188477 Z" id="Path" fill="#0CBCFF"></path>
                    <path d="M37.8513672,42.8275391 C37.6357422,42.8275391 37.4612305,42.6530273 37.4612305,42.4373047 L37.4612305,41.6675781 C37.4612305,41.4518555 37.6357422,41.2773438 37.8513672,41.2773438 C38.0670898,41.2773438 38.2416016,41.4518555 38.2416016,41.6675781 L38.2416016,42.4373047 C38.2416016,42.6530273 38.0670898,42.8275391 37.8513672,42.8275391 Z" id="Path" fill="#0CBCFF"></path>
                    <path d="M33.16875,42.8199219 C32.953125,42.8199219 32.7786133,42.6454102 32.7786133,42.4296875 L32.7786133,41.6569336 C32.7786133,41.4412109 32.953125,41.2666992 33.16875,41.2666992 C33.3844727,41.2666992 33.5589844,41.4412109 33.5589844,41.6569336 L33.5589844,42.4296875 C33.5589844,42.6454102 33.3844727,42.8199219 33.16875,42.8199219 Z" id="Path" fill="#0CBCFF"></path>
                    <path d="M35.5101563,41.4580078 C32.3189453,41.4580078 31.4234375,40.6545898 31.3320312,40.5632812 C31.1795898,40.4107422 31.1795898,40.1638672 31.3320312,40.0115234 C31.4822266,39.8613281 31.7246094,39.8589844 31.8761719,40.0046875 C31.9066406,40.0297852 32.7091797,40.6776367 35.5101563,40.6776367 C38.3537109,40.6776367 39.137207,40.0100586 39.1448242,40.0040039 C39.3018555,39.8636719 39.5472656,39.8682617 39.6920898,40.0237305 C39.8369141,40.1769531 39.8376953,40.4139648 39.6882812,40.5633789 C39.5967773,40.6545898 38.7011719,41.4580078 35.5101563,41.4580078 Z" id="Path" fill="#0CBCFF"></path>
                    <path d="M35.5101563,43.7993164 C32.3189453,43.7993164 31.4234375,42.9959961 31.3320312,42.9045898 C31.1795898,42.7521484 31.1795898,42.5051758 31.3320312,42.352832 C31.4822266,42.2027344 31.7246094,42.2003906 31.8761719,42.3459961 C31.9066406,42.3711914 32.7091797,43.019043 35.5101563,43.019043 C38.3537109,43.019043 39.137207,42.3513672 39.1448242,42.3453125 C39.3018555,42.2050781 39.5472656,42.2104492 39.6920898,42.3651367 C39.8369141,42.5182617 39.8376953,42.7553711 39.6882812,42.9046875 C39.5967773,42.9959961 38.7011719,43.7993164 35.5101563,43.7993164 Z" id="Path" fill="#0CBCFF"></path>
                    <path d="M39.4124023,40.6775391 C39.3155273,40.6775391 39.2188477,40.6416992 39.144043,40.5700195 C39.1135742,40.5449219 38.3111328,39.8970703 35.5101563,39.8970703 C32.6666016,39.8970703 31.8830078,40.5647461 31.8753906,40.5707031 C31.7176758,40.7110352 31.4730469,40.7064453 31.328125,40.5509766 C31.1833984,40.3977539 31.1826172,40.1607422 31.3319336,40.0114258 C31.4234375,39.9198242 32.3188477,39.1166016 35.5100586,39.1166016 C38.7011719,39.1166016 39.5967773,39.9199219 39.6880859,40.0114258 C39.840625,40.1638672 39.840625,40.4107422 39.6880859,40.5631836 C39.6120117,40.6393555 39.5121094,40.6775391 39.4124023,40.6775391 Z" id="Path" fill="#0CBCFF"></path>
                    <path d="M31.6079102,43.0188477 C31.3921875,43.0188477 31.2176758,42.8443359 31.2176758,42.6286133 L31.2176758,40.287207 C31.2176758,40.071582 31.3921875,39.8970703 31.6079102,39.8970703 C31.8236328,39.8970703 31.9981445,40.071582 31.9981445,40.287207 L31.9981445,42.6286133 C31.9981445,42.8443359 31.8236328,43.0188477 31.6079102,43.0188477 Z" id="Path" fill="#0CBCFF"></path>
                    <path d="M39.4124023,43.0188477 C39.1966797,43.0188477 39.022168,42.8443359 39.022168,42.6286133 L39.022168,40.287207 C39.022168,40.071582 39.1966797,39.8970703 39.4124023,39.8970703 C39.6280273,39.8970703 39.8025391,40.071582 39.8025391,40.287207 L39.8025391,42.6286133 C39.8025391,42.8443359 39.6280273,43.0188477 39.4124023,43.0188477 Z" id="Path" fill="#0CBCFF"></path>
                    <path d="M35.5101563,37.5557617 C35.2944336,37.5557617 35.1199219,37.38125 35.1199219,37.1655273 L35.1199219,36.3851563 C35.1199219,36.1694336 35.2944336,35.9949219 35.5101563,35.9949219 C35.7258789,35.9949219 35.9003906,36.1694336 35.9003906,36.3851563 L35.9003906,37.1655273 C35.9003906,37.38125 35.7258789,37.5557617 35.5101563,37.5557617 Z" id="Path" fill="#0CBCFF"></path>
                    <path d="M37.8513672,37.3644531 C37.6357422,37.3644531 37.4612305,37.1899414 37.4612305,36.9742188 L37.4612305,36.2044922 C37.4612305,35.9887695 37.6357422,35.8142578 37.8513672,35.8142578 C38.0670898,35.8142578 38.2416016,35.9887695 38.2416016,36.2044922 L38.2416016,36.9742188 C38.2416016,37.1899414 38.0670898,37.3644531 37.8513672,37.3644531 Z" id="Path" fill="#0CBCFF"></path>
                    <path d="M33.16875,37.3568359 C32.953125,37.3568359 32.7786133,37.1823242 32.7786133,36.9666016 L32.7786133,36.1938477 C32.7786133,35.978125 32.953125,35.8036133 33.16875,35.8036133 C33.3844727,35.8036133 33.5589844,35.978125 33.5589844,36.1938477 L33.5589844,36.9666016 C33.5589844,37.1823242 33.3844727,37.3568359 33.16875,37.3568359 Z" id="Path" fill="#0CBCFF"></path>
                    <path d="M35.5101563,35.9949219 C32.3189453,35.9949219 31.4234375,35.1916016 31.3320312,35.1001953 C31.1795898,34.9476563 31.1795898,34.7007813 31.3320312,34.5484375 C31.4822266,34.3982422 31.7246094,34.3958984 31.8761719,34.5416016 C31.9066406,34.5666992 32.7091797,35.2146484 35.5101563,35.2146484 C38.3537109,35.2146484 39.137207,34.5469727 39.1448242,34.540918 C39.3018555,34.4005859 39.5472656,34.4051758 39.6920898,34.5606445 C39.8369141,34.7138672 39.8376953,34.9508789 39.6882812,35.100293 C39.5967773,35.1916016 38.7011719,35.9949219 35.5101563,35.9949219 Z" id="Path" fill="#0CBCFF"></path>
                    <path d="M35.5101563,38.3362305 C32.3189453,38.3362305 31.4234375,37.5328125 31.3320312,37.4414062 C31.1795898,37.2889648 31.1795898,37.0420898 31.3320312,36.8896484 C31.4822266,36.7395508 31.7246094,36.737207 31.8761719,36.8828125 C31.9066406,36.9080078 32.7091797,37.5558594 35.5101563,37.5558594 C38.3537109,37.5558594 39.137207,36.8881836 39.1448242,36.8821289 C39.3018555,36.7426758 39.5472656,36.7472656 39.6920898,36.9019531 C39.8369141,37.0551758 39.8376953,37.2921875 39.6882812,37.4415039 C39.5967773,37.5329102 38.7011719,38.3362305 35.5101563,38.3362305 Z" id="Path" fill="#0CBCFF"></path>
                    <path d="M39.4124023,35.2144531 C39.3155273,35.2144531 39.2188477,35.1786133 39.144043,35.1069336 C39.1135742,35.0817383 38.3111328,34.4338867 35.5101563,34.4338867 C32.6666016,34.4338867 31.8830078,35.1015625 31.8753906,35.1075195 C31.7176758,35.2478516 31.4730469,35.2432617 31.328125,35.087793 C31.1833984,34.9345703 31.1826172,34.6975586 31.3319336,34.5482422 C31.4234375,34.4567383 32.3188477,33.653418 35.5100586,33.653418 C38.7011719,33.653418 39.5967773,34.4568359 39.6880859,34.5482422 C39.840625,34.7006836 39.840625,34.9475586 39.6880859,35.1 C39.6120117,35.1763672 39.5121094,35.2144531 39.4124023,35.2144531 Z" id="Path" fill="#0CBCFF"></path>
                    <path d="M31.6079102,37.5557617 C31.3921875,37.5557617 31.2176758,37.38125 31.2176758,37.1655273 L31.2176758,34.8242188 C31.2176758,34.6084961 31.3921875,34.4339844 31.6079102,34.4339844 C31.8236328,34.4339844 31.9981445,34.6084961 31.9981445,34.8242188 L31.9981445,37.1655273 C31.9981445,37.38125 31.8236328,37.5557617 31.6079102,37.5557617 Z" id="Path" fill="#0CBCFF"></path>
                    <path d="M39.4124023,37.5557617 C39.1966797,37.5557617 39.022168,37.38125 39.022168,37.1655273 L39.022168,34.8242188 C39.022168,34.6084961 39.1966797,34.4339844 39.4124023,34.4339844 C39.6280273,34.4339844 39.8025391,34.6084961 39.8025391,34.8242188 L39.8025391,37.1655273 C39.8025391,37.38125 39.6280273,37.5557617 39.4124023,37.5557617 Z" id="Path" fill="#0CBCFF"></path>
                    <path d="M35.5101563,32.0926758 C35.2944336,32.0926758 35.1199219,31.9181641 35.1199219,31.7025391 L35.1199219,30.9220703 C35.1199219,30.7063477 35.2944336,30.5318359 35.5101563,30.5318359 C35.7258789,30.5318359 35.9003906,30.7063477 35.9003906,30.9220703 L35.9003906,31.7025391 C35.9003906,31.9180664 35.7258789,32.0926758 35.5101563,32.0926758 Z" id="Path" fill="#0CBCFF"></path>
                    <path d="M37.8513672,31.9014648 C37.6357422,31.9014648 37.4612305,31.7268555 37.4612305,31.5112305 L37.4612305,30.7414063 C37.4612305,30.5256836 37.6357422,30.3511719 37.8513672,30.3511719 C38.0670898,30.3511719 38.2416016,30.5256836 38.2416016,30.7414063 L38.2416016,31.5112305 C38.2416016,31.7267578 38.0670898,31.9014648 37.8513672,31.9014648 Z" id="Path" fill="#0CBCFF"></path>
                    <path d="M33.16875,31.89375 C32.953125,31.89375 32.7786133,31.7192383 32.7786133,31.5035156 L32.7786133,30.7306641 C32.7786133,30.5149414 32.953125,30.3404297 33.16875,30.3404297 C33.3844727,30.3404297 33.5589844,30.5149414 33.5589844,30.7306641 L33.5589844,31.5035156 C33.5589844,31.7192383 33.3844727,31.89375 33.16875,31.89375 Z" id="Path" fill="#0CBCFF"></path>
                    <path d="M35.5101563,30.5317383 C32.3189453,30.5317383 31.4234375,29.728418 31.3320312,29.6370117 C31.1795898,29.4845703 31.1795898,29.2375977 31.3320312,29.0852539 C31.4822266,28.9351563 31.7246094,28.9328125 31.8761719,29.078418 C31.9066406,29.1036133 32.7091797,29.7514648 35.5101563,29.7514648 C38.3537109,29.7514648 39.137207,29.0837891 39.1448242,29.0777344 C39.3018555,28.9375 39.5472656,28.9428711 39.6920898,29.0975586 C39.8369141,29.2506836 39.8376953,29.487793 39.6882812,29.6371094 C39.5967773,29.7285156 38.7011719,30.5317383 35.5101563,30.5317383 Z" id="Path" fill="#0CBCFF"></path>
                    <path d="M35.5101563,32.8731445 C32.3189453,32.8731445 31.4234375,32.0698242 31.3320312,31.9783203 C31.1795898,31.8258789 31.1795898,31.5790039 31.3320312,31.4265625 C31.4822266,31.2764648 31.7246094,31.2741211 31.8761719,31.4198242 C31.9066406,31.4449219 32.7091797,32.0927734 35.5101563,32.0927734 C38.3537109,32.0927734 39.137207,31.4250977 39.1448242,31.4191406 C39.3018555,31.2795898 39.5472656,31.2841797 39.6920898,31.4388672 C39.8369141,31.5920898 39.8376953,31.8291016 39.6882812,31.978418 C39.5967773,32.0698242 38.7011719,32.8731445 35.5101563,32.8731445 Z" id="Path" fill="#0CBCFF"></path>
                    <path d="M39.4124023,29.7513672 C39.3155273,29.7513672 39.2188477,29.7155273 39.144043,29.6438477 C39.1135742,29.6186523 38.3111328,28.9708008 35.5101563,28.9708008 C32.6666016,28.9708008 31.8830078,29.6384766 31.8753906,29.6445313 C31.7176758,29.7847656 31.4730469,29.7793945 31.328125,29.624707 C31.1833984,29.471582 31.1826172,29.2344727 31.3319336,29.0851563 C31.4234375,28.9936523 32.3188477,28.1904297 35.5100586,28.1904297 C38.7011719,28.1904297 39.5967773,28.99375 39.6880859,29.0851563 C39.840625,29.2375977 39.840625,29.4845703 39.6880859,29.6369141 C39.6120117,29.7131836 39.5121094,29.7513672 39.4124023,29.7513672 Z" id="Path" fill="#0CBCFF"></path>
                    <path d="M31.6079102,32.0926758 C31.3921875,32.0926758 31.2176758,31.9181641 31.2176758,31.7025391 L31.2176758,29.3611328 C31.2176758,29.1454102 31.3921875,28.9708984 31.6079102,28.9708984 C31.8236328,28.9708984 31.9981445,29.1454102 31.9981445,29.3611328 L31.9981445,31.7025391 C31.9981445,31.9180664 31.8236328,32.0926758 31.6079102,32.0926758 Z" id="Path" fill="#0CBCFF"></path>
                    <path d="M39.4124023,32.0926758 C39.1966797,32.0926758 39.022168,31.9181641 39.022168,31.7025391 L39.022168,29.3611328 C39.022168,29.1454102 39.1966797,28.9708984 39.4124023,28.9708984 C39.6280273,28.9708984 39.8025391,29.1454102 39.8025391,29.3611328 L39.8025391,31.7025391 C39.8025391,31.9180664 39.6280273,32.0926758 39.4124023,32.0926758 Z" id="Path" fill="#0CBCFF"></path>
                    <path d="M35.5101563,26.6295898 C35.2944336,26.6295898 35.1199219,26.4549805 35.1199219,26.2393555 L35.1199219,25.4588867 C35.1199219,25.2432617 35.2944336,25.06875 35.5101563,25.06875 C35.7258789,25.06875 35.9003906,25.2432617 35.9003906,25.4588867 L35.9003906,26.2393555 C35.9003906,26.4549805 35.7258789,26.6295898 35.5101563,26.6295898 Z" id="Path" fill="#0CBCFF"></path>
                    <path d="M37.8513672,26.4382812 C37.6357422,26.4382812 37.4612305,26.2636719 37.4612305,26.0480469 L37.4612305,25.2782227 C37.4612305,25.0625977 37.6357422,24.8880859 37.8513672,24.8880859 C38.0670898,24.8880859 38.2416016,25.0625977 38.2416016,25.2782227 L38.2416016,26.0480469 C38.2416016,26.2636719 38.0670898,26.4382812 37.8513672,26.4382812 Z" id="Path" fill="#0CBCFF"></path>
                    <path d="M33.16875,26.4306641 C32.953125,26.4306641 32.7786133,26.2561523 32.7786133,26.0404297 L32.7786133,25.2676758 C32.7786133,25.0519531 32.953125,24.8774414 33.16875,24.8774414 C33.3844727,24.8774414 33.5589844,25.0519531 33.5589844,25.2676758 L33.5589844,26.0404297 C33.5589844,26.2561523 33.3844727,26.4306641 33.16875,26.4306641 Z" id="Path" fill="#0CBCFF"></path>
                    <path d="M35.5101563,25.06875 C32.3189453,25.06875 31.4234375,24.265332 31.3320312,24.1739258 C31.1795898,24.0214844 31.1795898,23.7746094 31.3320312,23.622168 C31.4822266,23.4720703 31.7246094,23.4697266 31.8761719,23.615332 C31.9066406,23.6405273 32.7091797,24.2883789 35.5101563,24.2883789 C38.3537109,24.2883789 39.137207,23.6207031 39.1448242,23.6146484 C39.3018555,23.4744141 39.5472656,23.4797852 39.6920898,23.6344727 C39.8369141,23.7876953 39.8376953,24.024707 39.6882812,24.1740234 C39.5967773,24.265332 38.7011719,25.06875 35.5101563,25.06875 Z" id="Path" fill="#0CBCFF"></path>
                    <path d="M35.5101563,27.4099609 C32.3189453,27.4099609 31.4234375,26.6066406 31.3320312,26.5152344 C31.1795898,26.362793 31.1795898,26.1158203 31.3320312,25.9634766 C31.4822266,25.8133789 31.7246094,25.8110352 31.8761719,25.9566406 C31.9066406,25.9818359 32.7091797,26.6296875 35.5101563,26.6296875 C38.3537109,26.6296875 39.137207,25.9620117 39.1448242,25.955957 C39.3018555,25.8165039 39.5472656,25.8210938 39.6920898,25.9757813 C39.8369141,26.1289063 39.8376953,26.3660156 39.6882812,26.515332 C39.5967773,26.6067383 38.7011719,27.4099609 35.5101563,27.4099609 Z" id="Path" fill="#0CBCFF"></path>
                    <path d="M39.4124023,24.2882812 C39.3155273,24.2882812 39.2188477,24.2524414 39.144043,24.1807617 C39.1135742,24.1556641 38.3111328,23.5077148 35.5101563,23.5077148 C32.6666016,23.5077148 31.8830078,24.1753906 31.8753906,24.1814453 C31.7176758,24.3217773 31.4730469,24.3164062 31.328125,24.1617187 C31.1833984,24.0084961 31.1826172,23.7714844 31.3319336,23.6220703 C31.4234375,23.5305664 32.3188477,22.7273437 35.5100586,22.7273437 C38.7011719,22.7273437 39.5967773,23.5306641 39.6880859,23.6220703 C39.840625,23.7746094 39.840625,24.0214844 39.6880859,24.1738281 C39.6120117,24.2500977 39.5121094,24.2882812 39.4124023,24.2882812 Z" id="Path" fill="#00B9FF"></path>
                    <path d="M31.6079102,26.6295898 C31.3921875,26.6295898 31.2176758,26.4549805 31.2176758,26.2393555 L31.2176758,23.8979492 C31.2176758,23.6823242 31.3921875,23.5077148 31.6079102,23.5077148 C31.8236328,23.5077148 31.9981445,23.6823242 31.9981445,23.8979492 L31.9981445,26.2393555 C31.9981445,26.4549805 31.8236328,26.6295898 31.6079102,26.6295898 Z" id="Path" fill="#00B9FF"></path>
                    <path d="M39.4124023,26.6295898 C39.1966797,26.6295898 39.022168,26.4549805 39.022168,26.2393555 L39.022168,23.8979492 C39.022168,23.6823242 39.1966797,23.5077148 39.4124023,23.5077148 C39.6280273,23.5077148 39.8025391,23.6823242 39.8025391,23.8979492 L39.8025391,26.2393555 C39.8025391,26.4549805 39.6280273,26.6295898 39.4124023,26.6295898 Z" id="Path" fill="#00B9FF"></path>
                    <path d="M45.6558594,43.0188477 C45.4401367,43.0188477 45.265625,42.8443359 45.265625,42.6286133 L45.265625,41.8482422 C45.265625,41.6325195 45.4401367,41.4580078 45.6558594,41.4580078 C45.871582,41.4580078 46.0460937,41.6325195 46.0460937,41.8482422 L46.0460937,42.6286133 C46.0460937,42.8443359 45.871582,43.0188477 45.6558594,43.0188477 Z" id="Path" fill="#00B9FF"></path>
                    <path d="M47.997168,42.8275391 C47.781543,42.8275391 47.6069336,42.6530273 47.6069336,42.4373047 L47.6069336,41.6675781 C47.6069336,41.4518555 47.781543,41.2773438 47.997168,41.2773438 C48.2128906,41.2773438 48.3874023,41.4518555 48.3874023,41.6675781 L48.3874023,42.4373047 C48.3874023,42.6530273 48.2128906,42.8275391 47.997168,42.8275391 Z" id="Path" fill="#00B9FF"></path>
                    <path d="M43.3145508,42.8199219 C43.0989258,42.8199219 42.9244141,42.6454102 42.9244141,42.4296875 L42.9244141,41.6569336 C42.9244141,41.4412109 43.0989258,41.2666992 43.3145508,41.2666992 C43.5302734,41.2666992 43.7047852,41.4412109 43.7047852,41.6569336 L43.7047852,42.4296875 C43.7047852,42.6454102 43.5302734,42.8199219 43.3145508,42.8199219 Z" id="Path" fill="#00B9FF"></path>
                    <path d="M45.6558594,41.4580078 C42.4646484,41.4580078 41.5691406,40.6545898 41.4777344,40.5632812 C41.325293,40.4107422 41.325293,40.1638672 41.4777344,40.0115234 C41.6279297,39.8613281 41.8703125,39.8589844 42.021875,40.0046875 C42.0523437,40.0297852 42.8548828,40.6776367 45.6558594,40.6776367 C48.4994141,40.6776367 49.2829102,40.0100586 49.2905273,40.0040039 C49.4474609,39.8636719 49.6929687,39.8682617 49.837793,40.0237305 C49.9826172,40.1769531 49.9833984,40.4139648 49.8339844,40.5633789 C49.7425781,40.6545898 48.8469727,41.4580078 45.6558594,41.4580078 Z" id="Path" fill="#00B9FF"></path>
                    <path d="M45.6558594,43.7993164 C42.4646484,43.7993164 41.5691406,42.9959961 41.4777344,42.9045898 C41.325293,42.7521484 41.325293,42.5051758 41.4777344,42.352832 C41.6279297,42.2027344 41.8703125,42.2003906 42.021875,42.3459961 C42.0523437,42.3711914 42.8548828,43.019043 45.6558594,43.019043 C48.4994141,43.019043 49.2829102,42.3513672 49.2905273,42.3453125 C49.4474609,42.2050781 49.6929687,42.2104492 49.837793,42.3651367 C49.9826172,42.5182617 49.9833984,42.7553711 49.8339844,42.9046875 C49.7425781,42.9959961 48.8469727,43.7993164 45.6558594,43.7993164 Z" id="Path" fill="#00B9FF"></path>
                    <path d="M49.5581055,40.6775391 C49.4612305,40.6775391 49.3645508,40.6416992 49.2897461,40.5700195 C49.2592773,40.5449219 48.4567383,39.8970703 45.6558594,39.8970703 C42.812207,39.8970703 42.0287109,40.5647461 42.0210938,40.5707031 C41.8633789,40.7110352 41.6195313,40.7064453 41.4738281,40.5509766 C41.3291016,40.3977539 41.3283203,40.1607422 41.4776367,40.0114258 C41.5691406,39.9198242 42.4645508,39.1166016 45.6557617,39.1166016 C48.846875,39.1166016 49.7424805,39.9199219 49.8337891,40.0114258 C49.9863281,40.1638672 49.9863281,40.4107422 49.8337891,40.5631836 C49.7577148,40.6393555 49.6579102,40.6775391 49.5581055,40.6775391 Z" id="Path" fill="#00B9FF"></path>
                    <path d="M41.7536133,43.0188477 C41.5378906,43.0188477 41.3633789,42.8443359 41.3633789,42.6286133 L41.3633789,40.287207 C41.3633789,40.071582 41.5378906,39.8970703 41.7536133,39.8970703 C41.9693359,39.8970703 42.1438477,40.071582 42.1438477,40.287207 L42.1438477,42.6286133 C42.1438477,42.8443359 41.9693359,43.0188477 41.7536133,43.0188477 Z" id="Path" fill="#00B9FF"></path>
                    <path d="M49.5581055,43.0188477 C49.3423828,43.0188477 49.1678711,42.8443359 49.1678711,42.6286133 L49.1678711,40.287207 C49.1678711,40.071582 49.3423828,39.8970703 49.5581055,39.8970703 C49.7737305,39.8970703 49.9482422,40.071582 49.9482422,40.287207 L49.9482422,42.6286133 C49.9482422,42.8443359 49.7737305,43.0188477 49.5581055,43.0188477 Z" id="Path" fill="#00B9FF"></path>
                    <path d="M45.6558594,37.5557617 C45.4401367,37.5557617 45.265625,37.38125 45.265625,37.1655273 L45.265625,36.3851563 C45.265625,36.1694336 45.4401367,35.9949219 45.6558594,35.9949219 C45.871582,35.9949219 46.0460937,36.1694336 46.0460937,36.3851563 L46.0460937,37.1655273 C46.0460937,37.38125 45.871582,37.5557617 45.6558594,37.5557617 Z" id="Path" fill="#00B9FF"></path>
                    <path d="M47.997168,37.3644531 C47.781543,37.3644531 47.6069336,37.1899414 47.6069336,36.9742188 L47.6069336,36.2044922 C47.6069336,35.9887695 47.781543,35.8142578 47.997168,35.8142578 C48.2128906,35.8142578 48.3874023,35.9887695 48.3874023,36.2044922 L48.3874023,36.9742188 C48.3874023,37.1899414 48.2128906,37.3644531 47.997168,37.3644531 Z" id="Path" fill="#00B9FF"></path>
                    <path d="M43.3145508,37.3568359 C43.0989258,37.3568359 42.9244141,37.1823242 42.9244141,36.9666016 L42.9244141,36.1938477 C42.9244141,35.978125 43.0989258,35.8036133 43.3145508,35.8036133 C43.5302734,35.8036133 43.7047852,35.978125 43.7047852,36.1938477 L43.7047852,36.9666016 C43.7047852,37.1823242 43.5302734,37.3568359 43.3145508,37.3568359 Z" id="Path" fill="#00B9FF"></path>
                    <path d="M45.6558594,35.9949219 C42.4646484,35.9949219 41.5691406,35.1916016 41.4777344,35.1001953 C41.325293,34.9476563 41.325293,34.7007813 41.4777344,34.5484375 C41.6279297,34.3982422 41.8703125,34.3958984 42.021875,34.5416016 C42.0523437,34.5666992 42.8548828,35.2146484 45.6558594,35.2146484 C48.4994141,35.2146484 49.2829102,34.5469727 49.2905273,34.540918 C49.4474609,34.4005859 49.6929687,34.4051758 49.837793,34.5606445 C49.9826172,34.7138672 49.9833984,34.9508789 49.8339844,35.100293 C49.7425781,35.1916016 48.8469727,35.9949219 45.6558594,35.9949219 Z" id="Path" fill="#00B9FF"></path>
                    <path d="M45.6558594,38.3362305 C42.4646484,38.3362305 41.5691406,37.5328125 41.4777344,37.4414062 C41.325293,37.2889648 41.325293,37.0420898 41.4777344,36.8896484 C41.6279297,36.7395508 41.8703125,36.737207 42.021875,36.8828125 C42.0523437,36.9080078 42.8548828,37.5558594 45.6558594,37.5558594 C48.4994141,37.5558594 49.2829102,36.8881836 49.2905273,36.8821289 C49.4474609,36.7426758 49.6929687,36.7472656 49.837793,36.9019531 C49.9826172,37.0551758 49.9833984,37.2921875 49.8339844,37.4415039 C49.7425781,37.5329102 48.8469727,38.3362305 45.6558594,38.3362305 Z" id="Path" fill="#00B9FF"></path>
                    <path d="M49.5581055,35.2144531 C49.4612305,35.2144531 49.3645508,35.1786133 49.2897461,35.1069336 C49.2592773,35.0817383 48.4567383,34.4338867 45.6558594,34.4338867 C42.812207,34.4338867 42.0287109,35.1015625 42.0210938,35.1075195 C41.8633789,35.2478516 41.6195313,35.2432617 41.4738281,35.087793 C41.3291016,34.9345703 41.3283203,34.6975586 41.4776367,34.5482422 C41.5691406,34.4567383 42.4645508,33.653418 45.6557617,33.653418 C48.846875,33.653418 49.7424805,34.4568359 49.8337891,34.5482422 C49.9863281,34.7006836 49.9863281,34.9475586 49.8337891,35.1 C49.7577148,35.1763672 49.6579102,35.2144531 49.5581055,35.2144531 Z" id="Path" fill="#00B9FF"></path>
                    <path d="M41.7536133,37.5557617 C41.5378906,37.5557617 41.3633789,37.38125 41.3633789,37.1655273 L41.3633789,34.8242188 C41.3633789,34.6084961 41.5378906,34.4339844 41.7536133,34.4339844 C41.9693359,34.4339844 42.1438477,34.6084961 42.1438477,34.8242188 L42.1438477,37.1655273 C42.1438477,37.38125 41.9693359,37.5557617 41.7536133,37.5557617 Z" id="Path" fill="#00B9FF"></path>
                    <path d="M49.5581055,37.5557617 C49.3423828,37.5557617 49.1678711,37.38125 49.1678711,37.1655273 L49.1678711,34.8242188 C49.1678711,34.6084961 49.3423828,34.4339844 49.5581055,34.4339844 C49.7737305,34.4339844 49.9482422,34.6084961 49.9482422,34.8242188 L49.9482422,37.1655273 C49.9482422,37.38125 49.7737305,37.5557617 49.5581055,37.5557617 Z" id="Path" fill="#00B9FF"></path>
                    <path d="M45.6558594,32.0926758 C45.4401367,32.0926758 45.265625,31.9181641 45.265625,31.7025391 L45.265625,30.9220703 C45.265625,30.7063477 45.4401367,30.5318359 45.6558594,30.5318359 C45.871582,30.5318359 46.0460937,30.7063477 46.0460937,30.9220703 L46.0460937,31.7025391 C46.0460937,31.9180664 45.871582,32.0926758 45.6558594,32.0926758 Z" id="Path" fill="#00B9FF"></path>
                    <path d="M47.997168,31.9014648 C47.781543,31.9014648 47.6069336,31.7268555 47.6069336,31.5112305 L47.6069336,30.7414063 C47.6069336,30.5256836 47.781543,30.3511719 47.997168,30.3511719 C48.2128906,30.3511719 48.3874023,30.5256836 48.3874023,30.7414063 L48.3874023,31.5112305 C48.3874023,31.7267578 48.2128906,31.9014648 47.997168,31.9014648 Z" id="Path" fill="#00B9FF"></path>
                    <path d="M43.3145508,31.89375 C43.0989258,31.89375 42.9244141,31.7192383 42.9244141,31.5035156 L42.9244141,30.7306641 C42.9244141,30.5149414 43.0989258,30.3404297 43.3145508,30.3404297 C43.5302734,30.3404297 43.7047852,30.5149414 43.7047852,30.7306641 L43.7047852,31.5035156 C43.7047852,31.7192383 43.5302734,31.89375 43.3145508,31.89375 Z" id="Path" fill="#00B9FF"></path>
                    <path d="M45.6558594,30.5317383 C42.4646484,30.5317383 41.5691406,29.728418 41.4777344,29.6370117 C41.325293,29.4845703 41.325293,29.2375977 41.4777344,29.0852539 C41.6279297,28.9351563 41.8703125,28.9328125 42.021875,29.078418 C42.0523437,29.1036133 42.8548828,29.7514648 45.6558594,29.7514648 C48.4994141,29.7514648 49.2829102,29.0837891 49.2905273,29.0777344 C49.4474609,28.9375 49.6929687,28.9428711 49.837793,29.0975586 C49.9826172,29.2506836 49.9833984,29.487793 49.8339844,29.6371094 C49.7425781,29.7285156 48.8469727,30.5317383 45.6558594,30.5317383 Z" id="Path" fill="#00B9FF"></path>
                    <path d="M45.6558594,32.8731445 C42.4646484,32.8731445 41.5691406,32.0698242 41.4777344,31.9783203 C41.325293,31.8258789 41.325293,31.5790039 41.4777344,31.4265625 C41.6279297,31.2764648 41.8703125,31.2741211 42.021875,31.4198242 C42.0523437,31.4449219 42.8548828,32.0927734 45.6558594,32.0927734 C48.4994141,32.0927734 49.2829102,31.4250977 49.2905273,31.4191406 C49.4474609,31.2795898 49.6929687,31.2841797 49.837793,31.4388672 C49.9826172,31.5920898 49.9833984,31.8291016 49.8339844,31.978418 C49.7425781,32.0698242 48.8469727,32.8731445 45.6558594,32.8731445 Z" id="Path" fill="#00B9FF"></path>
                    <path d="M49.5581055,29.7513672 C49.4612305,29.7513672 49.3645508,29.7155273 49.2897461,29.6438477 C49.2592773,29.6186523 48.4567383,28.9708008 45.6558594,28.9708008 C42.812207,28.9708008 42.0287109,29.6384766 42.0210938,29.6445313 C41.8633789,29.7847656 41.6195313,29.7793945 41.4738281,29.624707 C41.3291016,29.471582 41.3283203,29.2344727 41.4776367,29.0851563 C41.5691406,28.9936523 42.4645508,28.1904297 45.6557617,28.1904297 C48.846875,28.1904297 49.7424805,28.99375 49.8337891,29.0851563 C49.9863281,29.2375977 49.9863281,29.4845703 49.8337891,29.6369141 C49.7577148,29.7131836 49.6579102,29.7513672 49.5581055,29.7513672 Z" id="Path" fill="#00B9FF"></path>
                    <path d="M41.7536133,32.0926758 C41.5378906,32.0926758 41.3633789,31.9181641 41.3633789,31.7025391 L41.3633789,29.3611328 C41.3633789,29.1454102 41.5378906,28.9708984 41.7536133,28.9708984 C41.9693359,28.9708984 42.1438477,29.1454102 42.1438477,29.3611328 L42.1438477,31.7025391 C42.1438477,31.9180664 41.9693359,32.0926758 41.7536133,32.0926758 Z" id="Path" fill="#00B9FF"></path>
                    <path d="M49.5581055,32.0926758 C49.3423828,32.0926758 49.1678711,31.9181641 49.1678711,31.7025391 L49.1678711,29.3611328 C49.1678711,29.1454102 49.3423828,28.9708984 49.5581055,28.9708984 C49.7737305,28.9708984 49.9482422,29.1454102 49.9482422,29.3611328 L49.9482422,31.7025391 C49.9482422,31.9180664 49.7737305,32.0926758 49.5581055,32.0926758 Z" id="Path" fill="#00B9FF"></path>
                    <path d="M45.6558594,26.6295898 C45.4401367,26.6295898 45.265625,26.4549805 45.265625,26.2393555 L45.265625,25.4588867 C45.265625,25.2432617 45.4401367,25.06875 45.6558594,25.06875 C45.871582,25.06875 46.0460937,25.2432617 46.0460937,25.4588867 L46.0460937,26.2393555 C46.0460937,26.4549805 45.871582,26.6295898 45.6558594,26.6295898 Z" id="Path" fill="#00B9FF"></path>
                    <path d="M47.997168,26.4382812 C47.781543,26.4382812 47.6069336,26.2636719 47.6069336,26.0480469 L47.6069336,25.2782227 C47.6069336,25.0625977 47.781543,24.8880859 47.997168,24.8880859 C48.2128906,24.8880859 48.3874023,25.0625977 48.3874023,25.2782227 L48.3874023,26.0480469 C48.3874023,26.2636719 48.2128906,26.4382812 47.997168,26.4382812 Z" id="Path" fill="#00B9FF"></path>
                    <path d="M43.3145508,26.4306641 C43.0989258,26.4306641 42.9244141,26.2561523 42.9244141,26.0404297 L42.9244141,25.2676758 C42.9244141,25.0519531 43.0989258,24.8774414 43.3145508,24.8774414 C43.5302734,24.8774414 43.7047852,25.0519531 43.7047852,25.2676758 L43.7047852,26.0404297 C43.7047852,26.2561523 43.5302734,26.4306641 43.3145508,26.4306641 Z" id="Path" fill="#00B9FF"></path>
                    <path d="M45.6558594,25.06875 C42.4646484,25.06875 41.5691406,24.265332 41.4777344,24.1739258 C41.325293,24.0214844 41.325293,23.7746094 41.4777344,23.622168 C41.6279297,23.4720703 41.8703125,23.4697266 42.021875,23.615332 C42.0523437,23.6405273 42.8548828,24.2883789 45.6558594,24.2883789 C48.4994141,24.2883789 49.2829102,23.6207031 49.2905273,23.6146484 C49.4474609,23.4744141 49.6929687,23.4797852 49.837793,23.6344727 C49.9826172,23.7876953 49.9833984,24.024707 49.8339844,24.1740234 C49.7425781,24.265332 48.8469727,25.06875 45.6558594,25.06875 Z" id="Path" fill="#00B9FF"></path>
                    <path d="M45.6558594,27.4099609 C42.4646484,27.4099609 41.5691406,26.6066406 41.4777344,26.5152344 C41.325293,26.362793 41.325293,26.1158203 41.4777344,25.9634766 C41.6279297,25.8133789 41.8703125,25.8110352 42.021875,25.9566406 C42.0523437,25.9818359 42.8548828,26.6296875 45.6558594,26.6296875 C48.4994141,26.6296875 49.2829102,25.9620117 49.2905273,25.955957 C49.4474609,25.8165039 49.6929687,25.8210938 49.837793,25.9757813 C49.9826172,26.1289063 49.9833984,26.3660156 49.8339844,26.515332 C49.7425781,26.6067383 48.8469727,27.4099609 45.6558594,27.4099609 Z" id="Path" fill="#00B9FF"></path>
                    <path d="M49.5581055,24.2882812 C49.4612305,24.2882812 49.3645508,24.2524414 49.2897461,24.1807617 C49.2592773,24.1556641 48.4567383,23.5077148 45.6558594,23.5077148 C42.812207,23.5077148 42.0287109,24.1753906 42.0210938,24.1814453 C41.8633789,24.3217773 41.6195313,24.3164062 41.4738281,24.1617187 C41.3291016,24.0084961 41.3283203,23.7714844 41.4776367,23.6220703 C41.5691406,23.5305664 42.4645508,22.7273437 45.6557617,22.7273437 C48.846875,22.7273437 49.7424805,23.5306641 49.8337891,23.6220703 C49.9863281,23.7746094 49.9863281,24.0214844 49.8337891,24.1738281 C49.7577148,24.2500977 49.6579102,24.2882812 49.5581055,24.2882812 Z" id="Path" fill="#00B9FF"></path>
                    <path d="M41.7536133,26.6295898 C41.5378906,26.6295898 41.3633789,26.4549805 41.3633789,26.2393555 L41.3633789,23.8979492 C41.3633789,23.6823242 41.5378906,23.5077148 41.7536133,23.5077148 C41.9693359,23.5077148 42.1438477,23.6823242 42.1438477,23.8979492 L42.1438477,26.2393555 C42.1438477,26.4549805 41.9693359,26.6295898 41.7536133,26.6295898 Z" id="Path" fill="#00B9FF"></path>
                    <path d="M49.5581055,26.6295898 C49.3423828,26.6295898 49.1678711,26.4549805 49.1678711,26.2393555 L49.1678711,23.8979492 C49.1678711,23.6823242 49.3423828,23.5077148 49.5581055,23.5077148 C49.7737305,23.5077148 49.9482422,23.6823242 49.9482422,23.8979492 L49.9482422,26.2393555 C49.9482422,26.4549805 49.7737305,26.6295898 49.5581055,26.6295898 Z" id="Path" fill="#00B9FF"></path>
                    <path d="M44.0950195,7.89931641 C44.0035156,7.89931641 43.9121094,7.86728516 43.8381836,7.80253906 C43.6757813,7.66074219 43.659082,7.41455078 43.8015625,7.25224609 L49.2645508,1.00869141 C49.4063477,0.845605469 49.6532227,0.831152344 49.8148438,0.972070312 C49.9772461,1.11386719 49.994043,1.36005859 49.8514648,1.52236328 L44.3884766,7.76591797 C44.3114258,7.85439453 44.2032227,7.89931641 44.0950195,7.89931641 Z" id="Path" fill="#00B9FF"></path>
                    <path d="M49.5588867,1.65585938 C49.5458984,1.65585938 49.5322266,1.65507813 49.5192383,1.65361328 L41.7147461,0.873144531 C41.5006836,0.851855469 41.3435547,0.660546875 41.3657227,0.446386719 C41.3871094,0.232226563 41.5830078,0.0706054688 41.7925781,0.097265625 L49.5969727,0.877734375 C49.8111328,0.899121094 49.9681641,1.09042969 49.9459961,1.30458984 C49.9262695,1.50566406 49.75625,1.65585938 49.5588867,1.65585938 Z" id="Path" fill="#00B9FF"></path>
                    <path d="M3.51201172,31.312207 C3.39462891,31.312207 3.27880859,31.2595703 3.20185547,31.159082 C3.07080078,30.9875 3.10429688,30.7420898 3.27509766,30.6118164 C26.9039062,12.5858398 42.9875977,4.89033203 43.1476562,4.81494141 C43.3412109,4.72421875 43.5744141,4.80498047 43.6673828,5.00087891 C43.7595703,5.19521484 43.6765625,5.42841797 43.4814453,5.52070313 C43.322168,5.59609375 27.3048828,13.2611328 3.74912109,31.2322266 C3.678125,31.2863281 3.59511719,31.312207 3.51201172,31.312207 Z" id="Path" fill="#00B9FF"></path>
                    <path d="M0.390234375,27.4099609 C0.266796875,27.4099609 0.144042969,27.3505859 0.0686523437,27.2408203 C-0.0533203125,27.0632812 -0.0083984375,26.8200195 0.169238281,26.6981445 C24.8918945,9.70175781 42.2139648,2.53535156 42.3862305,2.46523438 C42.5867187,2.38447266 42.8137695,2.47900391 42.8954102,2.67861328 C42.9769531,2.87832031 42.8816406,3.10615234 42.6819336,3.18769531 C42.5104492,3.2578125 25.2583984,10.396875 0.611328125,27.3414063 C0.543457031,27.3878906 0.466503906,27.4099609 0.390234375,27.4099609 Z" id="Path" fill="#00B9FF"></path>
                    <path d="M3.51279297,31.312207 C3.48691406,31.312207 3.46103516,31.3099609 3.43583984,31.3045898 C3.22392578,31.2625977 3.08681641,31.0568359 3.12939453,30.8458008 L3.90986328,26.9435547 C3.95253906,26.730957 4.16748047,26.5945313 4.36865234,26.6371094 C4.58046875,26.6791016 4.71767578,26.8848633 4.675,27.0959961 L3.89453125,30.9981445 C3.85732422,31.1841797 3.69492188,31.312207 3.51279297,31.312207 Z" id="Path" fill="#00B9FF"></path>
                    <path d="M4.29248047,27.4099609 L0.390234375,27.4099609 C0.174609375,27.4099609 0,27.2354492 0,27.0197266 C0,26.8041016 0.174609375,26.6295898 0.390234375,26.6295898 L4.29248047,26.6295898 C4.50810547,26.6295898 4.68271484,26.8041016 4.68271484,27.0197266 C4.68271484,27.2354492 4.50810547,27.4099609 4.29248047,27.4099609 Z" id="Path" fill="#00B9FF"></path>
                    <path d="M45.6558594,20.3864258 C43.2894531,20.3864258 41.3633789,18.4604492 41.3633789,16.0939453 C41.3633789,13.7274414 43.2894531,11.8022461 45.6558594,11.8022461 C48.0222656,11.8022461 49.9482422,13.7274414 49.9482422,16.0939453 C49.9482422,18.4604492 48.0223633,20.3864258 45.6558594,20.3864258 Z M45.6558594,12.5827148 C43.7192383,12.5827148 42.1438477,14.1581055 42.1438477,16.0939453 C42.1438477,18.0305664 43.7192383,19.605957 45.6558594,19.605957 C47.5924805,19.605957 49.1678711,18.0305664 49.1678711,16.0939453 C49.1678711,14.1581055 47.5924805,12.5827148 45.6558594,12.5827148 Z" id="Shape" fill="#00B9FF" fill-rule="nonzero"></path>
                    <path d="M45.6558594,21.9473633 C43.2894531,21.9473633 41.3633789,20.0212891 41.3633789,17.6548828 C41.3633789,17.4392578 41.5378906,17.2646484 41.7536133,17.2646484 C41.9693359,17.2646484 42.1438477,17.4392578 42.1438477,17.6548828 C42.1438477,19.5915039 43.7192383,21.1668945 45.6558594,21.1668945 C47.5924805,21.1668945 49.1678711,19.5915039 49.1678711,17.6548828 C49.1678711,17.4392578 49.3423828,17.2646484 49.5581055,17.2646484 C49.7737305,17.2646484 49.9482422,17.4392578 49.9482422,17.6548828 C49.9482422,20.0212891 48.0223633,21.9473633 45.6558594,21.9473633 Z" id="Path" fill="#00B9FF"></path>
                    <path d="M41.7536133,18.0451172 C41.5378906,18.0451172 41.3633789,17.8706055 41.3633789,17.6548828 L41.3633789,16.094043 C41.3633789,15.8783203 41.5378906,15.7038086 41.7536133,15.7038086 C41.9693359,15.7038086 42.1438477,15.8783203 42.1438477,16.094043 L42.1438477,17.6548828 C42.1438477,17.8706055 41.9693359,18.0451172 41.7536133,18.0451172 Z" id="Path" fill="#00B9FF"></path>
                    <path d="M49.5581055,18.0451172 C49.3423828,18.0451172 49.1678711,17.8706055 49.1678711,17.6548828 L49.1678711,16.094043 C49.1678711,15.8783203 49.3423828,15.7038086 49.5581055,15.7038086 C49.7737305,15.7038086 49.9482422,15.8783203 49.9482422,16.094043 L49.9482422,17.6548828 C49.9482422,17.8706055 49.7737305,18.0451172 49.5581055,18.0451172 Z" id="Path" fill="#00B9FF"></path>
                    <path d="M47.997168,21.1668945 C47.781543,21.1668945 47.6069336,20.9923828 47.6069336,20.7766602 L47.6069336,19.2165039 C47.6069336,19.0008789 47.781543,18.8262695 47.997168,18.8262695 C48.2128906,18.8262695 48.3874023,19.0008789 48.3874023,19.2165039 L48.3874023,20.7766602 C48.3874023,20.9923828 48.2128906,21.1668945 47.997168,21.1668945 Z" id="Path" fill="#00B9FF"></path>
                    <path d="M45.6558594,21.9473633 C45.4401367,21.9473633 45.265625,21.7727539 45.265625,21.5571289 L45.265625,19.9962891 C45.265625,19.7805664 45.4401367,19.6060547 45.6558594,19.6060547 C45.871582,19.6060547 46.0460937,19.7805664 46.0460937,19.9962891 L46.0460937,21.5571289 C46.0460937,21.7727539 45.871582,21.9473633 45.6558594,21.9473633 Z" id="Path" fill="#00B9FF"></path>
                    <path d="M43.3152344,21.1668945 C43.0996094,21.1668945 42.9250977,20.9923828 42.9250977,20.7766602 L42.9250977,19.2165039 C42.9250977,19.0008789 43.0996094,18.8262695 43.3152344,18.8262695 C43.530957,18.8262695 43.7054687,19.0008789 43.7054687,19.2165039 L43.7054687,20.7766602 C43.7055664,20.9923828 43.530957,21.1668945 43.3152344,21.1668945 Z" id="Path" fill="#00B9FF"></path>
                    <path d="M45.6558594,18.0451172 C45.4401367,18.0451172 45.265625,17.8706055 45.265625,17.6548828 L45.265625,14.5331055 C45.265625,14.3173828 45.4401367,14.1428711 45.6558594,14.1428711 C45.871582,14.1428711 46.0460937,14.3173828 46.0460937,14.5331055 L46.0460937,17.6548828 C46.0460937,17.8706055 45.871582,18.0451172 45.6558594,18.0451172 Z" id="Path" fill="#00B9FF"></path>
                </g>
            </g>
        </g>
    </g>
</svg>