
<svg width="12px" height="12px" viewBox="0 0 12 12" version="1.1" xmlns="http://www.w3.org/2000/svg" xmlns:xlink="http://www.w3.org/1999/xlink">
    <g id="Page-1" stroke="none" stroke-width="1" fill="none" fill-rule="evenodd">
        <g id="5-Dashboard-Library" transform="translate(-380.000000, -138.000000)" fill="#829CA9" fill-rule="nonzero">
            <path d="M384.8,138 C382.154719,138 380,140.154719 380,142.8 C380,145.445281 382.154719,147.6 384.8,147.6 C385.950324,147.6 387.006745,147.191513 387.834688,146.513437 L390.700625,149.379375 C390.821017,149.50477 390.999793,149.555283 391.168005,149.511432 C391.336218,149.467581 391.467581,149.336218 391.511432,149.168005 C391.555283,148.999793 391.50477,148.821017 391.379375,148.700625 L388.513437,145.834688 C389.191513,145.006745 389.6,143.950324 389.6,142.8 C389.6,140.154719 387.445281,138 384.8,138 Z M384.8,138.96 C386.926459,138.96 388.64,140.673541 388.64,142.8 C388.64,144.926459 386.926459,146.64 384.8,146.64 C382.673541,146.64 380.96,144.926459 380.96,142.8 C380.96,140.673541 382.673541,138.96 384.8,138.96 Z" id="Shape"></path>
        </g>
    </g>
</svg>