
<svg width="12px" height="13px" viewBox="0 0 12 13" version="1.1" xmlns="http://www.w3.org/2000/svg" xmlns:xlink="http://www.w3.org/1999/xlink">
    <g id="Page-1" stroke="none" stroke-width="1" fill="none" fill-rule="evenodd">
        <g id="6-Settings" transform="translate(-712.000000, -907.000000)" fill="#9292A9" fill-rule="nonzero">
            <g id="Group" transform="translate(419.000000, 891.000000)">
                <path d="M299,16 C296.796875,16 295,17.796875 295,20 L295,21 L294.5,21 C293.675781,21 293,21.675781 293,22.5 L293,27.5 C293,28.324219 293.675781,29 294.5,29 L303.5,29 C304.324219,29 305,28.324219 305,27.5 L305,22.5 C305,21.675781 304.324219,21 303.5,21 L303,21 L303,20 C303,17.796875 301.203125,16 299,16 Z M299,17 C300.664063,17 302,18.335938 302,20 L302,21 L296,21 L296,20 C296,18.335938 297.335938,17 299,17 Z M294.5,22 L303.5,22 C303.78125,22 304,22.21875 304,22.5 L304,27.5 C304,27.78125 303.78125,28 303.5,28 L294.5,28 C294.21875,28 294,27.78125 294,27.5 L294,22.5 C294,22.21875 294.21875,22 294.5,22 Z" id="Shape"></path>
            </g>
        </g>
    </g>
</svg>