<svg xmlns="http://www.w3.org/2000/svg" width="13" height="13" viewBox="0 0 13 13">
    <path fill="#01b5fa" fill-rule="nonzero" d="M1.5 0C.677 0 0 .677 0 1.5v10c0 .823.677 1.5 1.5 1.5h10c.823 0 1.5-.677 1.5-1.5v-10c0-.823-.677-1.5-1.5-1.5h-10zm0 1h10c.281 0 .5.219.5.5v10c0 .281-.219.5-.5.5h-10a.493.493 0 0 1-.5-.5v-10c0-.281.219-.5.5-.5zM6 2v1.05c-.59.087-1.13.315-1.586.657l-.685-.686-.708.708.686.685c-.342.457-.57.997-.656 1.586H2v1h1.05c.087.59.315 1.13.657 1.586l-.686.685.708.708.685-.686c.457.342.997.57 1.586.656V11h1V9.95a3.468 3.468 0 0 0 1.586-.657l.685.686.708-.708-.686-.685c.342-.457.57-.997.656-1.586H11V6H9.95a3.468 3.468 0 0 0-.657-1.586l.686-.685-.708-.708-.685.686A3.468 3.468 0 0 0 7 3.051V2H6zm.5 2C7.887 4 9 5.113 9 6.5S7.887 9 6.5 9A2.492 2.492 0 0 1 4 6.5C4 5.113 5.113 4 6.5 4zm0 1C5.677 5 5 5.677 5 6.5S5.677 8 6.5 8 8 7.323 8 6.5 7.323 5 6.5 5zm0 1c.282 0 .5.218.5.5 0 .282-.218.5-.5.5a.493.493 0 0 1-.5-.5c0-.282.218-.5.5-.5z"/>
</svg>
