<svg xmlns="http://www.w3.org/2000/svg" width="14" height="13" viewBox="0 0 14 13">
    <path fill="#FFF" fill-rule="nonzero" d="M1.5 0C.676 0 0 .676 0 1.5S.676 3 1.5 3c.23 0 .445-.059.64-.152l2.278 2.277a2.427 2.427 0 0 0-.145 2.484L2.277 9.223A1.504 1.504 0 0 0 1.5 9C.676 9 0 9.676 0 10.5S.676 12 1.5 12 3 11.324 3 10.5a1.4 1.4 0 0 0-.094-.496l1.985-1.61C5.328 8.767 5.887 9 6.5 9c.27 0 .523-.055.766-.133l1.066 1.707A1.488 1.488 0 0 0 8 11.5c0 .824.676 1.5 1.5 1.5s1.5-.676 1.5-1.5a1.505 1.505 0 0 0-1.824-1.465L8.14 8.371c.332-.293.586-.672.726-1.105l2.153.441C11.125 8.434 11.75 9 12.5 9c.824 0 1.5-.676 1.5-1.5S13.324 6 12.5 6a1.51 1.51 0 0 0-1.277.727l-2.246-.461a2.475 2.475 0 0 0-.844-1.641l1.039-1.664c.105.023.215.039.328.039.824 0 1.5-.676 1.5-1.5S10.324 0 9.5 0 8 .676 8 1.5c0 .348.125.668.328.922l-1.066 1.71A2.476 2.476 0 0 0 6.5 4c-.508 0-.98.156-1.375.418L2.848 2.141C2.94 1.945 3 1.73 3 1.5 3 .676 2.324 0 1.5 0zm0 1c.281 0 .5.219.5.5s-.219.5-.5.5a.494.494 0 0 1-.5-.5c0-.281.219-.5.5-.5zm8 0c.281 0 .5.219.5.5s-.219.5-.5.5a.494.494 0 0 1-.5-.5c0-.281.219-.5.5-.5zm-3 4C7.336 5 8 5.664 8 6.5c0 .54-.281 1.004-.703 1.27a.498.498 0 0 0-.14.078C6.956 7.94 6.733 8 6.5 8A1.49 1.49 0 0 1 5 6.5C5 5.664 5.664 5 6.5 5zm6 2c.281 0 .5.219.5.5s-.219.5-.5.5a.494.494 0 0 1-.5-.5c0-.281.219-.5.5-.5zm-11 3c.281 0 .5.219.5.5s-.219.5-.5.5a.494.494 0 0 1-.5-.5c0-.281.219-.5.5-.5zm8 1c.281 0 .5.219.5.5s-.219.5-.5.5a.494.494 0 0 1-.5-.5c0-.281.219-.5.5-.5z"/>
</svg>
