
<svg width="50px" height="46px" viewBox="0 0 50 46" version="1.1" xmlns="http://www.w3.org/2000/svg" xmlns:xlink="http://www.w3.org/1999/xlink">
    <g id="Page-1" stroke="none" stroke-width="1" fill="none" fill-rule="evenodd">
        <g id="2-Dashboard-Autopilot-What-do-you-want-to-achieve?" transform="translate(-845.000000, -437.000000)">
            <g id="traffic" transform="translate(845.000000, 437.000000)">
                <rect id="Rectangle" fill="#CCF1FF" x="1.95107422" y="5.16845703" width="46.0458984" height="29.6572266"></rect>
                <rect id="Rectangle" fill="#CCF1FF" x="0.390234375" y="2.04638672" width="49.1679688" height="3.12177734"></rect>
                <g id="Group" transform="translate(24.121094, 0.390625)" fill="#EAE7F0">
                    <rect id="Rectangle" x="0.0727539063" y="0.0952148438" width="1.56083984" height="1.56083984"></rect>
                </g>
                <g id="Group" transform="translate(11.230469, 38.085938)" fill="#CCF1FF">
                    <polygon id="Path" points="13.7436523 1.61669922 3.20771484 6.88466797 0.0859375 6.88466797 13.7436523 0.0557617188"></polygon>
                    <polygon id="Path" points="13.7436523 1.61669922 24.2796875 6.88466797 27.4013672 6.88466797 13.7436523 0.0557617188"></polygon>
                </g>
                <rect id="Rectangle" fill="#FFFFFF" x="29.2661133" y="9.85107422" width="14.828125" height="13.2675781"></rect>
                <g id="Group" transform="translate(6.542969, 10.937500)">
                    <path d="M13.3583008,4.76660156 L13.3583008,6.32744141 C13.3583008,9.98759766 10.3847656,12.9612305 6.72451172,12.9612305 C3.06435547,12.9612305 0.0907226562,9.98759766 0.0907226562,6.32744141 L0.0907226562,4.76660156 C0.0907226562,8.42675781 3.06425781,11.4003906 6.72451172,11.4003906 C10.3847656,11.400293 13.3583008,8.42675781 13.3583008,4.76660156 Z" id="Path" fill="#7DDBFF"></path>
                    <path d="M4.11005859,5.53134766 C4.43769531,6.67070312 5.48378906,7.49804688 6.72451172,7.49804688 L6.72451172,11.400293 C3.06435547,11.400293 0.0907226563,8.42675781 0.0907226563,4.76650391 C0.0907226563,2.93232422 0.832324219,1.27011719 2.03417969,0.076171875 L4.77333984,2.81533203 L4.79658203,2.83857422 C4.29736328,3.33046875 3.99296875,4.0171875 3.99296875,4.76640625 C3.99296875,5.03183594 4.03183594,5.28935547 4.11005859,5.53134766 Z" id="Path" fill="#CCF1FF"></path>
                </g>
                <path d="M15.8820312,16.4688477 C15.9601562,16.2268555 15.9990234,15.9692383 15.9990234,15.7040039 C15.9990234,14.1975586 14.7738281,12.9723633 13.2673828,12.9723633 C12.5182617,12.9723633 11.831543,13.2768555 11.3395508,13.7760742 L11.3163086,13.752832 L8.57714844,11.0136719 C9.77871094,9.81181641 11.4413086,9.07021484 13.2673828,9.07021484 C16.9276367,9.07021484 19.9011719,12.0357422 19.9011719,15.7040039 C19.9011719,19.3641602 16.9276367,22.337793 13.2673828,22.337793 L13.2673828,18.4355469 C14.5083008,18.4355469 15.5543945,17.6083008 15.8820312,16.4688477 Z" id="Path" fill="#CCF1FF"></path>
                <path d="M13.2674805,9.0703125 C13.003418,9.0703125 12.7439453,9.09013672 12.4878906,9.12021484 C15.7799805,9.50703125 18.3404297,12.3010742 18.3404297,15.7041016 C18.3404297,19.0998047 15.7795898,21.9003906 12.4871094,22.2878906 C12.7435547,22.3180664 13.0030273,22.3378906 13.2674805,22.3378906 C16.9277344,22.3378906 19.9012695,19.3643555 19.9012695,15.7041016 C19.9012695,12.0358398 16.9277344,9.0703125 13.2674805,9.0703125 Z" id="Path" fill="#7DDBFF"></path>
                <g id="Group" transform="translate(0.292969, 1.953125)">
                    <path d="M7.90166016,13.7509766 C7.90166016,11.9167969 8.64326172,10.2545898 9.84511719,9.06064453 C10.8728516,8.03251953 12.2394531,7.34541016 13.7557617,7.16708984 C13.4989258,7.13701172 13.2393555,7.1171875 12.9745117,7.1171875 C11.1484375,7.1171875 9.48574219,7.85878906 8.28427734,9.06064453 C7.08232422,10.2545898 6.34082031,11.9167969 6.34082031,13.7509766 C6.34082031,17.4111328 9.31435547,20.3847656 12.9746094,20.3847656 C13.2390625,20.3847656 13.4986328,20.3649414 13.7550781,20.3347656 C10.4625,19.947168 7.90166016,17.1466797 7.90166016,13.7509766 Z" id="Path" fill="#7DDBFF"></path>
                    <path d="M15.7061523,13.7509766 C15.7061523,14.0162109 15.6672852,14.2738281 15.5891602,14.5158203 C15.253418,13.3919922 14.2077148,12.5803711 12.9746094,12.5803711 C11.7415039,12.5803711 10.6958008,13.3920898 10.3601562,14.5158203 C10.2820312,14.2738281 10.2431641,14.0162109 10.2431641,13.7509766 C10.2431641,13.0017578 10.5476562,12.3150391 11.0467773,11.8231445 C11.5387695,11.3239258 12.2254883,11.0194336 12.9746094,11.0194336 C14.480957,11.0193359 15.7061523,12.2445312 15.7061523,13.7509766 Z" id="Path" fill="#7DDBFF"></path>
                    <path d="M19.6083008,15.3118164 L19.6083008,13.7509766 C19.6083008,17.4111328 16.6347656,20.3847656 12.9745117,20.3847656 L12.9745117,21.9457031 C16.6347656,21.9456055 19.6083008,18.9720703 19.6083008,15.3118164 Z" id="Path" fill="#7DDBFF"></path>
                    <rect id="Rectangle" fill="#FFFFFF" x="0.097265625" y="0.0932617187" width="1.56083984" height="3.12177734"></rect>
                </g>
                <rect id="Rectangle" fill="#FFFFFF" x="1.95107422" y="5.16845703" width="1.56083984" height="29.6572266"></rect>
                <rect id="Rectangle" fill="#7DDBFF" x="46.4360352" y="5.16845703" width="1.56083984" height="29.6572266"></rect>
                <rect id="Rectangle" fill="#7DDBFF" x="47.9975586" y="2.04638672" width="1.5609375" height="3.12177734"></rect>
                <g id="Group">
                    <path d="M13.2674805,22.7280273 C9.39462891,22.7280273 6.24355469,19.5769531 6.24355469,15.7041016 C6.24355469,13.8196289 6.97480469,12.0556641 8.30214844,10.7371094 C9.62792969,9.4109375 11.3916016,8.68007813 13.2675781,8.68007813 C17.1404297,8.68007813 20.2916016,11.83125 20.2916016,15.7041016 C20.2916016,19.5769531 17.140332,22.7280273 13.2674805,22.7280273 Z M13.2674805,9.46054688 C11.5999023,9.46054688 10.0326172,10.1102539 8.853125,11.2896484 C7.67333984,12.4618164 7.02402344,14.0291992 7.02402344,15.7041016 C7.02402344,19.1466797 9.825,21.9476563 13.2675781,21.9476563 C16.7102539,21.9476563 19.5111328,19.1466797 19.5111328,15.7041016 C19.5110352,12.2614258 16.7101562,9.46054688 13.2674805,9.46054688 Z" id="Shape" fill="#00B9FF" fill-rule="nonzero"></path>
                    <path d="M13.2674805,24.2887695 C9.39462891,24.2887695 6.24355469,21.137793 6.24355469,17.2649414 C6.24355469,17.0492188 6.41806641,16.874707 6.63378906,16.874707 C6.84951172,16.874707 7.02402344,17.0492188 7.02402344,17.2649414 C7.02402344,20.7075195 9.825,23.5084961 13.2675781,23.5084961 C16.7102539,23.5084961 19.5111328,20.7075195 19.5111328,17.2649414 C19.5111328,17.0492188 19.6856445,16.874707 19.9013672,16.874707 C20.1170898,16.874707 20.2916016,17.0492188 20.2916016,17.2649414 C20.2915039,21.137793 17.140332,24.2887695 13.2674805,24.2887695 Z" id="Path" fill="#00B9FF"></path>
                    <path d="M6.63369141,17.6551758 C6.41806641,17.6551758 6.24345703,17.4806641 6.24345703,17.2649414 L6.24345703,15.7041016 C6.24345703,15.4883789 6.41796875,15.3138672 6.63369141,15.3138672 C6.84941406,15.3138672 7.02392578,15.4883789 7.02392578,15.7041016 L7.02392578,17.2649414 C7.02392578,17.4806641 6.84941406,17.6551758 6.63369141,17.6551758 Z" id="Path" fill="#00B9FF"></path>
                    <path d="M19.9012695,17.6551758 C19.6856445,17.6551758 19.5110352,17.4806641 19.5110352,17.2649414 L19.5110352,15.7041016 C19.5110352,15.4883789 19.6855469,15.3138672 19.9012695,15.3138672 C20.1169922,15.3138672 20.2915039,15.4883789 20.2915039,15.7041016 L20.2915039,17.2649414 C20.2915039,17.4806641 20.1169922,17.6551758 19.9012695,17.6551758 Z" id="Path" fill="#00B9FF"></path>
                    <path d="M13.2674805,18.8258789 C11.8879883,18.8258789 10.6586914,17.9009766 10.2780273,16.5767578 C10.1915039,16.309668 10.1458008,16.0120117 10.1458008,15.7041016 C10.1458008,14.8665039 10.4723633,14.0829102 11.0657227,13.4984375 C11.6464844,12.9088867 12.4299805,12.5823242 13.2675781,12.5823242 C14.9888672,12.5823242 16.3893555,13.9828125 16.3893555,15.7041016 C16.3893555,16.0119141 16.3436523,16.3095703 16.2533203,16.5889648 C15.8763672,17.9009766 14.6469727,18.8258789 13.2674805,18.8258789 Z M13.2674805,13.3626953 C12.6402344,13.3626953 12.0545898,13.6069336 11.6174805,14.0501953 C11.1705078,14.4911133 10.9262695,15.0767578 10.9262695,15.7041016 C10.9262695,15.9303711 10.959375,16.1472656 11.0242187,16.3489258 C11.3133789,17.3526367 12.234082,18.0454102 13.2675781,18.0454102 C14.3010742,18.0454102 15.2217773,17.3526367 15.5072266,16.3610352 C15.5757813,16.1472656 15.6089844,15.9303711 15.6089844,15.7041016 C15.6088867,14.4129883 14.5585938,13.3626953 13.2674805,13.3626953 Z" id="Shape" fill="#00B9FF" fill-rule="nonzero"></path>
                    <path d="M15.8897461,16.8743164 C15.7323242,16.8743164 15.5962891,16.780957 15.5349609,16.6464844 C15.5239258,16.6251953 15.5151367,16.6030273 15.5083008,16.5805664 C15.2167969,15.6050781 14.2953125,14.9236328 13.2675781,14.9236328 C12.2398437,14.9236328 11.318457,15.6050781 11.0268555,16.5805664 C11.0196289,16.6049805 11.0101562,16.6282227 10.9986328,16.650293 C10.9361328,16.7829102 10.8012695,16.8743164 10.6454102,16.8743164 L10.6454102,16.8743164 C10.4296875,16.8743164 10.2551758,16.6998047 10.2551758,16.4844727 C10.2551758,16.4345703 10.2666016,16.381543 10.2868164,16.3324219 C10.6841797,15.0420898 11.905957,14.1431641 13.2674805,14.1431641 C14.6291016,14.1431641 15.8507813,15.0420898 16.2482422,16.3324219 C16.268457,16.381543 16.2798828,16.4345703 16.2798828,16.4844727 C16.2798828,16.6998047 16.1053711,16.8743164 15.8897461,16.8743164 Z" id="Path" fill="#00B9FF"></path>
                    <path d="M11.3164062,14.1431641 C11.2166016,14.1431641 11.1166992,14.1049805 11.0405273,14.0288086 L8.30136719,11.2896484 C8.14892578,11.137207 8.14892578,10.890332 8.30136719,10.7378906 C8.45380859,10.5854492 8.70078125,10.5854492 8.853125,10.7378906 L11.5922852,13.4770508 C11.7447266,13.6294922 11.7447266,13.8763672 11.5922852,14.0288086 C11.5160156,14.1050781 11.4162109,14.1431641 11.3164062,14.1431641 Z" id="Path" fill="#00B9FF"></path>
                    <path d="M13.2674805,22.7280273 C13.0518555,22.7280273 12.8772461,22.553418 12.8772461,22.337793 L12.8772461,18.4355469 C12.8772461,18.2199219 13.0517578,18.0453125 13.2674805,18.0453125 C13.4832031,18.0453125 13.6577148,18.2199219 13.6577148,18.4355469 L13.6577148,22.337793 C13.6577148,22.553418 13.4832031,22.7280273 13.2674805,22.7280273 Z" id="Path" fill="#00B9FF"></path>
                    <path d="M25.7545898,2.43652344 C25.5388672,2.43652344 25.3643555,2.26191406 25.3643555,2.04628906 L25.3643555,0.875683594 L24.5838867,0.875683594 L24.5838867,2.04628906 C24.5838867,2.26191406 24.4092773,2.43652344 24.1936523,2.43652344 C23.9779297,2.43652344 23.803418,2.26191406 23.803418,2.04628906 L23.803418,0.485449219 C23.803418,0.269726563 23.9779297,0.0952148438 24.1936523,0.0952148438 L25.7544922,0.0952148438 C25.9702148,0.0952148438 26.1447266,0.269726563 26.1447266,0.485449219 L26.1447266,2.04628906 C26.1448242,2.26201172 25.9703125,2.43652344 25.7545898,2.43652344 Z" id="Path" fill="#00B9FF"></path>
                    <path d="M47.997168,35.2150391 L1.95107422,35.2150391 C1.73544922,35.2150391 1.56083984,35.0405273 1.56083984,34.8248047 L1.56083984,5.16806641 C1.56083984,4.95244141 1.73544922,4.77783203 1.95107422,4.77783203 C2.16679687,4.77783203 2.34130859,4.95244141 2.34130859,5.16806641 L2.34130859,34.4345703 L47.6069336,34.4345703 L47.6069336,5.16806641 C47.6069336,4.95244141 47.781543,4.77783203 47.997168,4.77783203 C48.2128906,4.77783203 48.3874023,4.95244141 48.3874023,5.16806641 L48.3874023,34.8248047 C48.3874023,35.0405273 48.2128906,35.2150391 47.997168,35.2150391 Z" id="Path" fill="#00B9FF"></path>
                    <path d="M49.5581055,5.55830078 L0.390234375,5.55830078 C0.174609375,5.55830078 0,5.38378906 0,5.16806641 L0,2.04628906 C0,1.83056641 0.174609375,1.65605469 0.390234375,1.65605469 L49.5581055,1.65605469 C49.7737305,1.65605469 49.9482422,1.83056641 49.9482422,2.04628906 L49.9482422,5.16806641 C49.9482422,5.38378906 49.7737305,5.55830078 49.5581055,5.55830078 Z M0.78046875,4.77783203 L49.1678711,4.77783203 L49.1678711,2.43652344 L0.78046875,2.43652344 L0.78046875,4.77783203 Z" id="Shape" fill="#00B9FF" fill-rule="nonzero"></path>
                    <path d="M47.2167969,3.99746094 L2.73154297,3.99746094 C2.51582031,3.99746094 2.34130859,3.82294922 2.34130859,3.60722656 C2.34130859,3.39150391 2.51582031,3.21699219 2.73154297,3.21699219 L47.2166992,3.21699219 C47.4323242,3.21699219 47.6068359,3.39150391 47.6068359,3.60722656 C47.6068359,3.82294922 47.4324219,3.99746094 47.2167969,3.99746094 Z" id="Path" fill="#00B9FF"></path>
                    <path d="M35.5101562,45.3608398 C35.4506836,45.3608398 35.3912109,45.3470703 35.3356445,45.3196289 L24.7996094,40.0517578 C24.6067383,39.9556641 24.5287109,39.7209961 24.6250977,39.5282227 C24.7214844,39.3354492 24.95625,39.2583008 25.1486328,39.3537109 L35.684668,44.621582 C35.8775391,44.7176758 35.9552734,44.9523438 35.8591797,45.1451172 C35.790625,45.2816406 35.6533203,45.3608398 35.5101562,45.3608398 Z" id="Path" fill="#00B9FF"></path>
                    <path d="M38.6318359,45.3608398 C38.5724609,45.3608398 38.5128906,45.3470703 38.4573242,45.3196289 L24.7996094,38.4907227 C24.6067383,38.3948242 24.5287109,38.1599609 24.6250977,37.9671875 C24.7214844,37.7744141 24.95625,37.6966797 25.1486328,37.7926758 L38.8063477,44.621582 C38.9992187,44.7176758 39.0769531,44.9523437 38.9808594,45.1451172 C38.9124023,45.2816406 38.7750977,45.3608398 38.6318359,45.3608398 Z" id="Path" fill="#00B9FF"></path>
                    <path d="M38.6318359,45.3608398 L35.5100586,45.3608398 C35.2943359,45.3608398 35.1198242,45.1863281 35.1198242,44.9706055 C35.1198242,44.7548828 35.2943359,44.5803711 35.5100586,44.5803711 L38.6318359,44.5803711 C38.8475586,44.5803711 39.0220703,44.7548828 39.0220703,44.9706055 C39.0220703,45.1863281 38.8475586,45.3608398 38.6318359,45.3608398 Z" id="Path" fill="#00B9FF"></path>
                    <path d="M14.4385742,45.3608398 C14.2953125,45.3608398 14.1577148,45.2816406 14.0890625,45.1451172 C13.9926758,44.9522461 14.0708008,44.7176758 14.2636719,44.621582 L24.7996094,39.3537109 C24.9928711,39.2583008 25.2264648,39.3353516 25.3231445,39.5282227 C25.4196289,39.7210938 25.3415039,39.9556641 25.1486328,40.0517578 L14.6126953,45.3196289 C14.5566406,45.3470703 14.4972656,45.3608398 14.4385742,45.3608398 Z" id="Path" fill="#00B9FF"></path>
                    <path d="M11.3167969,45.3608398 C11.1735352,45.3608398 11.0359375,45.2816406 10.9672852,45.1451172 C10.8708984,44.9522461 10.9490234,44.7176758 11.1417969,44.621582 L24.7995117,37.7926758 C24.9927734,37.6967773 25.2263672,37.7743164 25.3230469,37.9671875 C25.4195312,38.1600586 25.3414062,38.3948242 25.1485352,38.4907227 L11.4908203,45.3196289 C11.4348633,45.3470703 11.3754883,45.3608398 11.3167969,45.3608398 Z" id="Path" fill="#00B9FF"></path>
                    <path d="M14.4381836,45.3608398 L11.3164062,45.3608398 C11.1007812,45.3608398 10.9261719,45.1863281 10.9261719,44.9706055 C10.9261719,44.7548828 11.1006836,44.5803711 11.3164062,44.5803711 L14.4381836,44.5803711 C14.6538086,44.5803711 14.828418,44.7548828 14.828418,44.9706055 C14.828418,45.1863281 14.6538086,45.3608398 14.4381836,45.3608398 Z" id="Path" fill="#00B9FF"></path>
                    <path d="M24.19375,38.922168 C23.9780273,38.922168 23.8035156,38.7476562 23.8035156,38.5319336 L23.8035156,34.8248047 C23.8035156,34.609082 23.9780273,34.4345703 24.19375,34.4345703 C24.409375,34.4345703 24.5839844,34.609082 24.5839844,34.8248047 L24.5839844,38.5319336 C24.5838867,38.7476562 24.409375,38.922168 24.19375,38.922168 Z" id="Path" fill="#00B9FF"></path>
                    <path d="M25.7545898,38.922168 C25.5388672,38.922168 25.3643555,38.7476562 25.3643555,38.5319336 L25.3643555,34.8248047 C25.3643555,34.609082 25.5388672,34.4345703 25.7545898,34.4345703 C25.9703125,34.4345703 26.1448242,34.609082 26.1448242,34.8248047 L26.1448242,38.5319336 C26.1448242,38.7476562 25.9703125,38.922168 25.7545898,38.922168 Z" id="Path" fill="#00B9FF"></path>
                    <path d="M24.9741211,32.8738281 C24.7584961,32.8738281 24.5838867,32.6993164 24.5838867,32.4835937 L24.5838867,7.50947266 C24.5838867,7.29375 24.7583984,7.11923828 24.9741211,7.11923828 C25.1898438,7.11923828 25.3643555,7.29375 25.3643555,7.50947266 L25.3643555,32.4835937 C25.3643555,32.6992187 25.1898438,32.8738281 24.9741211,32.8738281 Z" id="Path" fill="#00B9FF"></path>
                    <path d="M29.2666016,23.5084961 C29.0508789,23.5084961 28.8763672,23.3339844 28.8763672,23.1182617 L28.8763672,9.85068359 C28.8763672,9.63505859 29.0508789,9.46044922 29.2666016,9.46044922 C29.4822266,9.46044922 29.6568359,9.63496094 29.6568359,9.85068359 L29.6568359,23.1182617 C29.6568359,23.3339844 29.4822266,23.5084961 29.2666016,23.5084961 Z" id="Path" fill="#00B9FF"></path>
                    <path d="M44.0950195,23.5084961 L29.2666016,23.5084961 C29.0508789,23.5084961 28.8763672,23.3339844 28.8763672,23.1182617 C28.8763672,22.9025391 29.0508789,22.7280273 29.2666016,22.7280273 L44.0950195,22.7280273 C44.3106445,22.7280273 44.4851563,22.9025391 44.4851563,23.1182617 C44.4851563,23.3339844 44.3106445,23.5084961 44.0950195,23.5084961 Z" id="Path" fill="#00B9FF"></path>
                    <path d="M44.0950195,27.4107422 L29.2666016,27.4107422 C29.0508789,27.4107422 28.8763672,27.2360352 28.8763672,27.0205078 C28.8763672,26.8047852 29.0508789,26.6302734 29.2666016,26.6302734 L44.0950195,26.6302734 C44.3106445,26.6302734 44.4851563,26.8047852 44.4851563,27.0205078 C44.4851563,27.2360352 44.3106445,27.4107422 44.0950195,27.4107422 Z" id="Path" fill="#00B9FF"></path>
                    <path d="M42.534082,28.971582 L30.8274414,28.971582 C30.6117187,28.971582 30.437207,28.7970703 30.437207,28.5813477 C30.437207,28.365625 30.6117187,28.1911133 30.8274414,28.1911133 L42.534082,28.1911133 C42.749707,28.1911133 42.9243164,28.365625 42.9243164,28.5813477 C42.9243164,28.7970703 42.749707,28.971582 42.534082,28.971582 Z" id="Path" fill="#00B9FF"></path>
                    <path d="M40.1927734,30.5325195 L33.16875,30.5325195 C32.953125,30.5325195 32.7786133,30.3580078 32.7786133,30.1422852 C32.7786133,29.9265625 32.953125,29.7520508 33.16875,29.7520508 L40.1927734,29.7520508 C40.4084961,29.7520508 40.5830078,29.9265625 40.5830078,30.1422852 C40.5830078,30.3580078 40.4084961,30.5325195 40.1927734,30.5325195 Z" id="Path" fill="#00B9FF"></path>
                    <path d="M20.6817383,27.4107422 L5.85332031,27.4107422 C5.63759766,27.4107422 5.46308594,27.2360352 5.46308594,27.0205078 C5.46308594,26.8047852 5.63759766,26.6302734 5.85332031,26.6302734 L20.6817383,26.6302734 C20.8973633,26.6302734 21.0719727,26.8047852 21.0719727,27.0205078 C21.0719727,27.2360352 20.8973633,27.4107422 20.6817383,27.4107422 Z" id="Path" fill="#00B9FF"></path>
                    <path d="M19.1208008,28.971582 L7.41425781,28.971582 C7.19853516,28.971582 7.02402344,28.7970703 7.02402344,28.5813477 C7.02402344,28.365625 7.19853516,28.1911133 7.41425781,28.1911133 L19.1208984,28.1911133 C19.3365234,28.1911133 19.5111328,28.365625 19.5111328,28.5813477 C19.5111328,28.7970703 19.3365234,28.971582 19.1208008,28.971582 Z" id="Path" fill="#00B9FF"></path>
                    <path d="M16.7794922,30.5325195 L9.75556641,30.5325195 C9.53994141,30.5325195 9.36533203,30.3580078 9.36533203,30.1422852 C9.36533203,29.9265625 9.53984375,29.7520508 9.75556641,29.7520508 L16.7794922,29.7520508 C16.9952148,29.7520508 17.1697266,29.9265625 17.1697266,30.1422852 C17.1697266,30.3580078 16.9952148,30.5325195 16.7794922,30.5325195 Z" id="Path" fill="#00B9FF"></path>
                    <path d="M30.8274414,20.3867188 C30.7276367,20.3867188 30.6277344,20.3485352 30.5515625,20.2723633 C30.3990234,20.1199219 30.3990234,19.8730469 30.5515625,19.7206055 L35.2341797,15.0379883 C35.3866211,14.8855469 35.6334961,14.8855469 35.7859375,15.0379883 C35.9383789,15.1904297 35.9383789,15.4373047 35.7859375,15.5897461 L31.1033203,20.2723633 C31.0270508,20.3485352 30.9273438,20.3867188 30.8274414,20.3867188 Z" id="Path" fill="#00B9FF"></path>
                    <path d="M37.8513672,18.0453125 C37.7516602,18.0453125 37.6516602,18.0072266 37.5755859,17.9310547 L35.2341797,15.5897461 C35.0816406,15.4373047 35.0816406,15.190332 35.2341797,15.0379883 C35.3866211,14.8855469 35.6334961,14.8855469 35.7859375,15.0379883 L38.1273437,17.3792969 C38.2797852,17.5317383 38.2797852,17.7786133 38.1273437,17.9310547 C38.0510742,18.0073242 37.9512695,18.0453125 37.8513672,18.0453125 Z" id="Path" fill="#00B9FF"></path>
                    <path d="M37.8513672,18.0453125 C37.7516602,18.0453125 37.6516602,18.0072266 37.5755859,17.9310547 C37.4230469,17.7786133 37.4230469,17.5317383 37.5755859,17.3792969 L43.8191406,11.1357422 C43.971582,10.9833008 44.218457,10.9833008 44.3708984,11.1357422 C44.5233398,11.2882813 44.5233398,11.5351562 44.3708984,11.6875 L38.1273438,17.9310547 C38.0510742,18.0073242 37.9512695,18.0453125 37.8513672,18.0453125 Z" id="Path" fill="#00B9FF"></path>
                    <path d="M44.0950195,13.3626953 C43.8792969,13.3626953 43.7047852,13.1881836 43.7047852,12.9724609 L43.7047852,11.4116211 C43.7047852,11.1959961 43.8792969,11.0213867 44.0950195,11.0213867 C44.3106445,11.0213867 44.4851562,11.1959961 44.4851562,11.4116211 L44.4851562,12.9724609 C44.4851562,13.1881836 44.3106445,13.3626953 44.0950195,13.3626953 Z" id="Path" fill="#00B9FF"></path>
                    <path d="M44.0950195,11.8018555 L42.5341797,11.8018555 C42.318457,11.8018555 42.1439453,11.6273438 42.1439453,11.4116211 C42.1439453,11.1959961 42.318457,11.0213867 42.5341797,11.0213867 L44.0950195,11.0213867 C44.3106445,11.0213867 44.4851563,11.1959961 44.4851563,11.4116211 C44.4851563,11.6273438 44.3106445,11.8018555 44.0950195,11.8018555 Z" id="Path" fill="#00B9FF"></path>
                    <polygon id="Rectangle" fill="#CCF1FF" points="24.5 34.824707 25.5 34.824707 25.5 44.9702148 24.5 44.9702148"></polygon>
                    <path d="M25.7545898,45.3608398 C25.5388672,45.3608398 25.3643555,45.1863281 25.3643555,44.9706055 L25.3643555,40.0929688 C25.3643555,39.8772461 25.5388672,39.7027344 25.7545898,39.7027344 C25.9703125,39.7027344 26.1448242,39.8772461 26.1448242,40.0929688 L26.1448242,44.9706055 C26.1448242,45.1863281 25.9703125,45.3608398 25.7545898,45.3608398 Z" id="Path" fill="#00B9FF"></path>
                    <path d="M25.7545898,45.3608398 L24.19375,45.3608398 C23.9780273,45.3608398 23.8035156,45.1863281 23.8035156,44.9706055 C23.8035156,44.7548828 23.9780273,44.5803711 24.19375,44.5803711 L25.7545898,44.5803711 C25.9703125,44.5803711 26.1448242,44.7548828 26.1448242,44.9706055 C26.1448242,45.1863281 25.9703125,45.3608398 25.7545898,45.3608398 Z" id="Path" fill="#00B9FF"></path>
                    <path d="M24.19375,45.3608398 C23.9780273,45.3608398 23.8035156,45.1863281 23.8035156,44.9706055 L23.8035156,40.0929688 C23.8035156,39.8772461 23.9780273,39.7027344 24.19375,39.7027344 C24.409375,39.7027344 24.5839844,39.8772461 24.5839844,40.0929688 L24.5839844,44.9706055 C24.5838867,45.1863281 24.409375,45.3608398 24.19375,45.3608398 Z" id="Path" fill="#00B9FF"></path>
                </g>
            </g>
        </g>
    </g>
</svg>